<?xml version="1.0" encoding="UTF-8" standalone="no"?>
<svg width="159px" height="271px" viewBox="0 0 159 271" version="1.1" xmlns="http://www.w3.org/2000/svg" xmlns:xlink="http://www.w3.org/1999/xlink" xmlns:sketch="http://www.bohemiancoding.com/sketch/ns">
    <!-- Generator: Sketch 3.5.1 (25234) - http://www.bohemiancoding.com/sketch -->
    <title>chip</title>
    <desc>Created with Sketch.</desc>
    <defs>
        <linearGradient x1="162.393601%" y1="19.1202902%" x2="-193.65418%" y2="50%" id="linearGradient-1">
            <stop stop-color="#EFF0F1" offset="0%"></stop>
            <stop stop-color="#A8B8BD" offset="100%"></stop>
        </linearGradient>
        <linearGradient x1="67.9658011%" y1="-14.3862131%" x2="-45.8600833%" y2="84.3300796%" id="linearGradient-2">
            <stop stop-color="#B74E94" offset="0%"></stop>
            <stop stop-color="#9652CA" offset="100%"></stop>
        </linearGradient>
        <linearGradient x1="36.6648498%" y1="-32.0156886%" x2="232.672438%" y2="38.3728871%" id="linearGradient-3">
            <stop stop-color="#EFF0F1" offset="0%"></stop>
            <stop stop-color="#A8B8BD" offset="100%"></stop>
        </linearGradient>
    </defs>
    <g id="Page-1" stroke="none" stroke-width="1" fill="none" fill-rule="evenodd" sketch:type="MSPage">
        <g id="main-site" sketch:type="MSArtboardGroup" transform="translate(-358.000000, -89.000000)">
            <g id="active-bridge" sketch:type="MSLayerGroup" transform="translate(51.000000, 89.000000)">
                <g id="chip" transform="translate(307.000000, 0.000000)" sketch:type="MSShapeGroup">
                    <path d="M113.001525,37.1206897 C110.711114,38.4814978 109.604156,34.2780457 109.604156,34.2780457 L100.160442,29.4913793 L0,89 L0,266 L9.62763977,270.364655 L100.160442,206.491379 C100.160442,198.065569 105.910679,187.816353 113.001525,183.603448 C120.09237,179.390543 125.842607,182.806948 125.842607,191.232759 L135.501495,195.702759 L148.956555,177.5 L158.106461,4.89385939 L148.956555,0.5 L125.842607,14.2327586 C125.842607,22.658569 120.09237,32.9077845 113.001525,37.1206897 Z" id="Shape" fill="url(#linearGradient-1)"></path>
                    <path d="M123.001525,41.1206897 C115.910679,45.3335948 110.160442,41.9171897 110.160442,33.4913793 L10,93 L10,270 L110.160442,210.491379 C110.160442,202.065569 115.910679,191.816353 123.001525,187.603448 C130.09237,183.390543 135.842607,186.806948 135.842607,195.232759 L158.956555,181.5 L158.956555,4.5 L135.842607,18.2327586 C135.842607,26.658569 130.09237,36.9077845 123.001525,41.1206897 Z" id="Shape" fill="url(#linearGradient-2)"></path>
                    <path d="M10,117.413793 L30.5457317,80.7931034 L10,93 L10,117.413793 Z" id="Shape" fill-opacity="0.141502491" fill="#000000"></path>
                    <g id="chips" transform="translate(16.000000, 17.000000)" fill-opacity="0.124405571" fill="#FFFFFF">
                        <path d="M20.64918,225.534483 C20.64918,223.849062 19.4993503,223.16591 18.0809635,224.008621 C16.6625768,224.851331 15.5127471,226.900786 15.5127471,228.586207 C15.5127471,230.271628 16.6625768,230.954779 18.0809635,230.112069 C19.4993503,229.269359 20.64918,227.219903 20.64918,225.534483 Z" id="Oval"></path>
                        <path d="M25.7856129,228.586207 C25.7856129,226.900786 24.6357833,226.217634 23.2173965,227.060345 C21.7990097,227.903055 20.64918,229.95251 20.64918,231.637931 C20.64918,233.323352 21.7990097,234.006503 23.2173965,233.163793 C24.6357833,232.321083 25.7856129,230.271628 25.7856129,228.586207 Z" id="Oval"></path>
                        <path d="M33.4902623,217.905172 C33.4902623,216.219752 32.3404327,215.5366 30.9220459,216.37931 C29.5036591,217.222021 28.3538294,219.271476 28.3538294,220.956897 C28.3538294,222.642317 29.5036591,223.325469 30.9220459,222.482759 C32.3404327,221.640048 33.4902623,219.590593 33.4902623,217.905172 Z" id="Oval"></path>
                        <path d="M38.6266953,220.956897 C38.6266953,219.271476 37.4768656,218.588324 36.0584788,219.431034 C34.640092,220.273745 33.4902623,222.3232 33.4902623,224.008621 C33.4902623,225.694041 34.640092,226.377193 36.0584788,225.534483 C37.4768656,224.691772 38.6266953,222.642317 38.6266953,220.956897 Z" id="Oval"></path>
                        <path d="M46.3313447,210.275862 C46.3313447,208.590441 45.181515,207.90729 43.7631282,208.75 C42.3447414,209.59271 41.1949117,211.642166 41.1949117,213.327586 C41.1949117,215.013007 42.3447414,215.696159 43.7631282,214.853448 C45.181515,214.010738 46.3313447,211.961283 46.3313447,210.275862 Z" id="Oval"></path>
                        <path d="M51.4677776,213.327586 C51.4677776,211.642166 50.3179479,210.959014 48.8995611,211.801724 C47.4811744,212.644434 46.3313447,214.69389 46.3313447,216.37931 C46.3313447,218.064731 47.4811744,218.747883 48.8995611,217.905172 C50.3179479,217.062462 51.4677776,215.013007 51.4677776,213.327586 Z" id="Oval"></path>
                        <path d="M59.172427,202.646552 C59.172427,200.961131 58.0225973,200.277979 56.6042105,201.12069 C55.1858238,201.9634 54.0359941,204.012855 54.0359941,205.698276 C54.0359941,207.383697 55.1858238,208.066848 56.6042105,207.224138 C58.0225973,206.381428 59.172427,204.331972 59.172427,202.646552 Z" id="Oval"></path>
                        <path d="M64.3088599,205.698276 C64.3088599,204.012855 63.1590303,203.329703 61.7406435,204.172414 C60.3222567,205.015124 59.172427,207.064579 59.172427,208.75 C59.172427,210.435421 60.3222567,211.118572 61.7406435,210.275862 C63.1590303,209.433152 64.3088599,207.383697 64.3088599,205.698276 Z" id="Oval"></path>
                        <path d="M72.0135093,195.017241 C72.0135093,193.331821 70.8636797,192.648669 69.4452929,193.491379 C68.0269061,194.33409 66.8770764,196.383545 66.8770764,198.068966 C66.8770764,199.754386 68.0269061,200.437538 69.4452929,199.594828 C70.8636797,198.752117 72.0135093,196.702662 72.0135093,195.017241 Z" id="Oval"></path>
                        <path d="M77.1499423,198.068966 C77.1499423,196.383545 76.0001126,195.700393 74.5817258,196.543103 C73.163339,197.385814 72.0135093,199.435269 72.0135093,201.12069 C72.0135093,202.80611 73.163339,203.489262 74.5817258,202.646552 C76.0001126,201.803841 77.1499423,199.754386 77.1499423,198.068966 Z" id="Oval"></path>
                        <path d="M84.8545917,187.387931 C84.8545917,185.70251 83.704762,185.019359 82.2863752,185.862069 C80.8679884,186.704779 79.7181587,188.754234 79.7181587,190.439655 C79.7181587,192.125076 80.8679884,192.808228 82.2863752,191.965517 C83.704762,191.122807 84.8545917,189.073352 84.8545917,187.387931 Z" id="Oval"></path>
                        <path d="M89.9910246,190.439655 C89.9910246,188.754234 88.8411949,188.071083 87.4228081,188.913793 C86.0044214,189.756503 84.8545917,191.805959 84.8545917,193.491379 C84.8545917,195.1768 86.0044214,195.859952 87.4228081,195.017241 C88.8411949,194.174531 89.9910246,192.125076 89.9910246,190.439655 Z" id="Oval"></path>
                        <path d="M5.23988121,112.62069 C5.23988121,110.935269 4.09005153,110.252117 2.67166474,111.094828 C1.25327795,111.937538 0.103448276,113.986993 0.103448276,115.672414 C0.103448276,117.357834 1.25327795,118.040986 2.67166474,117.198276 C4.09005153,116.355566 5.23988121,114.30611 5.23988121,112.62069 Z" id="Oval"></path>
                        <path d="M28.3538294,68.3706897 C28.3538294,66.685269 27.2039997,66.0021172 25.7856129,66.8448276 C24.3672262,67.6875379 23.2173965,69.7369931 23.2173965,71.4224138 C23.2173965,73.1078345 24.3672262,73.7909862 25.7856129,72.9482759 C27.2039997,72.1055655 28.3538294,70.0561104 28.3538294,68.3706897 Z" id="Oval"></path>
                        <path d="M38.6266953,62.2672414 C38.6266953,60.5818207 37.4768656,59.898669 36.0584788,60.7413793 C34.640092,61.5840897 33.4902623,63.6335448 33.4902623,65.3189655 C33.4902623,67.0043862 34.640092,67.6875379 36.0584788,66.8448276 C37.4768656,66.0021172 38.6266953,63.9526621 38.6266953,62.2672414 Z" id="Oval"></path>
                        <path d="M5.23988121,103.465517 C5.23988121,101.780097 4.09005153,101.096945 2.67166474,101.939655 C1.25327795,102.782366 0.103448276,104.831821 0.103448276,106.517241 C0.103448276,108.202662 1.25327795,108.885814 2.67166474,108.043103 C4.09005153,107.200393 5.23988121,105.150938 5.23988121,103.465517 Z" id="Oval"></path>
                        <path d="M5.23988121,149.241379 C5.23988121,147.555959 4.09005153,146.872807 2.67166474,147.715517 C1.25327795,148.558228 0.103448276,150.607683 0.103448276,152.293103 C0.103448276,153.978524 1.25327795,154.661676 2.67166474,153.818966 C4.09005153,152.976255 5.23988121,150.9268 5.23988121,149.241379 Z" id="Oval"></path>
                        <path d="M5.23988121,164.5 C5.23988121,162.814579 4.09005153,162.131428 2.67166474,162.974138 C1.25327795,163.816848 0.103448276,165.866303 0.103448276,167.551724 C0.103448276,169.237145 1.25327795,169.920297 2.67166474,169.077586 C4.09005153,168.234876 5.23988121,166.185421 5.23988121,164.5 Z" id="Oval"></path>
                        <path d="M10.3763141,170.603448 C10.3763141,168.918028 9.22648446,168.234876 7.80809768,169.077586 C6.38971089,169.920297 5.23988121,171.969752 5.23988121,173.655172 C5.23988121,175.340593 6.38971089,176.023745 7.80809768,175.181034 C9.22648446,174.338324 10.3763141,172.288869 10.3763141,170.603448 Z" id="Oval"></path>
                        <path d="M5.23988121,179.758621 C5.23988121,178.0732 4.09005153,177.390048 2.67166474,178.232759 C1.25327795,179.075469 0.103448276,181.124924 0.103448276,182.810345 C0.103448276,184.495766 1.25327795,185.178917 2.67166474,184.336207 C4.09005153,183.493497 5.23988121,181.444041 5.23988121,179.758621 Z" id="Oval"></path>
                        <path d="M10.3763141,185.862069 C10.3763141,184.176648 9.22648446,183.493497 7.80809768,184.336207 C6.38971089,185.178917 5.23988121,187.228372 5.23988121,188.913793 C5.23988121,190.599214 6.38971089,191.282366 7.80809768,190.439655 C9.22648446,189.596945 10.3763141,187.54749 10.3763141,185.862069 Z" id="Oval"></path>
                        <path d="M5.23988121,195.017241 C5.23988121,193.331821 4.09005153,192.648669 2.67166474,193.491379 C1.25327795,194.33409 0.103448276,196.383545 0.103448276,198.068966 C0.103448276,199.754386 1.25327795,200.437538 2.67166474,199.594828 C4.09005153,198.752117 5.23988121,196.702662 5.23988121,195.017241 Z" id="Oval"></path>
                        <path d="M10.3763141,201.12069 C10.3763141,199.435269 9.22648446,198.752117 7.80809768,199.594828 C6.38971089,200.437538 5.23988121,202.486993 5.23988121,204.172414 C5.23988121,205.857834 6.38971089,206.540986 7.80809768,205.698276 C9.22648446,204.855566 10.3763141,202.80611 10.3763141,201.12069 Z" id="Oval"></path>
                        <path d="M5.23988121,210.275862 C5.23988121,208.590441 4.09005153,207.90729 2.67166474,208.75 C1.25327795,209.59271 0.103448276,211.642166 0.103448276,213.327586 C0.103448276,215.013007 1.25327795,215.696159 2.67166474,214.853448 C4.09005153,214.010738 5.23988121,211.961283 5.23988121,210.275862 Z" id="Oval"></path>
                        <path d="M138.787137,72.9482759 C138.787137,71.2628552 137.637308,70.5797034 136.218921,71.4224138 C134.800534,72.2651241 133.650705,74.3145793 133.650705,76 C133.650705,77.6854207 134.800534,78.3685724 136.218921,77.5258621 C137.637308,76.6831517 138.787137,74.6336966 138.787137,72.9482759 Z" id="Oval"></path>
                        <path d="M133.650705,69.8965517 C133.650705,68.211131 132.500875,67.5279793 131.082488,68.3706897 C129.664101,69.2134 128.514272,71.2628552 128.514272,72.9482759 C128.514272,74.6336966 129.664101,75.3168483 131.082488,74.4741379 C132.500875,73.6314276 133.650705,71.5819724 133.650705,69.8965517 Z" id="Oval"></path>
                        <path d="M138.787137,133.982759 C138.787137,132.297338 137.637308,131.614186 136.218921,132.456897 C134.800534,133.299607 133.650705,135.349062 133.650705,137.034483 C133.650705,138.719903 134.800534,139.403055 136.218921,138.560345 C137.637308,137.717634 138.787137,135.668179 138.787137,133.982759 Z" id="Oval"></path>
                        <path d="M133.650705,130.931034 C133.650705,129.245614 132.500875,128.562462 131.082488,129.405172 C129.664101,130.247883 128.514272,132.297338 128.514272,133.982759 C128.514272,135.668179 129.664101,136.351331 131.082488,135.508621 C132.500875,134.66591 133.650705,132.616455 133.650705,130.931034 Z" id="Oval"></path>
                        <path d="M138.787137,103.465517 C138.787137,101.780097 137.637308,101.096945 136.218921,101.939655 C134.800534,102.782366 133.650705,104.831821 133.650705,106.517241 C133.650705,108.202662 134.800534,108.885814 136.218921,108.043103 C137.637308,107.200393 138.787137,105.150938 138.787137,103.465517 Z" id="Oval"></path>
                        <path d="M10.3763141,216.37931 C10.3763141,214.69389 9.22648446,214.010738 7.80809768,214.853448 C6.38971089,215.696159 5.23988121,217.745614 5.23988121,219.431034 C5.23988121,221.116455 6.38971089,221.799607 7.80809768,220.956897 C9.22648446,220.114186 10.3763141,218.064731 10.3763141,216.37931 Z" id="Oval"></path>
                        <path d="M138.787137,161.448276 C138.787137,159.762855 137.637308,159.079703 136.218921,159.922414 C134.800534,160.765124 133.650705,162.814579 133.650705,164.5 C133.650705,166.185421 134.800534,166.868572 136.218921,166.025862 C137.637308,165.183152 138.787137,163.133697 138.787137,161.448276 Z" id="Oval"></path>
                        <path d="M138.787137,2.75862069 C138.787137,1.07319999 137.637308,0.39004827 136.218921,1.23275862 C134.800534,2.07546897 133.650705,4.12492413 133.650705,5.81034483 C133.650705,7.49576553 134.800534,8.17891725 136.218921,7.3362069 C137.637308,6.49349655 138.787137,4.44404139 138.787137,2.75862069 Z" id="Oval"></path>
                        <path d="M5.23988121,240.793103 C5.23988121,239.107683 4.09005153,238.424531 2.67166474,239.267241 C1.25327795,240.109952 0.103448276,242.159407 0.103448276,243.844828 C0.103448276,245.530248 1.25327795,246.2134 2.67166474,245.37069 C4.09005153,244.527979 5.23988121,242.478524 5.23988121,240.793103 Z" id="Oval"></path>
                        <path d="M5.23988121,225.534483 C5.23988121,223.849062 4.09005153,223.16591 2.67166474,224.008621 C1.25327795,224.851331 0.103448276,226.900786 0.103448276,228.586207 C0.103448276,230.271628 1.25327795,230.954779 2.67166474,230.112069 C4.09005153,229.269359 5.23988121,227.219903 5.23988121,225.534483 Z" id="Path"></path>
                    </g>
                    <path d="M35.902482,141.699518 C35.7598199,141.306155 35.6821647,140.837719 35.6821647,140.301724 L35.6821647,123.416534 C35.6821647,115.045655 41.3938781,104.865103 48.4384959,100.679664 L120.518059,57.854819 C127.562677,53.6693793 133.27439,57.0628966 133.27439,65.4337759 L133.27439,88.1212526 L125.569741,92.3606863 L125.569741,74.1189828 C125.569741,68.5343276 121.761076,66.2714741 117.063808,69.0622759 L51.8953152,107.781026 C47.1954791,110.573353 43.3868141,117.361914 43.3868141,122.946569 L43.3868141,137.581313 L35.902482,141.699518 Z M35.8533691,190.726542 C35.742091,191.220258 35.6821647,191.710183 35.6821647,192.181034 L35.6821647,209.066224 C35.6821647,217.437103 41.3938781,220.830621 48.4384959,216.645181 L120.520627,173.81881 C127.562677,169.634897 133.27439,159.454345 133.27439,151.083466 L133.27439,137.121253 L125.569741,141.360686 L125.569741,151.556483 C125.569741,157.138086 121.761076,163.926647 117.06124,166.718974 L51.8953152,205.436198 C47.1954791,208.228526 43.3868141,205.965672 43.3868141,200.381017 L43.3868141,186.581313 L35.8533691,190.726542 Z" id="Shape" fill-opacity="0.182942708" fill="#FFFFFF"></path>
                    <g id="services-title" transform="translate(28.000000, 98.000000)">
                        <path d="M10.9422351,73.6891312 C11.0678485,73.1778521 11.1306543,72.6958243 11.1306543,72.2430334 C11.1306543,71.3148119 10.985416,70.7106901 10.694935,70.4306498 C10.404454,70.1506094 10.0864999,70.016019 9.74106302,70.0268744 C9.14439937,70.0415084 8.44961068,70.1276582 7.6566761,70.2853264 C6.86374152,70.4429946 5.88632693,70.6182922 4.72440299,70.8112246 C4.00212594,70.9409456 3.40154589,70.9181422 2.92264481,70.7428138 C2.44374372,70.5674853 2.06298382,70.2866847 1.78035367,69.9004034 C1.49772353,69.5141221 1.29753018,69.048077 1.17976761,68.5022542 C1.06200505,67.9564313 1.00312465,67.3665751 1.00312465,66.7326678 C1.00312465,65.5101322 1.17976585,64.3535834 1.53305353,63.2629865 C1.88634122,62.1723896 2.35345904,61.1713612 2.934421,60.2598713 C3.51538297,59.3483814 4.17484343,58.5460906 4.91282214,57.8529747 C5.65080086,57.1598588 6.39661923,56.6038854 7.15029962,56.1850378 C8.02959341,55.6963824 8.85784434,55.4002275 9.63507724,55.2965644 C10.4123101,55.1929013 11.0953228,55.3057292 11.6841356,55.6350514 C12.2729484,55.9643736 12.7400662,56.5141309 13.085503,57.2843399 C13.4309399,58.0545488 13.6036557,59.0735453 13.6036557,60.34136 L10.6596064,61.977475 C10.581098,60.4589763 10.2121142,59.5603726 9.55264386,59.2816371 C8.89317352,59.0029016 8.05314652,59.1471264 7.03253765,59.7143158 C6.6871008,59.9062876 6.33381842,60.1535577 5.9726799,60.4561334 C5.61154138,60.7587092 5.28181115,61.1117463 4.98347933,61.5152554 C4.68514751,61.9187644 4.43784984,62.3788054 4.2415789,62.8953921 C4.04530796,63.4119789 3.94717397,63.9758977 3.94717397,64.5871654 C3.94717397,65.4474682 4.13166588,66.0184558 4.50065524,66.3001453 C4.8696446,66.5818348 5.35246386,66.6814017 5.9491275,66.5988491 C6.0119342,66.5865846 6.25923187,66.545369 6.69102793,66.4752008 C7.12282399,66.4050327 7.60564325,66.323486 8.13950019,66.2305582 C8.67335714,66.1376305 9.19542999,66.0455887 9.70573443,65.9544301 C10.2160389,65.8632716 10.5810973,65.8018904 10.8009208,65.7702847 C11.3504794,65.7139101 11.8293733,65.7873594 12.2376168,65.9906351 C12.6458604,66.1939107 12.9873667,66.496526 13.262146,66.8984901 C13.5369253,67.3004542 13.741044,67.7812972 13.8745083,68.3410336 C14.0079725,68.90077 14.0747036,69.4975829 14.0747036,70.1314902 C14.0747036,71.489863 13.882361,72.7570142 13.4976699,73.9329817 C13.1129789,75.1089492 12.6066075,76.1770707 11.9785405,77.1373781 C11.3504735,78.0976855 10.636058,78.9418364 9.8352726,79.6698563 C9.03448718,80.3978761 8.21801233,80.9931159 7.38582357,81.4555934 C6.4280214,81.9878788 5.52518864,82.3198217 4.6772982,82.451432 C3.82940776,82.5830423 3.09144011,82.4724559 2.46337311,82.1196696 C1.83530612,81.7668833 1.33286006,81.1462023 0.956019866,80.257608 C0.579179669,79.3690138 0.382911678,78.1819924 0.367210003,76.6965083 L3.31125932,75.0603932 C3.31125932,75.9886147 3.42116939,76.7199059 3.64099284,77.2542889 C3.86081629,77.7886719 4.16699435,78.1561988 4.55953623,78.3568806 C4.9520781,78.5575625 5.40349448,78.6123233 5.91379891,78.5211648 C6.42410334,78.4300062 6.97757908,78.2186363 7.57424272,77.8870487 C8.21801139,77.529283 8.76756177,77.1163417 9.22291034,76.6482123 C9.67825891,76.1800829 10.0472427,75.6976949 10.3298729,75.2010338 C10.612503,74.7043728 10.8166217,74.2004103 10.9422351,73.6891312 Z M19.5859639,63.3331762 L19.5859639,70.4306387 L28.9127122,65.2474261 L28.9127122,68.9150144 L16.6419146,75.7343421 L16.6419146,51.4875084 L28.7478454,44.7598032 L28.7478454,48.4273915 L19.5859639,53.5189816 L19.5859639,59.8693428 L28.0648259,55.1573314 L28.0648259,58.6211648 L19.5859639,63.3331762 Z M42.2904722,49.9004371 C42.541699,49.8740187 42.8125489,49.8366936 43.1030298,49.8563792 C43.3935108,49.8760647 43.6643607,50.0141935 43.9155875,50.2707698 C44.1668143,50.527346 44.3748583,50.9267703 44.5397259,51.4690547 C44.7045935,52.0113391 44.7870261,52.7579006 44.7870261,53.7087616 C44.7870261,55.1350531 44.8616079,56.3896999 45.0107738,57.4727396 C45.1599397,58.5557794 45.3915359,59.2590638 45.7055694,59.5826141 L42.5495486,61.3365294 C42.3297251,60.9379837 42.2001883,60.4326723 42.1609341,59.8205799 C42.1216799,59.2084876 42.1020531,58.6081363 42.1020531,58.0195081 C42.1020531,56.9101703 42.0549488,55.9798413 41.9607387,55.2284934 C41.8665287,54.4771454 41.6938128,53.9052732 41.442586,53.5128597 C41.1913592,53.1204462 40.8498529,52.9197073 40.4180569,52.9106371 C39.9862608,52.9015668 39.4327851,53.0846377 38.7576131,53.4598553 L34.4239725,55.8682167 L34.4239725,65.852207 L31.4799232,67.4883221 L31.4799232,43.2414884 L39.5112897,38.7781665 C41.3640873,37.7484996 42.7536647,37.5535608 43.6800635,38.1933443 C44.6064623,38.8331277 45.0696548,40.1830986 45.0696548,42.2432974 C45.0696548,43.3979143 44.951894,44.4198647 44.7163689,45.3091794 C44.4808437,46.1984941 44.2060686,46.9624552 43.8920351,47.6010858 C43.5780016,48.2397163 43.2678981,48.7459803 42.9617155,49.1198931 C42.6555328,49.4938058 42.4317873,49.7539846 42.2904722,49.9004371 Z M39.2051086,42.4121559 L34.4239725,45.0692067 L34.4239725,52.6420974 L39.2522133,49.9588686 C40.1943138,49.4353092 40.9087293,48.7156739 41.3954812,47.7999411 C41.8822332,46.8842083 42.1256055,45.7811313 42.1256055,44.4906771 C42.1256055,43.7209326 42.0470983,43.1363238 41.8900815,42.7368335 C41.7330648,42.3373431 41.51717,42.078117 41.2423907,41.9591473 C40.9676114,41.8401775 40.6535826,41.8335811 40.3002949,41.9393577 C39.9470072,42.0451343 39.5819488,42.2027321 39.2051086,42.4121559 Z M51.3345917,56.454362 L45.7291218,35.3226915 L48.7909331,33.6211318 L53.0068117,50.4651352 L53.0539165,50.4389574 L57.3640047,28.8567647 L60.3551588,27.1944718 L54.6083746,54.6350021 L51.3345917,56.454362 Z M62.0273788,50.5119921 L62.0273788,26.2651584 L64.9714282,24.6290434 L64.9714282,48.875877 L62.0273788,50.5119921 Z M70.9184078,30.0515927 C70.7221368,31.2700054 70.6240028,32.4565024 70.6240028,33.6111193 C70.6240028,34.7657362 70.7221368,35.8431599 70.9184078,36.8434228 C71.1146787,37.8436857 71.4169314,38.6661783 71.825175,39.3109251 C72.2334185,39.9556719 72.7633421,40.3573297 73.4149616,40.5159107 C74.0665811,40.6744917 74.839877,40.505094 75.7348724,40.0077125 C76.3943428,39.6412209 76.975296,39.1542298 77.4777496,38.5467247 C77.9802032,37.9392196 78.4119928,37.2464743 78.7731313,36.468468 C79.1342699,35.6904618 79.4168958,34.8598799 79.6210175,33.9766974 C79.8251393,33.0935149 79.9586015,32.1930141 80.0214082,31.2751678 L82.8948004,29.6783194 C82.8319937,31.1621544 82.6160989,32.6065286 82.2471095,34.0114854 C81.8781202,35.4164422 81.3795995,36.729232 80.7515325,37.9498942 C80.1234655,39.1705563 79.3854978,40.2541882 78.5376074,41.2008222 C77.6897169,42.1474561 76.7554813,42.9043565 75.7348724,43.4715459 C74.4787385,44.1696251 73.3521602,44.4617773 72.3551038,44.348011 C71.3580475,44.2342448 70.5140951,43.7920317 69.8232214,43.0213584 C69.1323477,42.250685 68.6024241,41.19815 68.2334348,39.8637216 C67.8644454,38.5292931 67.6799535,36.9904795 67.6799535,35.2472343 C67.6799535,33.5266288 67.8644454,31.794077 68.2334348,30.049527 C68.6024241,28.304977 69.1323477,26.6634464 69.8232214,25.1248859 C70.5140951,23.5863254 71.3580475,22.2004226 72.3551038,20.9671357 C73.3521602,19.7338489 74.4787385,18.7681804 75.7348724,18.0701011 C76.6769729,17.5465417 77.5641043,17.240304 78.396293,17.1513791 C79.2284818,17.0624541 79.9625241,17.1978611 80.5984419,17.5576042 C81.2343597,17.9173473 81.7485819,18.4975251 82.1411238,19.298155 C82.5336656,20.0987848 82.7770379,21.1294532 82.871248,22.390191 L79.9271987,24.026306 C79.8015853,23.394288 79.6288694,22.845055 79.409046,22.3785907 C79.1892225,21.9121263 78.9065966,21.5598096 78.5611598,21.32163 C78.2157229,21.0834504 77.8114109,20.974213 77.3482115,20.9939145 C76.8850121,21.013616 76.3472378,21.1936208 75.7348724,21.5339345 C74.839877,22.031316 74.0665811,22.7214154 73.4149616,23.6042536 C72.7633421,24.4870918 72.2334185,25.4777452 71.825175,26.5762435 C71.4169314,27.6747419 71.1146787,28.83318 70.9184078,30.0515927 Z M88.5238227,25.0219056 L88.5238227,32.1193682 L97.8505709,26.9361556 L97.8505709,30.6037439 L85.5797733,37.4230715 L85.5797733,13.1762379 L97.6857041,6.44853268 L97.6857041,10.116121 L88.5238227,15.2077111 L88.5238227,21.5580723 L97.0026847,16.8460609 L97.0026847,20.3098942 L88.5238227,25.0219056 Z M109.980054,18.6502201 C110.105667,18.1389411 110.168473,17.6569133 110.168473,17.2041223 C110.168473,16.2759009 110.023235,15.6717791 109.732754,15.3917387 C109.442273,15.1116984 109.124319,14.977108 108.778882,14.9879634 C108.182218,15.0025974 107.48743,15.0887472 106.694495,15.2464153 C105.90156,15.4040835 104.924146,15.5793812 103.762222,15.7723136 C103.039945,15.9020346 102.439365,15.8792312 101.960464,15.7039027 C101.481563,15.5285743 101.100803,15.2477736 100.818173,14.8614923 C100.535542,14.475211 100.335349,14.009166 100.217587,13.4633431 C100.099824,12.9175203 100.040944,12.327664 100.040944,11.6937567 C100.040944,10.4712212 100.217585,9.31467231 100.570872,8.22407541 C100.92416,7.13347852 101.391278,6.13245014 101.97224,5.22096026 C102.553202,4.30947039 103.212662,3.50717953 103.950641,2.81406363 C104.68862,2.12094773 105.434438,1.56497434 106.188119,1.14612679 C107.067412,0.657471312 107.895663,0.361316462 108.672896,0.257653355 C109.450129,0.153990249 110.133142,0.26681811 110.721954,0.596140323 C111.310767,0.925462537 111.777885,1.47521987 112.123322,2.24542883 C112.468759,3.01563778 112.641475,4.03463429 112.641475,5.30244893 L109.697425,6.938564 C109.618917,5.42006521 109.249933,4.52146155 108.590463,4.24272607 C107.930992,3.96399058 107.090965,4.10821538 106.070357,4.67540477 C105.72492,4.86737657 105.371637,5.11464663 105.010499,5.41722238 C104.64936,5.71979812 104.31963,6.07283524 104.021298,6.4763443 C103.722966,6.87985337 103.475669,7.33989437 103.279398,7.8564811 C103.083127,8.37306783 102.984993,8.93698662 102.984993,9.54825439 C102.984993,10.4085572 103.169485,10.9795447 103.538474,11.2612342 C103.907464,11.5429237 104.390283,11.6424906 104.986946,11.559938 C105.049753,11.5476736 105.297051,11.5064579 105.728847,11.4362898 C106.160643,11.3661217 106.643462,11.2845749 107.177319,11.1916472 C107.711176,11.0987194 108.233249,11.0066776 108.743553,10.9155191 C109.253858,10.8243605 109.618916,10.7629793 109.83874,10.7313737 C110.388298,10.674999 110.867192,10.7484484 111.275436,10.951724 C111.683679,11.1549997 112.025186,11.457615 112.299965,11.859579 C112.574744,12.2615431 112.778863,12.7423861 112.912327,13.3021225 C113.045791,13.8618589 113.112523,14.4586718 113.112523,15.0925791 C113.112523,16.450952 112.92018,17.7181031 112.535489,18.8940706 C112.150798,20.0700382 111.644426,21.1381596 111.016359,22.098467 C110.388292,23.0587744 109.673877,23.9029254 108.873092,24.6309452 C108.072306,25.3589651 107.255831,25.9542049 106.423642,26.4166824 C105.46584,26.9489678 104.563008,27.2809107 103.715117,27.412521 C102.867227,27.5441313 102.129259,27.4335449 101.501192,27.0807586 C100.873125,26.7279722 100.370679,26.1072912 99.9938388,25.218697 C99.6169986,24.3301027 99.4207306,23.1430814 99.4050289,21.6575972 L102.349078,20.0214822 C102.349078,20.9497036 102.458988,21.6809948 102.678812,22.2153778 C102.898635,22.7497608 103.204813,23.1172877 103.597355,23.3179696 C103.989897,23.5186515 104.441313,23.5734123 104.951618,23.4822537 C105.461922,23.3910952 106.015398,23.1797253 106.612062,22.8481376 C107.25583,22.490372 107.805381,22.0774307 108.260729,21.6093012 C108.716078,21.1411718 109.085062,20.6587838 109.367692,20.1621228 C109.650322,19.6654617 109.854441,19.1614992 109.980054,18.6502201 Z" id="SERVICES" fill-opacity="0.100000001" fill="#020202"></path>
                        <path d="M13.6851881,74.8295946 C13.8108015,74.3183155 13.8736073,73.8362877 13.8736073,73.3834967 C13.8736073,72.4552753 13.728369,71.8511535 13.437888,71.5711131 C13.147407,71.2910728 12.8294528,71.1564824 12.484016,71.1673378 C11.8873524,71.1819718 11.1925637,71.2681216 10.3996291,71.4257898 C9.6066945,71.583458 8.6292799,71.7587556 7.46735597,71.951688 C6.74507892,72.081409 6.14449887,72.0586056 5.66559779,71.8832772 C5.1866967,71.7079487 4.8059368,71.427148 4.52330665,71.0408667 C4.2406765,70.6545854 4.04048315,70.1885404 3.92272059,69.6427175 C3.80495803,69.0968947 3.74607763,68.5070385 3.74607763,67.8731311 C3.74607763,66.6505956 3.92271883,65.4940467 4.27600651,64.4034498 C4.62929419,63.3128529 5.09641201,62.3118246 5.67737398,61.4003347 C6.25833595,60.4888448 6.9177964,59.6865539 7.65577512,58.993438 C8.39375384,58.3003221 9.13957221,57.7443488 9.8932526,57.3255012 C10.7725464,56.8368457 11.6007973,56.5406909 12.3780302,56.4370278 C13.1552631,56.3333647 13.8382757,56.4461925 14.4270885,56.7755147 C15.0159014,57.104837 15.4830192,57.6545943 15.828456,58.4248032 C16.1738929,59.1950122 16.3466087,60.2140087 16.3466087,61.4818233 L13.4025594,63.1179384 C13.324051,61.5994396 12.9550672,60.700836 12.2955968,60.4221005 C11.6361265,60.143365 10.7960995,60.2875898 9.77549063,60.8547792 C9.43005378,61.046751 9.0767714,61.294021 8.71563288,61.5965968 C8.35449435,61.8991725 8.02476413,62.2522097 7.72643231,62.6557187 C7.42810048,63.0592278 7.18080281,63.5192688 6.98453188,64.0358555 C6.78826094,64.5524422 6.69012695,65.116361 6.69012695,65.7276288 C6.69012695,66.5879316 6.87461886,67.1589192 7.24360822,67.4406086 C7.61259758,67.7222981 8.09541684,67.8218651 8.69208048,67.7393124 C8.75488718,67.727048 9.00218485,67.6858324 9.43398091,67.6156642 C9.86577697,67.5454961 10.3485962,67.4639493 10.8824532,67.3710216 C11.4163101,67.2780938 11.938383,67.186052 12.4486874,67.0948935 C12.9589918,67.003735 13.3240503,66.9423538 13.5438738,66.9107481 C14.0934324,66.8543734 14.5723263,66.9278228 14.9805698,67.1310984 C15.3888134,67.3343741 15.7303197,67.6369894 16.005099,68.0389535 C16.2798783,68.4409175 16.483997,68.9217605 16.6174612,69.4814969 C16.7509255,70.0412333 16.8176566,70.6380462 16.8176566,71.2719536 C16.8176566,72.6303264 16.625314,73.8974775 16.2406229,75.0734451 C15.8559319,76.2494126 15.3495605,77.317534 14.7214935,78.2778414 C14.0934265,79.2381488 13.379011,80.0822998 12.5782256,80.8103196 C11.7774402,81.5383395 10.9609653,82.1335793 10.1287765,82.5960568 C9.17097438,83.1283422 8.26814162,83.4602851 7.42025118,83.5918954 C6.57236074,83.7235057 5.83439309,83.6129193 5.20632609,83.260133 C4.5782591,82.9073466 4.07581304,82.2866657 3.69897284,81.3980714 C3.32213265,80.5094772 3.12586466,79.3224558 3.11016298,77.8369717 L6.0542123,76.2008566 C6.0542123,77.129078 6.16412237,77.8603693 6.38394582,78.3947523 C6.60376927,78.9291352 6.90994733,79.2966622 7.3024892,79.497344 C7.69503108,79.6980259 8.14644746,79.7527867 8.65675189,79.6616282 C9.16705632,79.5704696 9.72053206,79.3590997 10.3171957,79.027512 C10.9609644,78.6697464 11.5105147,78.2568051 11.9658633,77.7886757 C12.4212119,77.3205462 12.7901957,76.8381582 13.0728259,76.3414972 C13.355456,75.8448362 13.5595747,75.3408737 13.6851881,74.8295946 Z M22.3289169,64.4736396 L22.3289169,71.5711021 L31.6556651,66.3878895 L31.6556651,70.0554778 L19.3848676,76.8748054 L19.3848676,52.6279718 L31.4907984,45.9002666 L31.4907984,49.5678549 L22.3289169,54.659445 L22.3289169,61.0098062 L30.8077789,56.2977948 L30.8077789,59.7616281 L22.3289169,64.4736396 Z M45.0334252,51.0409005 C45.284652,51.014482 45.5555018,50.977157 45.8459828,50.9968425 C46.1364638,51.0165281 46.4073136,51.1546569 46.6585404,51.4112331 C46.9097672,51.6678094 47.1178113,52.0672337 47.2826789,52.6095181 C47.4475465,53.1518025 47.529979,53.898364 47.529979,54.849225 C47.529979,56.2755164 47.6045609,57.5301632 47.7537268,58.613203 C47.9028927,59.6962428 48.1344889,60.3995272 48.4485224,60.7230774 L45.2925016,62.4769928 C45.0726781,62.0784471 44.9431412,61.5731356 44.903887,60.9610433 C44.8646329,60.3489509 44.8450061,59.7485997 44.8450061,59.1599714 C44.8450061,58.0506336 44.7979017,57.1203047 44.7036917,56.3689567 C44.6094816,55.6176087 44.4367658,55.0457366 44.185539,54.6533231 C43.9343122,54.2609096 43.5928059,54.0601707 43.1610098,54.0511004 C42.7292138,54.0420302 42.1757381,54.2251011 41.500566,54.6003187 L37.1669254,57.0086801 L37.1669254,66.9926704 L34.2228761,68.6287855 L34.2228761,44.3819518 L42.2542427,39.9186299 C44.1070403,38.888963 45.4966177,38.6940242 46.4230165,39.3338076 C47.3494153,39.9735911 47.8126078,41.3235619 47.8126078,43.3837607 C47.8126078,44.5383776 47.694847,45.5603281 47.4593218,46.4496428 C47.2237967,47.3389575 46.9490215,48.1029186 46.634988,48.7415491 C46.3209545,49.3801797 46.0108511,49.8864437 45.7046685,50.2603565 C45.3984858,50.6342692 45.1747403,50.8944479 45.0334252,51.0409005 Z M41.9480615,43.5526192 L37.1669254,46.2096701 L37.1669254,53.7825607 L41.9951663,51.099332 C42.9372668,50.5757726 43.6516823,49.8561372 44.1384342,48.9404044 C44.6251861,48.0246716 44.8685585,46.9215947 44.8685585,45.6311405 C44.8685585,44.8613959 44.7900513,44.2767872 44.6330345,43.8772969 C44.4760178,43.4778065 44.260123,43.2185803 43.9853437,43.0996106 C43.7105643,42.9806409 43.3965356,42.9740444 43.0432479,43.079821 C42.6899602,43.1855976 42.3249017,43.3431955 41.9480615,43.5526192 Z M54.0775447,57.5948254 L48.4720748,36.4631549 L51.5338861,34.7615952 L55.7497647,51.6055986 L55.7968695,51.5794207 L60.1069577,29.9972281 L63.0981118,28.3349352 L57.3513275,55.7754654 L54.0775447,57.5948254 Z M64.7703318,51.6524555 L64.7703318,27.4056218 L67.7143811,25.7695067 L67.7143811,50.0163404 L64.7703318,51.6524555 Z M73.6613607,31.192056 C73.4650898,32.4104687 73.3669558,33.5969657 73.3669558,34.7515826 C73.3669558,35.9061995 73.4650898,36.9836233 73.6613607,37.9838862 C73.8576317,38.9841491 74.1598844,39.8066416 74.5681279,40.4513884 C74.9763715,41.0961352 75.5062951,41.4977931 76.1579146,41.6563741 C76.8095341,41.814955 77.58283,41.6455573 78.4778254,41.1481759 C79.1372958,40.7816843 79.718249,40.2946932 80.2207026,39.6871881 C80.7231562,39.0796829 81.1549458,38.3869376 81.5160843,37.6089314 C81.8772228,36.8309252 82.1598487,36.0003433 82.3639705,35.1171608 C82.5680923,34.2339783 82.7015545,33.3334774 82.7643612,32.4156311 L85.6377534,30.8187828 C85.5749467,32.3026178 85.3590519,33.746992 84.9900625,35.1519488 C84.6210731,36.5569055 84.1225524,37.8696953 83.4944855,39.0903575 C82.8664185,40.3110197 82.1284508,41.3946515 81.2805604,42.3412855 C80.4326699,43.2879195 79.4984343,44.0448198 78.4778254,44.6120092 C77.2216914,45.3100885 76.0951132,45.6022406 75.0980568,45.4884744 C74.1010005,45.3747082 73.2570481,44.932495 72.5661744,44.1618217 C71.8753007,43.3911484 71.3453771,42.3386133 70.9763878,41.0041849 C70.6073984,39.6697565 70.4229065,38.1309428 70.4229065,36.3876977 C70.4229065,34.6670921 70.6073984,32.9345403 70.9763878,31.1899904 C71.3453771,29.4454404 71.8753007,27.8039098 72.5661744,26.2653493 C73.2570481,24.7267888 74.1010005,23.3408859 75.0980568,22.1075991 C76.0951132,20.8743123 77.2216914,19.9086437 78.4778254,19.2105645 C79.4199259,18.687005 80.3070572,18.3807674 81.139246,18.2918424 C81.9714348,18.2029175 82.7054771,18.3383245 83.3413949,18.6980676 C83.9773127,19.0578107 84.4915349,19.6379885 84.8840767,20.4386183 C85.2766186,21.2392482 85.5199909,22.2699165 85.614201,23.5306543 L82.6701516,25.1667694 C82.5445382,24.5347514 82.3718224,23.9855184 82.151999,23.5190541 C81.9321755,23.0525897 81.6495496,22.700273 81.3041128,22.4620934 C80.9586759,22.2239138 80.5543639,22.1146764 80.0911644,22.1343779 C79.627965,22.1540794 79.0901907,22.3340842 78.4778254,22.6743978 C77.58283,23.1717793 76.8095341,23.8618788 76.1579146,24.744717 C75.5062951,25.6275552 74.9763715,26.6182086 74.5681279,27.7167069 C74.1598844,28.8152052 73.8576317,29.9736434 73.6613607,31.192056 Z M91.2667756,26.162369 L91.2667756,33.2598315 L100.593524,28.076619 L100.593524,31.7442073 L88.3227263,38.5635349 L88.3227263,14.3167012 L100.428657,7.58899605 L100.428657,11.2565843 L91.2667756,16.3481744 L91.2667756,22.6985356 L99.7456377,17.9865242 L99.7456377,21.4503576 L91.2667756,26.162369 Z M112.723007,19.7906835 C112.84862,19.2794044 112.911426,18.7973766 112.911426,18.3445857 C112.911426,17.4163643 112.766188,16.8122424 112.475707,16.5322021 C112.185226,16.2521618 111.867272,16.1175713 111.521835,16.1284267 C110.925171,16.1430607 110.230383,16.2292105 109.437448,16.3868787 C108.644513,16.5445469 107.667099,16.7198446 106.505175,16.9127769 C105.782898,17.0424979 105.182318,17.0196946 104.703417,16.8443661 C104.224516,16.6690377 103.843756,16.388237 103.561126,16.0019557 C103.278495,15.6156744 103.078302,15.1496293 102.96054,14.6038065 C102.842777,14.0579836 102.783897,13.4681274 102.783897,12.8342201 C102.783897,11.6116845 102.960538,10.4551357 103.313825,9.36453878 C103.667113,8.27394188 104.134231,7.27291351 104.715193,6.36142363 C105.296155,5.44993375 105.955615,4.6476429 106.693594,3.954527 C107.431573,3.2614111 108.177391,2.70543771 108.931072,2.28659016 C109.810365,1.79793468 110.638616,1.50177983 111.415849,1.39811672 C112.193082,1.29445361 112.876095,1.40728148 113.464907,1.73660369 C114.05372,2.0659259 114.520838,2.61568324 114.866275,3.38589219 C115.211712,4.15610115 115.384428,5.17509766 115.384428,6.44291229 L112.440378,8.07902736 C112.36187,6.56052857 111.992886,5.66192491 111.333416,5.38318943 C110.673945,5.10445395 109.833918,5.24867874 108.81331,5.81586814 C108.467873,6.00783993 108.11459,6.25511 107.753452,6.55768574 C107.392313,6.86026149 107.062583,7.2132986 106.764251,7.61680767 C106.465919,8.02031674 106.218622,8.48035773 106.022351,8.99694446 C105.82608,9.51353119 105.727946,10.07745 105.727946,10.6887178 C105.727946,11.5490205 105.912438,12.1200081 106.281427,12.4016976 C106.650417,12.6833871 107.133236,12.782954 107.729899,12.7004014 C107.792706,12.688137 108.040004,12.6469213 108.4718,12.5767532 C108.903596,12.506585 109.386415,12.4250383 109.920272,12.3321105 C110.454129,12.2391828 110.976202,12.147141 111.486506,12.0559825 C111.996811,11.9648239 112.361869,11.9034427 112.581693,11.871837 C113.131251,11.8154624 113.610145,11.8889118 114.018389,12.0921874 C114.426632,12.295463 114.768139,12.5980783 115.042918,13.0000424 C115.317697,13.4020065 115.521816,13.8828495 115.65528,14.4425859 C115.788744,15.0023223 115.855476,15.5991352 115.855476,16.2330425 C115.855476,17.5914153 115.663133,18.8585665 115.278442,20.034534 C114.893751,21.2105015 114.387379,22.278623 113.759312,23.2389304 C113.131245,24.1992378 112.41683,25.0433887 111.616045,25.7714086 C110.815259,26.4994285 109.998784,27.0946682 109.166595,27.5571457 C108.208793,28.0894312 107.305961,28.421374 106.45807,28.5529843 C105.61018,28.6845946 104.872212,28.5740083 104.244145,28.2212219 C103.616078,27.8684356 103.113632,27.2477546 102.736792,26.3591604 C102.359952,25.4705661 102.163684,24.2835447 102.147982,22.7980606 L105.092031,21.1619455 C105.092031,22.090167 105.201941,22.8214582 105.421765,23.3558412 C105.641588,23.8902242 105.947766,24.2577511 106.340308,24.458433 C106.73285,24.6591148 107.184266,24.7138756 107.694571,24.6227171 C108.204875,24.5315586 108.758351,24.3201886 109.355015,23.988601 C109.998783,23.6308354 110.548334,23.217894 111.003682,22.7497646 C111.459031,22.2816352 111.828015,21.7992472 112.110645,21.3025861 C112.393275,20.8059251 112.597394,20.3019626 112.723007,19.7906835 Z" id="SERVICES" fill="url(#linearGradient-3)"></path>
                    </g>
                </g>
            </g>
        </g>
    </g>
</svg>