<?xml version="1.0" encoding="UTF-8" standalone="no"?>
<svg width="176px" height="216px" viewBox="0 0 176 216" version="1.1" xmlns="http://www.w3.org/2000/svg" xmlns:xlink="http://www.w3.org/1999/xlink" xmlns:sketch="http://www.bohemiancoding.com/sketch/ns">
    <!-- Generator: Sketch 3.5.1 (25234) - http://www.bohemiancoding.com/sketch -->
    <title>envelope-container</title>
    <desc>Created with Sketch.</desc>
    <defs>
        <path id="path-1" d="M11.5402037,134.634989 C5.71900995,131.466531 1,123.524701 1,116.894411 L1,13.0035767 C1,6.37418434 5.73626477,3.55681316 11.5560372,6.69854438 L156.921372,85.1721982 C162.751311,88.3194174 167.477409,96.234483 167.477409,102.871817 L167.477409,207.51008 C167.477409,214.138091 162.76323,216.945241 156.937206,213.774153 L11.5402037,134.634989 L11.5402037,134.634989 Z"></path>
        <linearGradient x1="109.509845%" y1="62.4842971%" x2="-19.6883874%" y2="82.2731359%" id="linearGradient-3">
            <stop stop-color="#8950B1" offset="0%"></stop>
            <stop stop-color="#B64E96" offset="100%"></stop>
        </linearGradient>
    </defs>
    <g id="Page-1" stroke="none" stroke-width="1" fill="none" fill-rule="evenodd" sketch:type="MSPage">
        <g id="main-site" sketch:type="MSArtboardGroup" transform="translate(-1366.000000, -217.000000)">
            <g id="active-bridge" sketch:type="MSLayerGroup" transform="translate(51.000000, 89.000000)">
                <g id="envelope-container" transform="translate(1315.000000, 128.000000)">
                    <g id="envelope">
                        <path d="M157.608557,204.785191 L19.5402037,129.634989 C13.71901,126.466531 9,118.524701 9,111.894411 L9,14.4300642 L2.47339268,7.31582125 L11.0442508,2.01082897 C12.9673397,0.0733284795 16.0669692,-0.184985248 19.5560372,1.69854438 L164.921372,80.1721982 C170.751311,83.3194174 175.477409,91.234483 175.477409,97.8718171 L175.477409,202.51008 C175.477409,206.144446 174.059994,208.629992 171.819074,209.611035 L163.51601,214.737011 L157.06292,205.175725 L157.608557,204.785191 Z" id="Path-373" fill="#ABB4B6" sketch:type="MSShapeGroup"></path>
                        <mask id="mask-2" sketch:name="Mask" fill="white">
                            <use xlink:href="#path-1"></use>
                        </mask>
                        <use id="Mask" fill="#D8D8D8" sketch:type="MSShapeGroup" xlink:href="#path-1"></use>
                        <path d="M69.5019258,111.329909 L59.6550173,108.212676 L9.26634871,6.30167248 L156.9827,85.1080329 C162.829301,88.2271819 167.565806,96.1238338 167.562079,102.755404 C167.562079,102.755404 167.520939,171.782746 167.520938,206.582809 L167.516626,207.75109 C167.49217,214.376541 162.776137,217.145133 156.983233,213.935004 L150.451026,210.315192 L150.451026,93.6122346 L69.5019258,111.329909 Z" id="Path-375" fill="#6D4B9B" sketch:type="MSShapeGroup"></path>
                        <path d="M156.806115,84.9603325 C159.537896,86.3180883 162.94111,90.3025629 162.94111,90.3025629 L58.9434732,108.259589 L15.0578968,26.9465821 L14.3428154,136.213238 C14.3428154,136.213238 9.32463839,134.445492 5.13117458,128.740635 C0.937710783,123.035778 0.878548643,116.868252 0.878548643,116.868252 L0.878548643,11.8950672 C0.878548643,5.81875199 5.21940896,3.23641521 10.5585379,6.11868379 C10.5585379,6.11868379 154.074333,83.6025768 156.806115,84.9603325 Z" id="Path-375" fill="url(#linearGradient-3)" sketch:type="MSShapeGroup"></path>
                    </g>
                </g>
            </g>
        </g>
    </g>
</svg>