<?xml version="1.0" encoding="UTF-8" standalone="no"?>
<svg width="111px" height="106px" viewBox="0 0 111 106" version="1.1" xmlns="http://www.w3.org/2000/svg" xmlns:xlink="http://www.w3.org/1999/xlink" xmlns:sketch="http://www.bohemiancoding.com/sketch/ns">
    <!-- Generator: Sketch 3.5.1 (25234) - http://www.bohemiancoding.com/sketch -->
    <title>Group 2</title>
    <desc>Created with Sketch.</desc>
    <defs></defs>
    <g id="Page-1" stroke="none" stroke-width="1" fill="none" fill-rule="evenodd" sketch:type="MSPage">
        <g id="main-site" sketch:type="MSArtboardGroup" transform="translate(-864.000000, -489.000000)">
            <g id="active-bridge" sketch:type="MSLayerGroup" transform="translate(51.000000, 89.000000)">
                <g id="social-icons" transform="translate(813.000000, 330.000000)" sketch:type="MSShapeGroup">
                    <g id="Group-2" transform="translate(0.000000, 70.000000)">
                        <g id="youtube-soc">
                            <path d="M25.9074342,4.66089868 C11.6985909,-4.02452541 0.180047629,2.60619334 0.180047629,19.4710235 C0.180047629,36.3358537 11.6985909,57.0484273 25.9074342,65.7338514 C40.1162774,74.4192754 51.6348207,67.7885567 51.6348207,50.9237265 C51.6348207,34.0588963 40.1162774,13.3463228 25.9074342,4.66089868 Z M31.0472527,29.3361536 C29.5922444,28.39859 28.1310008,27.5053773 26.6730014,26.6151454 C25.2152092,25.7230445 23.7540605,24.8298898 22.2988608,23.9885336 C20.8342877,23.1417803 19.374289,22.346052 17.9270138,21.6535385 C17.2621599,21.3344555 16.6539307,21.3023263 16.1739093,21.5268033 C15.6969407,21.7498196 15.3465033,22.2266848 15.1931996,22.9273821 C14.9862402,23.8657404 14.8815464,24.9127722 14.8286578,25.9983627 C14.7755636,27.0885605 14.7742373,28.1961868 14.7742373,29.2722592 C14.7742373,30.3469047 14.774256,31.4539094 14.8260984,32.6089257 C14.8776981,33.7578854 14.9811213,34.9320913 15.1881917,36.123719 C15.3424114,37.01273 15.6930163,37.9183214 16.1699485,38.7243994 C16.6496836,39.5352566 17.2573133,40.2461447 17.9219773,40.7397551 C19.3694376,41.8166819 20.8294348,42.8058548 22.2940142,43.7495794 C23.7491902,44.6872454 25.2103452,45.580404 26.6683446,46.4706359 C28.1269957,47.3632618 29.5881238,48.256404 31.0431021,49.0976248 C32.5074696,49.9442745 33.9670412,50.739742 35.4143323,51.4322878 C36.0788682,51.7511765 36.6863682,51.7831697 37.1663137,51.5590912 C37.6434879,51.3362682 37.9945785,50.8595339 38.1498072,50.1594444 C38.3559632,49.2203734 38.4594041,48.1726097 38.5111918,47.0868906 C38.5622871,46.0162256 38.5627167,44.8986548 38.562642,43.8133751 C38.5626794,41.6027163 38.5626794,39.319003 38.1548334,36.963138 C38.0006137,36.0741045 37.6496165,35.168339 37.1721243,34.3619506 C36.6916625,33.5505698 36.0831723,32.8391105 35.4176762,32.3450367 C33.9712251,31.2687061 32.5116582,30.2797943 31.0472527,29.3361536 Z M23.7822471,29.6625054 L23.4125125,29.2073739 L23.4125125,29.7016797 L23.4125125,38.8398935 L23.4125125,39.3329564 L23.781257,39.3316505 C25.0182084,39.3272554 26.2498768,39.3224472 27.4814977,39.3174016 L31.1817227,39.3016974 L31.6124349,39.2998212 L31.1827128,38.7707679 C29.827392,37.1021899 28.481182,35.4455041 27.1365774,33.7908153 C26.0188733,32.4153438 24.9021815,31.0411125 23.7822471,29.6625054 Z" id="Oval-100" fill-opacity="0.1" fill="#000000"></path>
                            <path d="M26.6777528,32.4813007 C25.2227445,31.5437371 23.7615009,30.6505244 22.3035015,29.7602925 C20.8457093,28.8681916 19.3845607,27.9750369 17.9293609,27.1336807 C16.4647878,26.2869274 15.0047891,25.4911991 13.5575139,24.7986857 C12.89266,24.4796027 12.2844308,24.4474735 11.8044094,24.6719505 C11.3274408,24.8949668 10.9770034,25.3718319 10.8236997,26.0725293 C10.6167403,27.0108875 10.5120465,28.0579193 10.4591579,29.1435099 C10.4060637,30.2337077 10.4047374,31.3413339 10.4047374,32.4174063 C10.4047374,33.4920518 10.4047561,34.5990565 10.4565985,35.7540728 C10.5081982,36.9030325 10.6116214,38.0772384 10.8186918,39.2688661 C10.9729115,40.1578771 11.3235164,41.0634685 11.8004486,41.8695466 C12.2801837,42.6804037 12.8878134,43.3912919 13.5524774,43.8849022 C14.9999377,44.961829 16.4599349,45.9510019 17.9245143,46.8947265 C19.3796903,47.8323926 20.8408453,48.7255512 22.2988447,49.615783 C23.7574958,50.5084089 25.2186239,51.4015511 26.6736022,52.2427719 C28.1379697,53.0894217 29.5975413,53.8848891 31.0448324,54.5774349 C31.7093683,54.8963236 32.3168683,54.9283168 32.7968138,54.7042384 C33.273988,54.4814154 33.6250786,54.0046811 33.7803073,53.3045915 C33.9864633,52.3655206 34.0899042,51.3177568 34.141692,50.2320378 C34.1927872,49.1613727 34.1932168,48.043802 34.1931421,46.9585222 C34.1931795,44.7478634 34.1931795,42.4641501 33.7853335,40.1082852 C33.6311138,39.2192516 33.2801166,38.3134862 32.8026244,37.5070977 C32.3221626,36.6957169 31.7136724,35.9842577 31.0481763,35.4901838 C29.6017252,34.4138533 28.1421583,33.4249415 26.6777528,32.4813007 Z M19.4127472,32.8076525 L19.0430126,32.3525211 L19.0430126,32.8468268 L19.0430126,41.9850406 L19.0430126,42.4781035 L19.4117571,42.4767976 C20.6487085,42.4724026 21.8803769,42.4675943 23.1119978,42.4625487 L26.8122228,42.4468445 L27.242935,42.4449683 L26.8132129,41.9159151 C25.4578921,40.247337 24.1116821,38.5906512 22.7670775,36.9359625 C21.6493734,35.5604909 20.5326816,34.1862596 19.4127472,32.8076525 Z" id="Path" fill="#FFFFFF"></path>
                        </g>
                        <g id="github-soc" transform="translate(59.000000, 37.000000)">
                            <path d="M26.2783261,3.95247904 C12.0694829,-4.73294506 0.550939606,1.89777369 0.550939606,18.7626039 C0.550939606,35.6274341 12.0694829,56.3400076 26.2783261,65.0254317 C40.4871694,73.7108558 52.0057127,67.0801371 52.0057127,50.2153069 C52.0057127,33.3504767 40.4871694,12.6379031 26.2783261,3.95247904 Z" id="Oval-100" fill-opacity="0.1" fill="#000000"></path>
                            <path d="M36.9313487,28.7963338 C36.8178989,28.3701568 36.4829253,27.9381651 36.1743676,27.827663 C35.9746718,27.7560913 35.7951356,27.6955224 35.6210216,27.6570802 C33.7984554,27.2546791 32.110889,27.2639594 30.4896871,27.4822367 C30.2718708,27.5113622 29.955064,27.3762902 29.6921087,27.192671 C29.0630368,26.7535722 28.4407774,26.1873917 27.8119835,25.7676602 C26.2557557,24.7288709 24.7026329,23.8357121 23.16054,23.2132177 C22.9461531,23.1266151 22.6639188,22.9103087 22.4858193,22.6648053 C20.7179852,20.2264525 18.878689,17.940076 16.809666,16.0229119 C16.4990692,15.7350868 16.1794354,15.5915759 16.1008825,15.6899868 C16.0529166,15.7502177 16.0095387,15.8166085 15.985718,15.9016648 C15.7622014,16.6971799 15.4972997,17.462722 15.3673978,18.3353183 C15.2125629,19.3768362 15.0636599,20.4563595 15.137115,21.6360489 C15.1833662,22.3776479 15.0174087,22.7145518 14.6890159,23.0143766 C13.5873753,24.0208281 13.0913103,25.6485548 13.0609551,27.7471532 C13.0348635,29.5419703 13.2367838,31.4300685 13.7013813,33.4451239 C14.4129917,36.5324781 15.7871344,39.3629769 17.8562037,41.9228128 C19.5573952,44.0274633 21.4111508,45.5710116 23.3080526,46.8096283 C25.0177713,47.925795 26.7308269,48.9126452 28.4424921,49.9703743 C30.1581892,51.030568 31.850251,51.8834056 33.4915662,52.251803 C35.1343181,52.6206936 36.5558705,52.4645942 37.6589015,51.5270359 C39.252019,50.1726448 39.7480377,47.7332106 39.8498552,44.8922489 C39.9278983,42.7198281 39.5466735,40.3983022 38.4512893,37.9125161 C38.0071294,36.904145 37.7581237,36.1190282 37.7748539,35.1546458 C37.7995088,33.7110485 37.5295093,32.071166 37.3103027,30.4849395 C37.2348549,29.9389195 37.0819664,29.3623945 36.9313487,28.7963338 Z M26.4228254,47.1451856 C24.5982664,46.1237859 22.7947013,44.8863361 21.0194986,43.3053243 C19.7100056,42.1392974 18.5145187,40.7938333 17.6812555,38.9503525 C16.3553105,36.0166392 16.0163976,31.7687888 18.2073977,30.9028047 C18.7661196,30.6821104 19.3892596,30.7061879 20.1255713,31.1007706 C20.9381651,31.5358764 21.7510369,31.91257 22.5630282,32.4203564 C24.6113818,33.7013848 26.6588085,35.0738178 28.706884,36.3438949 C29.6422891,36.92371 30.5842286,37.2406267 31.5127748,37.8748863 C32.356558,38.4512821 33.2437654,39.1780419 34.0095519,40.0491226 C35.2861406,41.5013687 35.9733278,43.2838312 36.1809485,45.0064332 C36.4900622,47.5679895 36.0821896,49.4782335 34.4717858,50.1470706 C33.7360302,50.4524583 32.8364026,50.2600326 31.9154569,49.958314 C30.1085086,49.3661702 28.2686562,48.3691412 26.4228254,47.1451856 Z M31.1340525,40.3845899 C30.0558878,39.7255413 29.1818625,40.5777472 29.1818625,42.288045 C29.1818625,43.9983429 30.0558878,45.9190777 31.1340525,46.5781263 C32.2122173,47.2371749 33.0862425,46.384969 33.0862425,44.6746712 C33.0862425,42.9643733 32.2122173,41.0436385 31.1340525,40.3845899 Z M21.8190234,34.6906022 C20.740705,34.0314597 19.8665553,34.8835895 19.8665553,36.5938874 C19.8665553,38.3041852 20.740705,40.2249961 21.8190234,40.8841386 C22.8973417,41.5432811 23.7714915,40.6911513 23.7714915,38.9808534 C23.7714915,37.2705556 22.8973417,35.3497447 21.8190234,34.6906022 Z" id="Path" fill-opacity="0.05" fill="#FFFFFF"></path>
                            <path d="M32.5618488,31.9414809 C32.448399,31.515304 32.1134254,31.0833123 31.8048677,30.9728101 C31.6051719,30.9012384 31.4256357,30.8406695 31.2515217,30.8022274 C29.4289555,30.3998263 27.7413891,30.4091065 26.1201872,30.6273838 C25.9023709,30.6565093 25.5855641,30.5214373 25.3226088,30.3378182 C24.6935369,29.8987194 24.0712775,29.3325389 23.4424836,28.9128074 C21.8862558,27.874018 20.333133,26.9808592 18.7910401,26.3583648 C18.5766532,26.2717623 18.2944189,26.0554559 18.1163194,25.8099525 C16.3484854,23.3715997 14.5091891,21.0852231 12.4401661,19.168059 C12.1295694,18.8802339 11.8099355,18.736723 11.7313826,18.835134 C11.6834167,18.8953648 11.6400388,18.9617556 11.6162181,19.0468119 C11.3927015,19.842327 11.1277998,20.6078691 10.9978979,21.4804654 C10.843063,22.5219834 10.6941601,23.6015066 10.7676151,24.781196 C10.8138663,25.522795 10.6479089,25.8596989 10.319516,26.1595237 C9.21787545,27.1659753 8.72181045,28.793702 8.6914552,30.8923003 C8.66536359,32.6871175 8.86728392,34.5752156 9.33188141,36.590271 C10.0434918,39.6776253 11.4176345,42.5081241 13.4867038,45.06796 C15.1878953,47.1726105 17.0416509,48.7161588 18.9385527,49.9547755 C20.6482714,51.0709421 22.361327,52.0577923 24.0729922,53.1155215 C25.7886893,54.1757152 27.4807511,55.0285528 29.1220663,55.3969502 C30.7648182,55.7658407 32.1863706,55.6097414 33.2894016,54.672183 C34.8825191,53.3177919 35.3785378,50.8783577 35.4803553,48.0373961 C35.5583984,45.8649752 35.1771736,43.5434493 34.0817894,41.0576632 C33.6376295,40.0492921 33.3886238,39.2641753 33.405354,38.2997929 C33.4300089,36.8561956 33.1600094,35.2163132 32.9408028,33.6300866 C32.865355,33.0840667 32.7124665,32.5075417 32.5618488,31.9414809 Z M22.0533255,50.2903327 C20.2287666,49.268933 18.4252014,48.0314833 16.6499987,46.4504715 C15.3405058,45.2844445 14.1450188,43.9389804 13.3117556,42.0954996 C11.9858106,39.1617864 11.6468977,34.913936 13.8378978,34.0479519 C14.3966197,33.8272576 15.0197597,33.851335 15.7560714,34.2459177 C16.5686652,34.6810235 17.381537,35.0577171 18.1935283,35.5655035 C20.2418819,36.8465319 22.2893086,38.218965 24.3373841,39.4890421 C25.2727892,40.0688571 26.2147287,40.3857739 27.1432749,41.0200334 C27.9870581,41.5964292 28.8742655,42.3231891 29.640052,43.1942697 C30.9166407,44.6465158 31.6038279,46.4289784 31.8114486,48.1515803 C32.1205623,50.7131367 31.7126897,52.6233806 30.1022859,53.2922177 C29.3665303,53.5976054 28.4669027,53.4051797 27.545957,53.1034611 C25.7390087,52.5113174 23.8991563,51.5142884 22.0533255,50.2903327 Z M26.7645526,43.529737 C25.6863879,42.8706884 24.8123626,43.7228943 24.8123626,45.4331922 C24.8123626,47.14349 25.6863879,49.0642248 26.7645526,49.7232734 C27.8427174,50.382322 28.7167426,49.5301161 28.7167426,47.8198183 C28.7167426,46.1095204 27.8427174,44.1887856 26.7645526,43.529737 Z M17.4495235,37.8357493 C16.3712051,37.1766069 15.4970554,38.0287367 15.4970554,39.7390345 C15.4970554,41.4493324 16.3712051,43.3701433 17.4495235,44.0292857 C18.5278418,44.6884282 19.4019916,43.8362984 19.4019916,42.1260006 C19.4019916,40.4157027 18.5278418,38.4948918 17.4495235,37.8357493 Z" id="Path" fill="#FFFFFF"></path>
                        </g>
                    </g>
                </g>
            </g>
        </g>
    </g>
</svg>