<svg xmlns="http://www.w3.org/2000/svg" width="347" height="215" xmlns:xlink="http://www.w3.org/1999/xlink">
  <defs>
    <path id="a" d="M88.942 65.905l-10.52.893c-1.862.158-4.095-.76-4.986-2.047l-7.572-10.937c-.895-1.293-.117-2.465 1.754-2.618l10.54-.862c1.864-.152 4.1.772 4.99 2.06l7.552 10.9c.89 1.285.11 2.454-1.758 2.612z"/>
    <path id="b" d="M68.653 68.027l-10.52.897c-1.86.16-4.094-.763-4.988-2.054l-7.597-10.98c-.898-1.3-.122-2.475 1.748-2.63l10.538-.864c1.863-.153 4.1.775 4.995 2.066l7.575 10.944c.893 1.29.115 2.462-1.752 2.62z"/>
    <path id="c" d="M148.22 59.646l-10.528.882c-1.862.156-4.09-.752-4.97-2.024l-7.5-10.815c-.887-1.28-.1-2.44 1.77-2.59l10.548-.85c1.866-.15 4.096.764 4.978 2.036l7.48 10.78c.88 1.27.092 2.424-1.777 2.58z"/>
    <path id="d" d="M128.726 61.714L118.2 62.6c-1.862.157-4.09-.755-4.976-2.032L105.7 49.713c-.89-1.284-.105-2.447 1.766-2.598l10.546-.854c1.864-.15 4.097.767 4.982 2.044l7.502 10.82c.884 1.274.098 2.433-1.77 2.59z"/>
    <path id="e" d="M207.534 54.15l-10.536.87c-1.862.156-4.083-.742-4.957-2l-7.425-10.69c-.878-1.263-.084-2.408 1.79-2.557l10.554-.84c1.865-.15 4.09.754 4.963 2.012l7.405 10.653c.872 1.255.076 2.396-1.794 2.55z"/>
    <path id="f" d="M188.024 56.194l-10.533.876c-1.862.155-4.084-.746-4.96-2.008l-7.45-10.73c-.882-1.27-.09-2.42 1.782-2.57l10.553-.843c1.865-.15 4.092.757 4.968 2.02l7.43 10.693c.874 1.26.08 2.406-1.79 2.56z"/>
    <path id="g" d="M267.723 48.01l-10.544.862c-1.865.152-4.08-.735-4.945-1.977l-7.35-10.563c-.87-1.25-.068-2.38 1.807-2.527l10.562-.828c1.868-.146 4.086.747 4.95 1.99l7.33 10.524c.865 1.24.06 2.37-1.81 2.52z"/>
    <path id="h" d="M247.383 50.057l-10.54.865c-1.864.153-4.08-.738-4.95-1.985l-7.376-10.606c-.872-1.253-.072-2.39 1.802-2.537l10.56-.832c1.866-.146 4.086.75 4.954 1.998l7.355 10.57c.866 1.244.064 2.376-1.807 2.53z"/>
    <path id="i" d="M306.77 44.672l-10.547.854c-1.865.15-4.076-.728-4.935-1.96l-7.302-10.48c-.863-1.238-.056-2.36 1.82-2.506l10.566-.822c1.87-.145 4.083.74 4.942 1.973l7.28 10.442c.858 1.23.048 2.35-1.824 2.5z"/>
    <path id="j" d="M287.256 46.002l-10.546.856c-1.865.152-4.078-.73-4.94-1.97l-7.327-10.52c-.866-1.244-.06-2.37 1.814-2.517l10.565-.823c1.87-.146 4.085.744 4.947 1.98l7.304 10.485c.86 1.235.054 2.358-1.818 2.51z"/>
    <path id="k" d="M227.862 52.085l-10.54.868c-1.862.154-4.08-.74-4.95-1.992l-7.402-10.646c-.875-1.26-.078-2.4 1.795-2.548l10.558-.836c1.867-.148 4.09.752 4.96 2.004l7.38 10.61c.868 1.25.07 2.387-1.8 2.54z"/>
    <path id="l" d="M168.533 57.558L158 58.436c-1.86.156-4.086-.75-4.965-2.016l-7.475-10.773c-.884-1.274-.095-2.427 1.778-2.578l10.55-.847c1.866-.15 4.094.76 4.974 2.028l7.453 10.737c.878 1.265.087 2.415-1.782 2.57z"/>
    <path id="m" d="M108.426 63.82l-10.524.89c-1.86.157-4.092-.758-4.98-2.04l-7.55-10.898c-.89-1.29-.11-2.456 1.76-2.608l10.544-.858c1.864-.152 4.098.77 4.986 2.05l7.527 10.862c.886 1.28.103 2.444-1.764 2.602z"/>
    <path id="n" d="M256.854 103.858l-108.42 11.608c-1.83.198-4.054-.663-4.96-1.92l-7.71-10.676c-.91-1.263-.16-2.443 1.675-2.635L246.052 88.96c1.838-.188 4.054.66 4.947 1.892l7.562 10.43c.892 1.228.127 2.38-1.708 2.576z"/>
    <path id="o" d="M355.635 92.863l-10.484.963c-1.853.17-4.04-.67-4.887-1.88l-.972-1.39c-.845-1.21-.034-2.327 1.828-2.496l10.492-.95c1.855-.168 4.042.672 4.887 1.88l.97 1.384c.842 1.205.03 2.318-1.832 2.49z"/>
    <path id="p" d="M319.24 96.495l-10.48.97c-1.853.17-4.044-.676-4.896-1.896l-.98-1.403c-.85-1.22-.044-2.345 1.817-2.515l10.49-.956c1.854-.17 4.045.678 4.895 1.895l.976 1.397c.85 1.214.04 2.336-1.82 2.508z"/>
    <path id="q" d="M337.49 94.65l-10.482.965c-1.853.17-4.042-.672-4.895-1.892l-7.52-10.762c-.852-1.22-.045-2.344 1.82-2.51l10.5-.93c1.858-.166 4.05.683 4.904 1.904l7.496 10.722c.847 1.212.038 2.33-1.822 2.503z"/>
    <path id="r" d="M300.768 98.515l-10.48.973c-1.85.172-4.048-.684-4.9-1.906l-7.257-10.4c-.857-1.23-.055-2.36 1.808-2.527l10.498-.94c1.856-.165 4.056.696 4.91 1.92l7.234 10.36c.852 1.22.047 2.348-1.812 2.52z"/>
    <path id="s" d="M281.718 100.72l-15.687 1.463c-1.85.172-4.048-.687-4.905-1.917l-7.287-10.45c-.86-1.237-.053-2.375 1.798-2.54l15.716-1.414c1.855-.166 4.056.698 4.912 1.926l7.258 10.403c.855 1.226.045 2.36-1.804 2.53z"/>
    <path id="t" d="M138.007 116.176L125.5 117.37l-1.59.152c-1.85.177-4.063-.71-4.94-1.975l-7.467-10.758c-.883-1.273-.1-2.443 1.75-2.613l14.14-1.304c1.848-.17 4.06.72 4.94 1.985l7.44 10.714c.876 1.262.09 2.427-1.766 2.604z"/>
    <path id="u" d="M115.834 118.59l-9.668.925c-1.852.178-4.07-.71-4.95-1.98l-7.49-10.797c-.884-1.276-.102-2.45 1.757-2.623l9.686-.896c1.854-.172 4.076.723 4.957 1.993l7.467 10.76c.88 1.268.097 2.44-1.76 2.616z"/>
    <path id="v" d="M97.28 120.844l-9.667.93c-1.85.177-4.07-.716-4.955-1.99l-7.51-10.835c-.89-1.282-.11-2.46 1.75-2.633l9.683-.9c1.856-.17 4.08.727 4.963 2l7.49 10.8c.883 1.274.102 2.45-1.754 2.627z"/>
    <path id="w" d="M77.923 123.143l-9.664.932c-1.852.178-4.074-.718-4.96-1.997l-7.535-10.875c-.89-1.286-.114-2.47 1.745-2.642l9.68-.9c1.855-.174 4.08.728 4.967 2.007l7.515 10.84c.885 1.278.107 2.457-1.75 2.636z"/>
    <path id="x" d="M107.158 101.547l-10.478.967c-1.853.17-4.074-.728-4.96-2.004l-7.515-10.843c-.888-1.282-.11-2.455 1.752-2.62l10.497-.935c1.857-.165 4.08.74 4.965 2.015l7.494 10.806c.883 1.274.104 2.443-1.756 2.614z"/>
    <path id="y" d="M166.196 94.88l-10.486.955c-1.854.17-4.07-.72-4.945-1.98l-7.443-10.72c-.88-1.266-.094-2.426 1.77-2.59l10.505-.923c1.857-.163 4.076.73 4.952 1.992l7.42 10.682c.875 1.258.087 2.414-1.774 2.584z"/>
    <path id="z" d="M145.973 97.117l-10.484.96c-1.854.17-4.072-.723-4.95-1.99l-7.468-10.76c-.883-1.273-.1-2.437 1.763-2.602l10.502-.927c1.857-.164 4.078.734 4.957 2l7.446 10.725c.878 1.263.093 2.424-1.767 2.594z"/>
    <path id="A" d="M225.265 88.967l-10.492.947c-1.855.167-4.064-.71-4.93-1.956l-7.37-10.592c-.87-1.253-.078-2.4 1.788-2.56l10.512-.916c1.86-.16 4.07.722 4.938 1.968l7.347 10.555c.866 1.243.07 2.386-1.792 2.554z"/>
    <path id="B" d="M205.85 90.464l-10.49.948c-1.854.168-4.065-.713-4.935-1.964l-7.394-10.634c-.873-1.258-.082-2.408 1.783-2.57l10.51-.918c1.858-.162 4.073.725 4.942 1.976l7.372 10.598c.87 1.248.076 2.395-1.786 2.564z"/>
    <path id="C" d="M284.397 82.44l-10.5.935c-1.856.166-4.06-.7-4.917-1.932l-7.294-10.465c-.863-1.238-.06-2.37 1.806-2.53l10.518-.904c1.86-.16 4.067.713 4.925 1.944l7.273 10.428c.857 1.228.053 2.357-1.81 2.523z"/>
    <path id="D" d="M264.95 84.595l-10.497.94c-1.856.166-4.06-.704-4.922-1.94l-7.318-10.507c-.865-1.242-.066-2.38 1.8-2.54l10.516-.907c1.86-.16 4.068.717 4.93 1.952l7.297 10.47c.86 1.233.058 2.367-1.805 2.533z"/>
    <path id="E" d="M304.658 80.258l-10.502.932c-1.856.165-4.057-.698-4.913-1.924l-7.27-10.42c-.858-1.233-.054-2.36 1.814-2.52l10.52-.9c1.86-.16 4.066.71 4.92 1.936l7.248 10.383c.854 1.223.047 2.347-1.817 2.513z"/>
    <path id="F" d="M245.51 86.76l-10.495.943c-1.856.167-4.063-.707-4.927-1.947l-7.343-10.55c-.868-1.246-.072-2.388 1.794-2.55l10.512-.91c1.86-.16 4.07.718 4.934 1.96l7.32 10.51c.864 1.24.066 2.377-1.797 2.544z"/>
    <path id="G" d="M185.617 92.684l-10.488.953c-1.856.168-4.07-.716-4.942-1.972l-7.42-10.678c-.876-1.263-.088-2.418 1.777-2.58l10.507-.92c1.858-.164 4.075.727 4.948 1.983l7.397 10.64c.87 1.254.08 2.406-1.78 2.574z"/>
    <path id="H" d="M126.563 99.328l-10.48.963c-1.854.17-4.074-.724-4.955-1.995l-7.492-10.802c-.886-1.278-.106-2.446 1.757-2.612l10.5-.93c1.857-.164 4.08.737 4.96 2.008l7.472 10.766c.88 1.268.098 2.434-1.762 2.604z"/>
    <path id="I" d="M344.027 77.07l-30.61 2.706c-1.856.164-4.052-.69-4.905-1.914l-7.09-10.157c-.855-1.226-.037-2.35 1.82-2.508l30.663-2.61c1.86-.16 4.057.698 4.908 1.915l7.043 10.077c.847 1.21.024 2.326-1.83 2.49z"/>
    <path id="J" d="M87.06 103.804l-30.785 2.853c-1.85.172-4.076-.734-4.966-2.02L43.742 93.71c-.894-1.293-.113-2.476 1.738-2.642l30.842-2.76c1.855-.165 4.08.743 4.968 2.023l7.52 10.85c.885 1.28.1 2.454-1.75 2.624z"/>
    <path id="K" d="M87.945 84.854l-10.5.932c-1.855.164-4.083-.746-4.972-2.03l-7.557-10.912c-.893-1.29-.117-2.464 1.75-2.624l10.517-.9c1.86-.16 4.092.757 4.98 2.04L89.7 82.238c.887 1.28.108 2.452-1.755 2.617z"/>
    <path id="L" d="M146.286 78.41l-10.507.92c-1.858.164-4.08-.736-4.96-2.005l-7.486-10.79c-.885-1.277-.1-2.438 1.767-2.596l10.526-.89c1.86-.157 4.087.75 4.968 2.018l7.463 10.754c.88 1.267.093 2.425-1.77 2.588z"/>
    <path id="M" d="M126.833 80.55l-10.503.924c-1.858.164-4.082-.74-4.965-2.014l-7.51-10.83c-.887-1.28-.105-2.447 1.762-2.606l10.523-.892c1.86-.158 4.088.752 4.97 2.026l7.49 10.794c.88 1.272.097 2.434-1.767 2.598z"/>
    <path id="N" d="M206.28 72.663l-10.514.912c-1.86.16-4.075-.728-4.946-1.983l-7.41-10.662c-.876-1.26-.084-2.41 1.785-2.565l10.532-.88c1.862-.154 4.08.74 4.953 1.995l7.39 10.626c.87 1.25.075 2.396-1.79 2.557z"/>
    <path id="O" d="M186.81 74.78l-10.51.916c-1.857.16-4.075-.73-4.95-1.99l-7.434-10.704c-.88-1.266-.09-2.418 1.78-2.575l10.53-.883c1.86-.156 4.082.743 4.957 2.002l7.412 10.667c.874 1.257.082 2.405-1.784 2.568z"/>
    <path id="P" d="M265.525 66.332l-10.52.9c-1.86.16-4.07-.72-4.933-1.96l-7.337-10.536c-.867-1.246-.066-2.38 1.804-2.534l10.538-.867c1.864-.154 4.077.73 4.94 1.97l7.315 10.5c.862 1.237.06 2.367-1.808 2.527z"/>
    <path id="Q" d="M246.04 68.423l-10.517.904c-1.86.16-4.072-.722-4.938-1.966l-7.36-10.578c-.87-1.25-.072-2.39 1.797-2.544l10.537-.87c1.862-.155 4.078.733 4.944 1.977l7.34 10.54c.863 1.243.063 2.378-1.803 2.538z"/>
    <path id="R" d="M335.316 59.025l-6.33-9.062-14.197-20.348c-.436-.623-1.376-1.083-2.102-1.027l-9.456.733c-.726.057-.96.61-.524 1.234l11.012 15.79-12.844 1.046c-.725.06-.957.612-.522 1.235l8.795 12.607c.433.622 1.368 1.074 2.09 1.013l23.55-1.992c.723-.06.957-.61.526-1.228z"/>
    <path id="S" d="M304.486 62.845l-10.524.894c-1.86.158-4.067-.714-4.924-1.943l-7.287-10.452c-.86-1.236-.055-2.36 1.816-2.514l10.544-.86c1.864-.153 4.074.725 4.93 1.954l7.266 10.415c.856 1.225.048 2.347-1.82 2.505z"/>
    <path id="T" d="M285.015 64.25l-10.523.895c-1.86.16-4.068-.717-4.93-1.95l-7.31-10.496c-.865-1.242-.062-2.372 1.81-2.525l10.54-.864c1.865-.15 4.077.73 4.937 1.964l7.29 10.458c.858 1.232.052 2.358-1.815 2.517z"/>
    <path id="U" d="M226.562 70.524l-10.515.907c-1.86.162-4.073-.724-4.942-1.973l-7.385-10.62c-.873-1.255-.078-2.4 1.792-2.554l10.534-.875c1.863-.155 4.08.737 4.95 1.986l7.362 10.582c.868 1.247.07 2.387-1.796 2.548z"/>
    <path id="V" d="M166.553 76.247l-10.51.918c-1.857.162-4.077-.735-4.954-2l-7.46-10.747c-.883-1.27-.096-2.427 1.772-2.584l10.528-.886c1.86-.156 4.085.747 4.962 2.01l7.44 10.712c.875 1.262.086 2.415-1.78 2.577z"/>
    <path id="W" d="M107.386 82.698l-10.5.928c-1.858.164-4.084-.743-4.97-2.022l-7.533-10.87c-.89-1.287-.11-2.457 1.756-2.616l10.52-.896c1.86-.158 4.088.754 4.975 2.033l7.51 10.835c.886 1.277.105 2.444-1.76 2.608z"/>
    <path id="X" d="M72.054 48.23l-10.543.857c-1.863.15-4.103-.778-4.998-2.072l-7.61-11.002c-.9-1.3-.122-2.473 1.752-2.62l10.562-.826c1.867-.146 4.11.79 5.005 2.083l7.59 10.966c.894 1.292.115 2.46-1.756 2.613z"/>
    <path id="Y" d="M51.725 50.284l-10.54.86c-1.864.154-4.106-.78-5.004-2.078l-7.634-11.044c-.902-1.305-.127-2.482 1.747-2.63l10.558-.83c1.87-.146 4.113.792 5.012 2.09l7.613 11.01c.897 1.296.12 2.47-1.75 2.622z"/>
    <path id="Z" d="M131.44 42.864l-10.55.847c-1.866.15-4.1-.768-4.986-2.048l-7.537-10.878c-.89-1.287-.106-2.446 1.77-2.59l10.568-.817c1.87-.144 4.105.78 4.992 2.06l7.516 10.843c.886 1.278.098 2.434-1.774 2.584z"/>
    <path id="aa" d="M111.094 44.895l-10.547.85c-1.865.152-4.1-.77-4.99-2.055l-7.562-10.92c-.894-1.292-.11-2.456 1.764-2.602l10.565-.82c1.868-.144 4.107.784 4.997 2.07l7.54 10.883c.89 1.284.104 2.444-1.768 2.595z"/>
    <path id="ab" d="M190.88 36.875l-10.556.836c-1.867.15-4.094-.76-4.972-2.025l-7.465-10.756c-.882-1.273-.09-2.42 1.788-2.56l10.576-.805c1.87-.142 4.102.773 4.98 2.038l7.444 10.72c.877 1.262.08 2.404-1.793 2.552z"/>
    <path id="ac" d="M171.332 38.854l-10.554.84c-1.866.148-4.096-.764-4.977-2.034l-7.487-10.796c-.886-1.277-.095-2.427 1.782-2.57l10.573-.808c1.87-.143 4.103.775 4.984 2.045l7.467 10.76c.88 1.268.086 2.415-1.788 2.564z"/>
    <path id="ad" d="M250.356 31.647l-10.564.825c-1.868.146-4.09-.753-4.958-2.003l-7.39-10.63c-.875-1.258-.073-2.39 1.805-2.53l10.582-.794c1.87-.14 4.096.764 4.966 2.015l7.37 10.594c.867 1.247.063 2.376-1.812 2.523z"/>
    <path id="ae" d="M230.792 33.6l-10.562.83c-1.867.147-4.09-.755-4.963-2.01l-7.415-10.67c-.876-1.263-.077-2.4 1.8-2.54l10.58-.798c1.872-.14 4.098.767 4.97 2.022l7.394 10.634c.87 1.253.07 2.386-1.804 2.533z"/>
    <path id="af" d="M269.927 29.7l-10.567.822c-1.868.146-4.088-.75-4.954-1.995L247.04 17.94c-.872-1.253-.067-2.38 1.81-2.522l10.587-.788c1.872-.14 4.095.76 4.962 2.007l7.344 10.55c.865 1.244.058 2.37-1.817 2.514z"/>
    <path id="ag" d="M211.233 35.564l-10.56.834c-1.866.147-4.092-.758-4.967-2.018l-7.44-10.712c-.878-1.266-.082-2.408 1.796-2.55l10.577-.8c1.87-.143 4.1.768 4.974 2.028l7.417 10.675c.875 1.26.077 2.397-1.797 2.544z"/>
    <path id="ah" d="M45.053 89.088c-1.852.166-4.08-.75-4.974-2.042l-7.597-10.98c-.898-1.298-.118-2.48 1.733-2.64l23.072-1.984c1.855-.16 4.086.76 4.978 2.05l7.56 10.916c.89 1.287.107 2.463-1.742 2.627l-23.03 2.053z"/>
    <path id="ai" d="M150.976 40.867l-10.552.844c-1.866.15-4.097-.766-4.98-2.04l-7.515-10.84c-.89-1.28-.1-2.436 1.775-2.58l10.57-.812c1.87-.143 4.105.778 4.99 2.053l7.49 10.803c.884 1.273.094 2.425-1.78 2.574z"/>
    <path id="aj" d="M91.568 46.91l-10.544.854c-1.865.152-4.102-.774-4.994-2.064l-7.586-10.96c-.897-1.296-.117-2.465 1.758-2.61l10.563-.825c1.868-.145 4.108.786 5 2.076l7.565 10.926c.892 1.287.11 2.452-1.762 2.603z"/>
    <path id="ak" d="M310.354 26.91l-30.798 2.38c-1.868.145-4.082-.743-4.947-1.984l-7.186-10.32c-.867-1.246-.048-2.37 1.82-2.51l30.852-2.286c1.872-.138 4.088.752 4.95 1.988l7.138 10.24c.858 1.233.035 2.348-1.83 2.49z"/>
    <path id="al" d="M31.4 52.348l-10.536.865c-1.863.153-4.107-.784-5.008-2.088L8.196 40.04c-.904-1.31-.132-2.49 1.74-2.64l10.557-.833c1.867-.148 4.114.794 5.015 2.098l7.638 11.05c.9 1.3.126 2.48-1.745 2.633z"/>
    <path id="am" d="M40.012 32.06l-10.562.826c-1.867.146-4.115-.798-5.018-2.105l-3.184-4.606c-.905-1.31-.13-2.49 1.745-2.632l10.572-.807c1.87-.142 4.12.804 5.02 2.108l3.176 4.593c.903 1.304.126 2.48-1.748 2.625z"/>
    <path id="an" d="M79.122 28.846l-10.566.82c-1.868.144-4.112-.794-5.01-2.09L60.383 23c-.9-1.3-.12-2.47 1.756-2.612l10.576-.8c1.87-.142 4.115.797 5.01 2.093l3.156 4.56c.897 1.295.115 2.46-1.76 2.606z"/>
    <path id="ao" d="M59.562 30.803L49 31.625c-1.87.146-4.114-.794-5.015-2.097l-3.173-4.59c-.903-1.306-.126-2.48 1.75-2.623l10.574-.804c1.87-.14 4.117.8 5.016 2.1l3.165 4.577c.9 1.3.12 2.47-1.755 2.616z"/>
    <path id="ap" d="M119.073 24.936l-10.572.81c-1.868.145-4.108-.786-5-2.074l-3.143-4.54c-.894-1.29-.11-2.452 1.768-2.593l10.582-.793c1.87-.14 4.113.792 5.003 2.078l3.135 4.525c.89 1.285.104 2.443-1.772 2.586z"/>
    <path id="aq" d="M139.464 22.984l-10.574.807c-1.87.143-4.107-.783-4.996-2.066L120.76 17.2c-.89-1.286-.103-2.442 1.775-2.582l10.585-.788c1.87-.14 4.11.79 4.998 2.07l3.125 4.508c.887 1.28.098 2.433-1.78 2.576z"/>
    <path id="ar" d="M99.502 26.875l-10.57.815c-1.868.144-4.11-.79-5.004-2.082l-3.154-4.557c-.897-1.295-.115-2.46 1.763-2.602l10.58-.796c1.87-.14 4.113.795 5.007 2.086l3.144 4.54c.893 1.29.11 2.453-1.766 2.597z"/>
    <path id="as" d="M178.62 19.84l-10.577.8c-1.87.142-4.104-.778-4.988-2.05l-3.113-4.49c-.885-1.277-.093-2.424 1.786-2.563l10.59-.782c1.872-.138 4.107.784 4.99 2.056l3.104 4.474c.882 1.27.087 2.414-1.79 2.556z"/>
    <path id="at" d="M218.628 16.017l-10.584.792c-1.87.14-4.1-.774-4.978-2.037l-3.093-4.454c-.88-1.27-.082-2.407 1.798-2.544l10.595-.773c1.874-.137 4.105.778 4.982 2.04l3.083 4.44c.877 1.26.076 2.394-1.802 2.534z"/>
    <path id="au" d="M199.03 17.913l-10.582.796c-1.87.14-4.102-.777-4.983-2.045l-3.103-4.47c-.882-1.273-.087-2.416 1.793-2.554l10.592-.776c1.873-.137 4.106.78 4.985 2.048l3.094 4.455c.88 1.266.08 2.405-1.797 2.546z"/>
    <path id="av" d="M258.66 12.232l-10.59.784c-1.872.14-4.1-.768-4.97-2.02l-3.073-4.42c-.874-1.258-.07-2.387 1.81-2.523l10.6-.765c1.875-.135 4.103.774 4.973 2.025l3.063 4.404c.87 1.25.065 2.376-1.814 2.515z"/>
    <path id="aw" d="M298.69 9.158l-10.594.777c-1.873.137-4.095-.762-4.96-2.006l-3.052-4.385c-.868-1.247-.06-2.367 1.823-2.5l10.604-.76c1.876-.132 4.1.77 4.964 2.01l3.043 4.368c.864 1.24.053 2.357-1.827 2.495z"/>
    <path id="ax" d="M279.07 11.018l-10.592.78c-1.872.14-4.096-.763-4.965-2.01l-3.062-4.402c-.87-1.253-.064-2.377 1.818-2.512l10.602-.762c1.874-.135 4.1.77 4.967 2.016l3.053 4.386c.867 1.245.058 2.366-1.82 2.504z"/>
    <path id="ay" d="M239.03 14.79l-10.586.79c-1.872.14-4.1-.77-4.974-2.03l-3.082-4.435c-.877-1.262-.076-2.396 1.804-2.533l10.596-.77c1.874-.136 4.103.776 4.976 2.032l3.074 4.42c.873 1.256.07 2.386-1.81 2.526z"/>
    <path id="az" d="M159.034 21.755l-10.575.804c-1.87.14-4.107-.782-4.993-2.06l-3.123-4.506c-.89-1.282-.1-2.433 1.78-2.573l10.587-.784c1.873-.14 4.11.786 4.995 2.062l3.114 4.49c.883 1.276.09 2.424-1.786 2.567z"/>
    <path id="aA" d="M9.903 35.573c-1.867.147-4.117-.8-5.023-2.11l-3.193-4.624c-.908-1.317-.137-2.5 1.74-2.644l10.568-.812c1.87-.143 4.12.806 5.025 2.115l3.184 4.607c.904 1.31.13 2.49-1.743 2.636l-10.557.83z"/>
    <path id="aB" d="M19.995 57.21c-.037.363.08.77.368 1.188L27.99 69.43c.9 1.297 3.135 2.224 4.993 2.064l15.748-1.348c1.857-.16 2.64-1.337 1.745-2.63l-7.6-10.986c-.897-1.297-3.136-2.228-4.998-2.074l-3.558.294c-.564-.122-1.138-.17-1.68-.124l-10.534.87c-1.41.116-2.196.816-2.11 1.713z"/>
  </defs>
  <g fill="none" fill-rule="evenodd">
    <g transform="rotate(-27 271.898 94.99)">
      <use xlink:href="#a"/>
      <use fill="#000" fill-opacity=".05" xlink:href="#a"/>
    </g>
    <g transform="rotate(-27 271.898 94.99)">
      <use xlink:href="#b"/>
      <use fill="#000" fill-opacity=".05" xlink:href="#b"/>
    </g>
    <g transform="rotate(-27 271.898 94.99)">
      <use xlink:href="#c"/>
      <use fill="#000" fill-opacity=".05" xlink:href="#c"/>
    </g>
    <g transform="rotate(-27 271.898 94.99)">
      <use xlink:href="#d"/>
      <use fill="#000" fill-opacity=".05" xlink:href="#d"/>
    </g>
    <g transform="rotate(-27 271.898 94.99)">
      <use xlink:href="#e"/>
      <use fill="#000" fill-opacity=".05" xlink:href="#e"/>
    </g>
    <g transform="rotate(-27 271.898 94.99)">
      <use xlink:href="#f"/>
      <use fill="#000" fill-opacity=".05" xlink:href="#f"/>
    </g>
    <g transform="rotate(-27 271.898 94.99)">
      <use xlink:href="#g"/>
      <use fill="#000" fill-opacity=".05" xlink:href="#g"/>
    </g>
    <g transform="rotate(-27 271.898 94.99)">
      <use xlink:href="#h"/>
      <use fill="#000" fill-opacity=".05" xlink:href="#h"/>
    </g>
    <g transform="rotate(-27 271.898 94.99)">
      <use xlink:href="#i"/>
      <use fill="#000" fill-opacity=".05" xlink:href="#i"/>
    </g>
    <g transform="rotate(-27 271.898 94.99)">
      <use xlink:href="#j"/>
      <use fill="#000" fill-opacity=".05" xlink:href="#j"/>
    </g>
    <g transform="rotate(-27 271.898 94.99)">
      <use xlink:href="#k"/>
      <use fill="#000" fill-opacity=".05" xlink:href="#k"/>
    </g>
    <g transform="rotate(-27 271.898 94.99)">
      <use xlink:href="#l"/>
      <use fill="#000" fill-opacity=".05" xlink:href="#l"/>
    </g>
    <g transform="rotate(-27 271.898 94.99)">
      <use xlink:href="#m"/>
      <use fill="#000" fill-opacity=".05" xlink:href="#m"/>
    </g>
    <g transform="rotate(-27 271.898 94.99)">
      <use xlink:href="#n"/>
      <use fill="#000" fill-opacity=".05" xlink:href="#n"/>
    </g>
    <g transform="rotate(-27 271.898 94.99)">
      <use xlink:href="#o"/>
      <use fill="#000" fill-opacity=".05" xlink:href="#o"/>
    </g>
    <g transform="rotate(-27 271.898 94.99)">
      <use xlink:href="#p"/>
      <use fill="#000" fill-opacity=".05" xlink:href="#p"/>
    </g>
    <g transform="rotate(-27 271.898 94.99)">
      <use xlink:href="#q"/>
      <use fill="#000" fill-opacity=".05" xlink:href="#q"/>
    </g>
    <g transform="rotate(-27 271.898 94.99)">
      <use xlink:href="#r"/>
      <use fill="#000" fill-opacity=".05" xlink:href="#r"/>
    </g>
    <g transform="rotate(-27 271.898 94.99)">
      <use xlink:href="#s"/>
      <use fill="#000" fill-opacity=".05" xlink:href="#s"/>
    </g>
    <g transform="rotate(-27 271.898 94.99)">
      <use xlink:href="#t"/>
      <use fill="#000" fill-opacity=".05" xlink:href="#t"/>
    </g>
    <g transform="rotate(-27 271.898 94.99)">
      <use xlink:href="#u"/>
      <use fill="#000" fill-opacity=".05" xlink:href="#u"/>
    </g>
    <g transform="rotate(-27 271.898 94.99)">
      <use xlink:href="#v"/>
      <use fill="#000" fill-opacity=".05" xlink:href="#v"/>
    </g>
    <g transform="rotate(-27 271.898 94.99)">
      <use xlink:href="#w"/>
      <use fill="#000" fill-opacity=".05" xlink:href="#w"/>
    </g>
    <g transform="rotate(-27 271.898 94.99)">
      <use xlink:href="#x"/>
      <use fill="#000" fill-opacity=".05" xlink:href="#x"/>
    </g>
    <g transform="rotate(-27 271.898 94.99)">
      <use xlink:href="#y"/>
      <use fill="#000" fill-opacity=".05" xlink:href="#y"/>
    </g>
    <g transform="rotate(-27 271.898 94.99)">
      <use xlink:href="#z"/>
      <use fill="#000" fill-opacity=".05" xlink:href="#z"/>
    </g>
    <g transform="rotate(-27 271.898 94.99)">
      <use xlink:href="#A"/>
      <use fill="#000" fill-opacity=".05" xlink:href="#A"/>
    </g>
    <g transform="rotate(-27 271.898 94.99)">
      <use xlink:href="#B"/>
      <use fill="#000" fill-opacity=".05" xlink:href="#B"/>
    </g>
    <g transform="rotate(-27 271.898 94.99)">
      <use xlink:href="#C"/>
      <use fill="#000" fill-opacity=".05" xlink:href="#C"/>
    </g>
    <g transform="rotate(-27 271.898 94.99)">
      <use xlink:href="#D"/>
      <use fill="#000" fill-opacity=".05" xlink:href="#D"/>
    </g>
    <g transform="rotate(-27 271.898 94.99)">
      <use xlink:href="#E"/>
      <use fill="#000" fill-opacity=".05" xlink:href="#E"/>
    </g>
    <g transform="rotate(-27 271.898 94.99)">
      <use xlink:href="#F"/>
      <use fill="#000" fill-opacity=".05" xlink:href="#F"/>
    </g>
    <g transform="rotate(-27 271.898 94.99)">
      <use xlink:href="#G"/>
      <use fill="#000" fill-opacity=".05" xlink:href="#G"/>
    </g>
    <g transform="rotate(-27 271.898 94.99)">
      <use xlink:href="#H"/>
      <use fill="#000" fill-opacity=".05" xlink:href="#H"/>
    </g>
    <g transform="rotate(-27 271.898 94.99)">
      <use xlink:href="#I"/>
      <use fill="#000" fill-opacity=".05" xlink:href="#I"/>
    </g>
    <g transform="rotate(-27 271.898 94.99)">
      <use xlink:href="#J"/>
      <use fill="#000" fill-opacity=".05" xlink:href="#J"/>
    </g>
    <g transform="rotate(-27 271.898 94.99)">
      <use xlink:href="#K"/>
      <use fill="#000" fill-opacity=".05" xlink:href="#K"/>
    </g>
    <g transform="rotate(-27 271.898 94.99)">
      <use xlink:href="#L"/>
      <use fill="#000" fill-opacity=".05" xlink:href="#L"/>
    </g>
    <g transform="rotate(-27 271.898 94.99)">
      <use xlink:href="#M"/>
      <use fill="#000" fill-opacity=".05" xlink:href="#M"/>
    </g>
    <g transform="rotate(-27 271.898 94.99)">
      <use xlink:href="#N"/>
      <use fill="#000" fill-opacity=".05" xlink:href="#N"/>
    </g>
    <g transform="rotate(-27 271.898 94.99)">
      <use xlink:href="#O"/>
      <use fill="#000" fill-opacity=".05" xlink:href="#O"/>
    </g>
    <g transform="rotate(-27 271.898 94.99)">
      <use xlink:href="#P"/>
      <use fill="#000" fill-opacity=".05" xlink:href="#P"/>
    </g>
    <g transform="rotate(-27 271.898 94.99)">
      <use xlink:href="#Q"/>
      <use fill="#000" fill-opacity=".05" xlink:href="#Q"/>
    </g>
    <g transform="rotate(-27 271.898 94.99)">
      <use xlink:href="#R"/>
      <use fill="#000" fill-opacity=".05" xlink:href="#R"/>
    </g>
    <g transform="rotate(-27 271.898 94.99)">
      <use xlink:href="#S"/>
      <use fill="#000" fill-opacity=".05" xlink:href="#S"/>
    </g>
    <g transform="rotate(-27 271.898 94.99)">
      <use xlink:href="#T"/>
      <use fill="#000" fill-opacity=".05" xlink:href="#T"/>
    </g>
    <g transform="rotate(-27 271.898 94.99)">
      <use xlink:href="#U"/>
      <use fill="#000" fill-opacity=".05" xlink:href="#U"/>
    </g>
    <g transform="rotate(-27 271.898 94.99)">
      <use xlink:href="#V"/>
      <use fill="#000" fill-opacity=".05" xlink:href="#V"/>
    </g>
    <g transform="rotate(-27 271.898 94.99)">
      <use xlink:href="#W"/>
      <use fill="#000" fill-opacity=".05" xlink:href="#W"/>
    </g>
    <g transform="rotate(-27 271.898 94.99)">
      <use xlink:href="#X"/>
      <use fill="#000" fill-opacity=".05" xlink:href="#X"/>
    </g>
    <g transform="rotate(-27 271.898 94.99)">
      <use xlink:href="#Y"/>
      <use fill="#000" fill-opacity=".05" xlink:href="#Y"/>
    </g>
    <g transform="rotate(-27 271.898 94.99)">
      <use xlink:href="#Z"/>
      <use fill="#000" fill-opacity=".05" xlink:href="#Z"/>
    </g>
    <g transform="rotate(-27 271.898 94.99)">
      <use xlink:href="#aa"/>
      <use fill="#000" fill-opacity=".05" xlink:href="#aa"/>
    </g>
    <g transform="rotate(-27 271.898 94.99)">
      <use xlink:href="#ab"/>
      <use fill="#000" fill-opacity=".05" xlink:href="#ab"/>
    </g>
    <g transform="rotate(-27 271.898 94.99)">
      <use xlink:href="#ac"/>
      <use fill="#000" fill-opacity=".05" xlink:href="#ac"/>
    </g>
    <g transform="rotate(-27 271.898 94.99)">
      <use xlink:href="#ad"/>
      <use fill="#000" fill-opacity=".05" xlink:href="#ad"/>
    </g>
    <g transform="rotate(-27 271.898 94.99)">
      <use xlink:href="#ae"/>
      <use fill="#000" fill-opacity=".05" xlink:href="#ae"/>
    </g>
    <g transform="rotate(-27 271.898 94.99)">
      <use xlink:href="#af"/>
      <use fill="#000" fill-opacity=".05" xlink:href="#af"/>
    </g>
    <g transform="rotate(-27 271.898 94.99)">
      <use xlink:href="#ag"/>
      <use fill="#000" fill-opacity=".05" xlink:href="#ag"/>
    </g>
    <g transform="rotate(-27 271.898 94.99)">
      <use xlink:href="#ah"/>
      <use fill="#000" fill-opacity=".05" xlink:href="#ah"/>
    </g>
    <g transform="rotate(-27 271.898 94.99)">
      <use xlink:href="#ai"/>
      <use fill="#000" fill-opacity=".05" xlink:href="#ai"/>
    </g>
    <g transform="rotate(-27 271.898 94.99)">
      <use xlink:href="#aj"/>
      <use fill="#000" fill-opacity=".05" xlink:href="#aj"/>
    </g>
    <g transform="rotate(-27 271.898 94.99)">
      <use xlink:href="#ak"/>
      <use fill="#000" fill-opacity=".05" xlink:href="#ak"/>
    </g>
    <g transform="rotate(-27 271.898 94.99)">
      <use xlink:href="#al"/>
      <use fill="#000" fill-opacity=".05" xlink:href="#al"/>
    </g>
    <g transform="rotate(-27 271.898 94.99)">
      <use xlink:href="#am"/>
      <use fill="#000" fill-opacity=".05" xlink:href="#am"/>
    </g>
    <g transform="rotate(-27 271.898 94.99)">
      <use xlink:href="#an"/>
      <use fill="#000" fill-opacity=".05" xlink:href="#an"/>
    </g>
    <g transform="rotate(-27 271.898 94.99)">
      <use xlink:href="#ao"/>
      <use fill="#000" fill-opacity=".05" xlink:href="#ao"/>
    </g>
    <g transform="rotate(-27 271.898 94.99)">
      <use xlink:href="#ap"/>
      <use fill="#000" fill-opacity=".05" xlink:href="#ap"/>
    </g>
    <g transform="rotate(-27 271.898 94.99)">
      <use xlink:href="#aq"/>
      <use fill="#000" fill-opacity=".05" xlink:href="#aq"/>
    </g>
    <g transform="rotate(-27 271.898 94.99)">
      <use xlink:href="#ar"/>
      <use fill="#000" fill-opacity=".05" xlink:href="#ar"/>
    </g>
    <g transform="rotate(-27 271.898 94.99)">
      <use xlink:href="#as"/>
      <use fill="#000" fill-opacity=".05" xlink:href="#as"/>
    </g>
    <g transform="rotate(-27 271.898 94.99)">
      <use xlink:href="#at"/>
      <use fill="#000" fill-opacity=".05" xlink:href="#at"/>
    </g>
    <g transform="rotate(-27 271.898 94.99)">
      <use xlink:href="#au"/>
      <use fill="#000" fill-opacity=".05" xlink:href="#au"/>
    </g>
    <g transform="rotate(-27 271.898 94.99)">
      <use xlink:href="#av"/>
      <use fill="#000" fill-opacity=".05" xlink:href="#av"/>
    </g>
    <g transform="rotate(-27 271.898 94.99)">
      <use xlink:href="#aw"/>
      <use fill="#000" fill-opacity=".05" xlink:href="#aw"/>
    </g>
    <g transform="rotate(-27 271.898 94.99)">
      <use xlink:href="#ax"/>
      <use fill="#000" fill-opacity=".05" xlink:href="#ax"/>
    </g>
    <g transform="rotate(-27 271.898 94.99)">
      <use xlink:href="#ay"/>
      <use fill="#000" fill-opacity=".05" xlink:href="#ay"/>
    </g>
    <g transform="rotate(-27 271.898 94.99)">
      <use xlink:href="#az"/>
      <use fill="#000" fill-opacity=".05" xlink:href="#az"/>
    </g>
    <g transform="rotate(-27 271.898 94.99)">
      <use xlink:href="#aA"/>
      <use fill="#000" fill-opacity=".05" xlink:href="#aA"/>
    </g>
    <g transform="rotate(-27 271.898 94.99)">
      <use xlink:href="#aB"/>
      <use fill="#000" fill-opacity=".05" xlink:href="#aB"/>
    </g>
  </g>
</svg>
