<?xml version="1.0" encoding="UTF-8" standalone="no"?>
<svg width="347px" height="215px" viewBox="0 0 347 215" version="1.1" xmlns="http://www.w3.org/2000/svg" xmlns:xlink="http://www.w3.org/1999/xlink" xmlns:sketch="http://www.bohemiancoding.com/sketch/ns">
    <!-- Generator: Sketch 3.5.1 (25234) - http://www.bohemiancoding.com/sketch -->
    <title>keyboard</title>
    <desc>Created with Sketch.</desc>
    <defs>
        <path id="path-1" d="M88.9421307,65.9049683 L78.4205138,66.7980912 C76.5601556,66.9561698 74.327345,66.0377995 73.4364434,64.7512015 L65.8641435,53.81298 C64.9691672,52.5198704 65.747416,51.3481442 67.6178533,51.1950739 L78.1580864,50.3334546 C80.0219561,50.1812607 82.2581152,51.1052274 83.1490798,52.3919214 L90.6999863,63.2939393 C91.5898493,64.5784065 90.809485,65.7466226 88.9421307,65.9049683 Z"></path>
        <path id="path-2" d="M68.6530821,68.0274643 L58.1339479,68.9242207 C56.274028,69.0829401 54.0391961,68.161068 53.1453749,66.8695305 L45.5483343,55.8894883 C44.6504428,54.591455 45.4259689,53.4152054 47.2959581,53.2614708 L57.8336621,52.3960991 C59.6970841,52.2432402 61.9352524,53.1706783 62.8291337,54.4623039 L70.404834,65.4062792 C71.2976278,66.6957101 70.5199951,67.8684721 68.6530821,68.0274643 Z"></path>
        <path id="path-3" d="M148.220885,59.6459054 L137.691811,60.5280023 C135.830136,60.6841359 133.603221,59.7760006 132.720874,58.5039109 L125.221066,47.6885324 C124.334631,46.409886 125.120884,45.2514971 126.992667,45.1004402 L137.540493,44.2501929 C139.405707,44.1000146 141.636004,45.0138344 142.518423,46.2860424 L149.996683,57.0648199 C150.877959,58.3347077 150.089565,59.4895212 148.220885,59.6459054 Z"></path>
        <path id="path-4" d="M128.726107,61.714252 L118.19952,62.6000443 C116.338284,62.7568298 114.109432,61.8453284 113.224268,60.5684551 L105.700587,49.7125722 C104.811339,48.4291569 105.594952,47.2663617 107.466286,47.1146305 L118.01158,46.2605742 C119.876346,46.1097209 122.10857,47.0268779 122.993803,48.3038623 L130.495986,59.1232746 C131.38009,60.3979693 130.594345,61.5572104 128.726107,61.714252 Z"></path>
        <path id="path-5" d="M207.534166,54.1490479 L196.998376,55.0212776 C195.135515,55.1756708 192.914713,54.2781663 192.041056,53.0208676 L184.614886,42.3307324 C183.737129,41.0668328 184.53139,39.9218466 186.404387,39.7725987 L196.959065,38.932569 C198.825492,38.7842018 201.049712,39.6874781 201.923449,40.9449164 L209.327913,51.5980478 C210.200466,52.8530724 209.404039,53.9944192 207.534166,54.1490479 Z"></path>
        <path id="path-6" d="M188.023988,56.1941305 L177.49072,57.070144 C175.628304,57.2252047 173.405553,56.3243045 172.529059,55.0621703 L165.078844,44.331089 C164.198253,43.0623682 164.989853,41.9129208 166.862395,41.7629828 L177.414507,40.9190561 C179.28048,40.7699982 181.506637,41.6766416 182.383209,42.9389085 L189.811769,53.6331161 C190.68717,54.8929997 189.893413,56.0388287 188.023988,56.1941305 Z"></path>
        <path id="path-7" d="M267.722787,48.011241 L257.179291,48.8718532 C255.31507,49.0241968 253.100329,48.1372723 252.235475,46.8950102 L244.883901,36.3322057 C244.014934,35.0832993 244.817437,33.9521652 246.691824,33.8050363 L257.254344,32.9769737 C259.12216,32.8307273 261.340352,33.723511 262.205296,34.9659336 L269.535007,45.4913326 C270.398723,46.7312481 269.59403,47.8586787 267.722787,48.011241 Z"></path>
        <path id="path-8" d="M247.383435,50.0573966 L236.842532,50.9219265 C234.978768,51.0749613 232.761971,50.184444 231.894133,48.9370807 L224.517282,38.3310773 C223.645336,37.0770841 224.445048,35.9412538 226.318968,35.7934103 L236.878849,34.9613119 C238.746198,34.8143502 240.966435,35.7106973 241.834359,36.9582142 L249.189401,47.5269479 C250.056112,48.7719893 249.254216,49.9041375 247.383435,50.0573966 Z"></path>
        <path id="path-9" d="M306.770433,44.6719957 L296.222649,45.5262312 C294.357671,45.6774501 292.147046,44.7977187 291.288003,43.5654124 L283.985675,33.0869178 C283.122511,31.8479395 283.93034,30.7257902 285.805503,30.5798313 L296.372402,29.7583763 C298.240993,29.6133009 300.455091,30.4989477 301.314229,31.7314275 L308.59459,42.1722513 C309.452474,43.4021631 308.642438,44.5205679 306.770433,44.6719957 Z"></path>
        <path id="path-10" d="M287.256008,46.0016969 L276.709942,46.8584004 C274.845267,47.0100545 272.632489,46.1265634 271.770499,44.8892054 L264.443199,34.36793 C263.577092,33.1239139 264.382285,31.9973147 266.257135,31.850898 L276.82227,31.026857 C278.690549,30.8813232 280.906788,31.7707017 281.76887,33.0082268 L289.074257,43.4919669 C289.935099,44.7269549 289.127707,45.8498298 287.256008,46.0016969 Z"></path>
        <path id="path-11" d="M227.861786,52.08484 L217.323429,52.9532162 C215.460115,53.1069296 213.241361,52.2129978 212.370673,50.9607646 L204.969662,40.3135235 C204.09487,39.0546746 204.891906,37.9143462 206.765366,37.7658015 L217.322658,36.9297437 C219.189548,36.7820803 221.41173,37.6818135 222.282502,38.9341935 L229.661754,49.5442949 C230.531326,50.7942295 229.732116,51.9308968 227.861786,52.08484 Z"></path>
        <path id="path-12" d="M168.53279,57.5579467 L158.001182,58.4362805 C156.13906,58.5917503 153.914182,57.6871567 153.034783,56.4200783 L145.559953,45.6471321 C144.676462,44.3734819 145.465468,43.2196935 147.337708,43.0693239 L157.888112,42.2229582 C159.753783,42.0734679 161.982056,42.983776 162.86153,44.2509801 L170.314758,54.987189 C171.193075,56.252041 170.401919,57.4022319 168.53279,57.5579467 Z"></path>
        <path id="path-13" d="M108.425683,63.8196145 L97.9016035,64.7091052 C96.0408104,64.866543 93.8099296,63.9515199 92.9218319,62.6696712 L85.3732908,51.7716616 C84.4811141,50.4832864 85.2619888,49.3159292 87.1328704,49.1635221 L97.6756105,48.3056488 C99.5399241,48.1541189 101.774165,49.0747674 102.662329,50.3567196 L110.189425,61.218395 C111.076474,62.4980896 110.293475,63.661915 108.425683,63.8196145 Z"></path>
        <path id="path-14" d="M256.854174,103.857708 L148.434587,115.466098 C146.602547,115.66411 144.379795,114.803213 143.473023,113.547426 L135.765434,102.869532 C134.854421,101.607007 135.603606,100.427129 137.438793,100.234725 L246.05343,88.960425 C247.891215,88.7716012 250.107443,89.6207722 250.999874,90.8519891 L258.562449,101.281494 C259.453597,102.509999 258.68851,103.663194 256.854174,103.857708 Z"></path>
        <path id="path-15" d="M355.635297,92.8629076 L345.150766,93.8264892 C343.296964,93.9970225 341.11005,93.1571883 340.263491,91.9467771 L339.290762,90.5558612 C338.444652,89.3459059 339.255649,88.2289058 341.117562,88.0600927 L351.60974,87.1097197 C353.465109,86.9418241 355.652133,87.7817815 356.496678,88.9887165 L357.466384,90.37441 C358.309248,91.5787558 357.496068,92.6920538 355.635297,92.8629076 Z"></path>
        <path id="path-16" d="M319.240988,96.495018 L308.760373,97.4641782 C306.907263,97.6356952 304.716445,96.7889558 303.864365,95.5690206 L302.885297,94.1671706 C302.033676,92.9477124 302.839645,91.8222067 304.700857,91.6523916 L315.189086,90.6963575 C317.043756,90.5274582 319.234681,91.3743128 320.084755,92.5907911 L321.060813,93.9874515 C321.909203,95.2013377 321.101063,96.3231715 319.240988,96.495018 Z"></path>
        <path id="path-17" d="M337.490856,94.648764 L327.008253,95.6150889 C325.154791,95.786106 322.966121,94.9430972 322.113302,93.7229149 L314.593925,82.960773 C313.741031,81.7396496 314.548008,80.6162238 316.411757,80.4506782 L326.914294,79.5187321 C328.771496,79.3540976 330.963825,80.2033563 331.816843,81.4238908 L339.313032,92.1460399 C340.160477,93.3577563 339.351285,94.477422 337.490856,94.648764 Z"></path>
        <path id="path-18" d="M300.767711,98.5151943 L290.289288,99.4875207 C288.436564,99.6595962 286.240311,98.8044213 285.386721,97.5815187 L278.13062,87.1826952 C277.272905,85.953103 278.075284,84.8217881 279.938175,84.654964 L290.435863,83.7157973 C292.292207,83.5498829 294.491932,84.4109671 295.345609,85.6340249 L302.57957,95.9947419 C303.431971,97.215183 302.627397,98.3427844 300.767711,98.5151943 Z"></path>
        <path id="path-19" d="M281.718106,100.720808 L266.031444,102.18253 C264.180249,102.355248 261.982283,101.495514 261.125066,100.266372 L253.83823,89.8147091 C252.976893,88.5788944 253.784948,87.4411105 255.636438,87.2745014 L271.351876,85.8622481 C273.206769,85.6957876 275.407624,86.5603949 276.264136,87.7883291 L283.522197,98.1905225 C284.377446,99.4158692 283.566506,100.548788 281.718106,100.720808 Z"></path>
        <path id="path-20" d="M138.007341,116.176342 L125.501179,117.369924 L123.911124,117.521818 C122.061344,117.698563 119.847313,116.812618 118.96895,115.54727 L111.502911,104.788995 C110.620457,103.517075 111.403144,102.347303 113.252099,102.17663 L127.39199,100.872885 C129.240885,100.702604 131.454261,101.593868 132.332145,102.858389 L139.771865,113.571794 C140.648586,114.833952 139.863819,115.999328 138.007341,116.176342 Z"></path>
        <path id="path-21" d="M115.834168,118.589377 L106.165991,119.515195 C104.314207,119.692652 102.096424,118.803659 101.215448,117.533857 L93.7272646,106.737872 C92.842201,105.461511 93.6236391,104.287626 95.4834814,104.115409 L105.169085,103.219264 C107.024396,103.047742 109.245634,103.942531 110.126787,105.21262 L117.594293,115.973398 C118.474299,117.241159 117.690854,118.411714 115.834168,118.589377 Z"></path>
        <path id="path-22" d="M97.2789848,120.84374 L87.6129097,121.772515 C85.7615279,121.950537 83.5418661,121.058248 82.6581815,119.783834 L75.147045,108.9488 C74.2592767,107.667842 75.038192,106.48976 76.8976238,106.316958 L86.581087,105.417759 C88.4359878,105.245651 90.6590933,106.143708 91.5429515,107.418401 L99.0334566,118.218343 C99.9161807,119.490737 99.1352666,120.665509 97.2789848,120.84374 Z"></path>
        <path id="path-23" d="M77.9229716,123.14294 L68.2590112,124.074656 C66.4080339,124.253241 64.1863993,123.357494 63.2998882,122.078273 L55.7647996,111.202539 C54.8742089,109.916789 55.650504,108.734354 57.5095226,108.560968 L67.190831,107.658725 C69.0453185,107.486032 71.2703854,108.387518 72.1570669,109.667009 L79.6715715,120.507773 C80.5571324,121.784997 79.7788468,122.964142 77.9229716,123.14294 Z"></path>
        <path id="path-24" d="M107.158066,101.547473 L96.6795455,102.51357 C94.8268018,102.684537 92.6055468,101.785714 91.7212602,100.510299 L84.2050199,89.6667794 C83.3166498,88.3848215 84.0941313,87.211791 85.9569543,87.0458565 L96.454248,86.1116631 C98.3105191,85.9466212 100.535135,86.8510699 101.419483,88.1265765 L108.914149,98.9334332 C109.797364,100.206645 109.017766,101.376161 107.158066,101.547473 Z"></path>
        <path id="path-25" d="M166.195913,94.879598 L155.710248,95.835471 C153.856243,96.0046348 151.640987,95.1163108 150.765327,93.8555863 L143.322188,83.1364604 C142.442432,81.8691493 143.227931,80.7094897 145.092044,80.5454253 L155.596616,79.6217963 C157.454175,79.4586271 159.672826,80.3526646 160.548556,81.6135028 L167.969968,92.2955743 C168.844524,93.5540245 168.056883,94.7101057 166.195913,94.879598 Z"></path>
        <path id="path-26" d="M145.972592,97.1170007 L135.48934,98.076329 C133.635761,98.2461021 131.418437,97.3541566 130.539812,96.088377 L123.071547,85.3264456 C122.18883,84.0540943 122.97158,82.8898425 124.835257,82.7251458 L135.33737,81.7979448 C137.194494,81.6341424 139.415201,82.5317717 140.293893,83.7976575 L147.740484,94.5226687 C148.618017,95.7861983 147.833133,96.9468936 145.972592,97.1170007 Z"></path>
        <path id="path-27" d="M225.265007,88.9668451 L214.772944,89.9136614 C212.917809,90.0812282 210.708768,89.2037982 209.841869,87.9580456 L202.472976,77.3657025 C201.601969,76.1133203 202.395489,74.9670948 204.26076,74.8046944 L214.771864,73.8904668 C216.630581,73.7289644 218.84305,74.6121941 219.710027,75.8580814 L227.057039,86.412974 C227.922801,87.6563807 227.127114,88.7989645 225.265007,88.9668451 Z"></path>
        <path id="path-28" d="M205.851211,90.4636101 L195.360712,91.4124995 C193.505853,91.5804315 191.294647,90.6992096 190.424813,89.4484354 L183.031046,78.8135676 C182.157108,77.556178 182.948023,76.4055836 184.813008,76.2427959 L195.322503,75.3263787 C197.180935,75.1644879 199.395558,76.0514813 200.265468,77.3023835 L207.637406,87.8999348 C208.506115,89.1483872 207.71304,90.2953604 205.851211,90.4636101 Z"></path>
        <path id="path-29" d="M284.397277,82.4389237 L273.897855,83.3749616 C272.041421,83.5406272 269.838447,82.6738668 268.980295,81.4431132 L261.68553,70.9777895 C260.823258,69.7403649 261.624925,68.6078412 263.491523,68.4474091 L274.010119,67.5442987 C275.870162,67.3847668 278.076598,68.2574122 278.934837,69.488321 L286.207568,79.9158048 C287.064551,81.1441414 286.260692,82.2729606 284.397277,82.4389237 Z"></path>
        <path id="path-30" d="M264.950395,84.5952494 L254.453428,85.5349023 C252.597427,85.7012056 250.39246,84.8309368 249.531428,83.5952387 L242.212253,73.0880419 C241.347105,71.8456862 242.146085,70.7086368 244.01224,70.5475449 L254.528338,69.6407083 C256.387938,69.480516 258.596356,70.3566418 259.457473,71.5924885 L266.754663,82.0619732 C267.614537,83.2952777 266.813374,84.4286432 264.950395,84.5952494 Z"></path>
        <path id="path-31" d="M304.658312,80.257624 L294.156392,81.1899864 C292.299517,81.3550036 290.098638,80.4919338 289.2435,79.2663592 L281.974273,68.8448951 C281.115011,67.6126354 281.919479,66.4848365 283.786528,66.3250756 L294.307667,65.425757 C296.168161,65.2668971 298.372513,66.1358809 299.227741,67.3616175 L306.474881,77.7451082 C307.328839,78.9682416 306.522171,80.0923148 304.658312,80.257624 Z"></path>
        <path id="path-32" d="M245.509048,86.759946 L235.014524,87.703183 C233.158954,87.8701184 230.951998,86.9963502 230.088092,85.7557241 L222.744563,75.2067942 C221.876545,73.9595242 222.672844,72.8179668 224.538559,72.6562207 L235.052169,71.7456888 C236.91133,71.5848415 239.121726,72.4644388 239.985714,73.7052067 L247.307309,84.2165523 C248.170067,85.4548081 247.371592,86.5927022 245.509048,86.759946 Z"></path>
        <path id="path-33" d="M185.616755,92.6844912 L175.128694,93.6369007 C173.274265,93.8054537 171.060984,92.9205909 170.188171,91.6647262 L162.76916,80.9867525 C161.892247,79.724287 162.680398,78.5690624 164.544943,78.4056309 L175.051954,77.4855768 C176.909946,77.3230414 179.126633,78.2136461 179.999519,79.4696315 L187.396754,90.1104228 C188.268452,91.36399 187.478151,92.5156151 185.616755,92.6844912 Z"></path>
        <path id="path-34" d="M126.562647,99.3282722 L116.081767,100.291001 C114.228607,100.461373 112.009315,99.5659851 111.127856,98.2953795 L103.635576,87.4925835 C102.75003,86.2154206 103.530141,85.0467704 105.39339,84.8814521 L115.893088,83.9507392 C117.749784,83.7863143 119.972447,84.6873578 120.853971,85.9580623 L128.324626,96.7240665 C129.205004,97.9924453 128.422767,99.1575602 126.562647,99.3282722 Z"></path>
        <path id="path-35" d="M344.026636,77.0689604 L313.418038,79.7755159 C311.561307,79.9401305 309.365498,79.0845211 308.512128,77.8623313 L301.422042,67.7047468 C300.566537,66.4787272 301.385027,65.3553041 303.240759,65.1968282 L333.904709,62.5856033 C335.765379,62.4276078 337.962413,63.2851897 338.812774,64.502208 L345.855855,74.5788367 C346.703041,75.7905185 345.879597,76.9055478 344.026636,77.0689604 Z"></path>
        <path id="path-36" d="M87.0611823,103.804385 L56.2747883,106.657319 C54.4239636,106.829217 52.1994432,105.922963 51.3092339,104.637493 L43.7428054,93.7088323 C42.8485216,92.41685 43.6302086,91.2339621 45.4805258,91.0679951 L76.3218924,88.308306 C78.1765677,88.1427529 80.4022687,89.0508264 81.2895416,90.3312998 L88.8090717,101.180411 C89.6952263,102.458621 88.9087451,103.633559 87.0611823,103.804385 Z"></path>
        <path id="path-37" d="M87.945039,84.8543949 L77.4461462,85.7856542 C75.5898028,85.9504677 73.3617391,85.0400691 72.4726719,83.7565591 L64.9159184,72.844491 C64.0227743,71.5544615 64.7992766,70.3798179 66.6656944,70.2200133 L77.1832595,69.3203995 C79.0431177,69.1614789 81.2745299,70.0774739 82.1636578,71.3610737 L89.6989535,82.2367754 C90.5869715,83.5181301 89.8083572,84.6892728 87.945039,84.8543949 Z"></path>
        <path id="path-38" d="M146.285515,78.4102311 L135.779371,79.3309447 C133.921747,79.4938982 131.699529,78.5936845 130.818918,77.3245369 L123.333824,66.5340782 C122.449123,65.258367 123.23352,64.0968738 125.101247,63.938996 L135.626194,63.0502658 C137.48736,62.8932744 139.712961,63.799171 140.593641,65.0684305 L148.057126,75.8221343 C148.936656,77.0890569 148.150122,78.2469852 146.285515,78.4102311 Z"></path>
        <path id="path-39" d="M126.833229,80.5501102 L116.329515,81.4743703 C114.47232,81.6379493 112.24815,80.7343316 111.364713,79.4603799 L103.855677,68.6292429 C102.968156,67.3487422 103.749914,66.1828474 105.617202,66.0243218 L116.139677,65.1319326 C118.000405,64.9742926 120.227946,65.8835645 121.111449,67.1576209 L128.598926,77.9521323 C129.481292,79.2238823 128.697405,80.3862334 126.833229,80.5501102 Z"></path>
        <path id="path-40" d="M206.278903,72.6633132 L195.76619,73.5745826 C193.907406,73.7358705 191.691442,72.8465719 190.819671,71.59249 L183.409481,60.9296042 C182.533607,59.6689143 183.326112,58.5209863 185.195027,58.3648427 L195.726682,57.4859097 C197.589035,57.330655 199.808416,58.2257246 200.680266,59.4799401 L208.068688,70.1056654 C208.939345,71.3574494 208.144677,72.5017477 206.278903,72.6633132 Z"></path>
        <path id="path-41" d="M186.811444,74.7806348 L176.301194,75.6955403 C174.442846,75.8574696 172.224918,74.9647373 171.350301,73.705799 L163.915996,63.0017902 C163.03728,61.7362581 163.827126,60.5838732 165.695596,60.427066 L176.224743,59.5443845 C178.086652,59.3884655 180.307986,60.2869404 181.182678,61.5460052 L188.595267,72.2129826 C189.46878,73.4696463 188.67678,74.6184225 186.811444,74.7806348 Z"></path>
        <path id="path-42" d="M265.524959,66.3316764 L255.00475,67.2318177 C253.144643,67.3911427 250.934689,66.5123702 250.07162,65.2731726 L242.735173,54.7363301 C241.867989,53.4904822 242.668624,52.3562127 244.538891,52.2021 L255.078175,51.3346368 C256.941879,51.1814149 259.155284,52.0660444 260.01844,53.3053962 L267.332966,63.8046855 C268.194888,65.041514 267.392066,66.1720906 265.524959,66.3316764 Z"></path>
        <path id="path-43" d="M246.040631,68.4233375 L235.522921,69.3272085 C233.663256,69.4871914 231.451327,68.6049575 230.585392,67.360853 L223.224662,56.7824568 C222.354616,55.5317157 223.15257,54.3929346 225.022386,54.2381416 L235.559127,53.3668366 C237.42238,53.2129338 239.637748,54.1009965 240.503767,55.3452485 L247.842627,65.8862205 C248.707425,67.1279793 247.907293,68.2630882 246.040631,68.4233375 Z"></path>
        <path id="path-44" d="M335.315861,59.025101 L328.987128,49.9628276 L314.788745,29.6151905 C314.353911,28.9916758 313.413557,28.5318662 312.688273,28.5880077 L303.231952,29.3207607 C302.505671,29.3770984 302.272073,29.9293419 302.707732,30.5542965 L313.720004,46.3445235 C307.297628,46.8668916 300.875661,47.3898645 300.875661,47.3898645 C300.151185,47.4489023 299.919439,48.0017996 300.354053,48.6249943 L309.149282,61.2319792 C309.583194,61.8537189 310.51817,62.3058621 311.239577,62.2447073 L334.789777,60.2526006 C335.513106,60.1915464 335.746922,59.6421783 335.315861,59.025101 Z"></path>
        <path id="path-45" d="M304.486097,62.8453545 L293.961717,63.7394171 C292.100873,63.8976699 289.895065,63.026165 289.037822,61.7969622 L281.750752,51.3447612 C280.889387,50.1088807 281.695345,48.9835852 283.566367,48.8305892 L294.109912,47.9694339 C295.974371,47.8173302 298.183652,48.694748 299.040987,49.924118 L306.306032,60.3385024 C307.162106,61.5652884 306.353945,62.6868503 304.486097,62.8453545 Z"></path>
        <path id="path-46" d="M285.014927,64.2486529 L274.492206,65.1450337 C272.631655,65.3036952 270.42368,64.4283932 269.563482,63.1941192 L262.251374,52.6989717 C261.387058,51.4580337 262.190381,50.3282938 264.061101,50.1748669 L274.602942,49.3112763 C276.467098,49.1587407 278.678536,50.0399277 279.538823,51.2743626 L286.828959,61.7318281 C287.687999,62.9637096 286.88248,64.089736 285.014927,64.2486529 Z"></path>
        <path id="path-47" d="M226.561916,70.5235729 L216.046695,71.4311428 C214.187469,71.5917782 211.97357,70.7060919 211.104775,69.4570971 L203.719817,58.8372885 C202.846916,57.5816709 203.642195,56.4383962 205.511563,56.2829284 L216.045771,55.4078123 C217.908577,55.2532342 220.125905,56.1447209 220.99478,57.3938565 L228.357918,67.9763697 C229.225586,69.2230423 228.428136,70.3626656 226.561916,70.5235729 Z"></path>
        <path id="path-48" d="M166.553052,76.2474837 L156.044436,77.1645895 C154.186375,77.3269067 151.966209,76.4302741 151.088555,75.1661589 L143.62851,64.4183128 C142.746762,63.147619 143.53391,61.9907213 145.402082,61.833503 L155.929548,60.9484983 C157.79116,60.7921672 160.01472,61.6945126 160.892447,62.9587472 L168.33083,73.6697032 C169.207392,74.931569 168.418098,76.0848797 166.553052,76.2474837 Z"></path>
        <path id="path-49" d="M107.386412,82.6981862 L96.8851146,83.6259615 C95.0283466,83.7901605 92.8022278,82.8831478 91.915973,81.6044086 L84.3830506,70.7327352 C83.4927145,69.4474616 84.2718414,68.2771835 86.1386932,68.1180156 L96.6587071,67.2219985 C98.5189989,67.0637154 100.748478,67.9763534 101.634796,69.25519 L109.14621,80.0903673 C110.031405,81.3669281 109.250158,82.5336839 107.386412,82.6981862 Z"></path>
        <path id="path-50" d="M72.053527,48.2292856 L61.5108127,49.0866019 C59.6467269,49.2383563 57.4072736,48.3087527 56.5119229,47.0146513 L48.901919,36.0128933 C48.0024998,34.7123026 48.7801414,33.5395804 50.6543025,33.3928125 L61.2155341,32.566748 C63.0831197,32.4208485 65.3259107,33.3560216 66.2213243,34.6502185 L73.8100483,45.6160624 C74.7043813,46.9080796 73.9246282,48.0773018 72.053527,48.2292856 Z"></path>
        <path id="path-51" d="M51.7245972,50.2841023 L41.1844167,51.1451833 C39.3207783,51.2976018 37.0793237,50.3645474 36.1810688,49.0655461 L28.5464564,38.0223043 C27.6441376,36.7168297 28.4190619,35.5395976 30.2927656,35.3921419 L40.8514168,34.5621928 C42.7185455,34.4156047 44.9633258,35.354198 45.8616404,36.6532868 L53.4750265,47.6607524 C54.3722748,48.9576939 53.5952481,50.1314487 51.7245972,50.2841023 Z"></path>
        <path id="path-52" d="M131.438745,42.8638935 L120.889267,43.7112212 C119.023987,43.8612138 116.790552,42.9420011 115.903785,41.662417 L108.366509,30.7835736 C107.475659,29.497454 108.261229,28.337929 110.136613,28.1929922 L120.704745,27.3772706 C122.573553,27.2332042 124.81036,28.1580754 125.6972,29.4377772 L133.213037,40.2802993 C134.098754,41.557727 133.311048,42.7136867 131.438745,42.8638935 Z"></path>
        <path id="path-53" d="M111.094111,44.894995 L100.547202,45.7461784 C98.6823761,45.8968511 96.4469275,44.974156 95.5572341,43.6896173 L87.9951684,32.7688234 C87.1013976,31.4777647 87.8842273,30.313672 89.7591477,30.1680313 L100.324665,29.3483343 C102.193009,29.2035635 104.431818,30.1318867 105.32158,31.4165356 L112.862261,42.3011458 C113.750915,43.5835526 112.965957,44.7441023 111.094111,44.894995 Z"></path>
        <path id="path-54" d="M190.881325,36.875121 L180.324138,37.7107737 C178.457496,37.8587065 176.229935,36.9496723 175.351739,35.6846415 L167.887101,24.9290244 C167.00481,23.6574134 167.798434,22.5113554 169.675209,22.3685477 L180.251187,21.5648492 C182.121384,21.4229135 184.352352,22.337694 185.230629,23.6028642 L192.673672,34.3217601 C193.550784,35.584563 192.754998,36.7269908 190.881325,36.875121 Z"></path>
        <path id="path-55" d="M171.332433,38.8540359 L160.777816,39.6935973 C158.911628,39.8422198 156.682137,38.929838 155.801118,37.6600087 L148.312559,26.8637606 C147.42745,25.5873656 148.218417,24.4368587 150.094728,24.2933386 L160.668091,23.4856171 C162.537825,23.3429685 164.770712,24.2610678 165.651808,25.5310295 L173.118824,36.2906876 C173.99877,37.5583125 173.205649,38.7052105 171.332433,38.8540359 Z"></path>
        <path id="path-56" d="M250.356481,31.6465396 L239.79233,32.4716878 C237.924459,32.6177676 235.702989,31.7193114 234.833501,30.4691192 L227.442657,19.8391507 C226.569062,18.5823344 227.370745,17.4498094 229.248778,17.3089242 L239.831857,16.5160828 C241.703311,16.3760712 243.928222,17.2803606 244.797799,18.5307129 L252.16689,29.1235549 C253.035261,30.3714466 252.231391,31.500278 250.356481,31.6465396 Z"></path>
        <path id="path-57" d="M230.791716,33.6009776 L220.23017,34.4301222 C218.362759,34.5769071 216.139347,33.6750734 215.267016,32.4200305 L207.852078,21.7489863 C206.975644,20.4873334 207.774648,19.3503043 209.652211,19.2086911 L220.232642,18.4117394 C222.103627,18.2709994 224.330468,19.1786379 225.202885,20.4338342 L232.596123,31.0678828 C233.467348,32.3206489 232.666164,33.4540052 230.791716,33.6009776 Z"></path>
        <path id="path-58" d="M269.927073,29.701222 L259.360306,30.5223432 C257.491973,30.6677124 255.272448,29.772643 254.40581,28.5273185 L247.039117,17.9385692 C246.168368,16.6866065 246.972736,15.5586038 248.851241,15.4184519 L259.436981,14.6297515 C261.308906,14.4904736 263.531883,15.3914046 264.398612,16.636896 L271.743501,27.1883877 C272.609012,28.4313883 271.802448,29.5556766 269.927073,29.701222 Z"></path>
        <path id="path-59" d="M211.232756,35.5644729 L200.673802,36.3975833 C198.806848,36.5450678 196.581499,35.639866 195.706331,34.3799891 L188.267354,23.668013 C187.388087,22.4015405 188.18442,21.2600255 190.061516,21.1176898 L200.63931,20.3166583 C202.509828,20.1751954 204.738596,21.0861734 205.613847,22.3461968 L213.031174,33.0213084 C213.905247,34.2789319 213.106743,35.4167952 211.232756,35.5644729 Z"></path>
        <path id="path-60" d="M45.0533531,89.0881627 C43.2014633,89.2535367 40.97318,88.3371048 40.0794078,87.0456263 L32.4827847,76.0660898 C31.5849427,74.7681169 32.3646998,73.5856294 34.215956,73.4261366 L57.2877797,71.442379 C59.1433792,71.2831516 61.3736719,72.2028478 62.2656681,73.4913049 L69.8253461,84.4083303 C70.7162462,85.6945738 69.9327387,86.8708515 68.0843355,87.0353017 L45.0533531,89.0881627 Z"></path>
        <path id="path-61" d="M150.976089,40.8671441 L140.424066,41.7106256 C138.558336,41.8599397 136.326824,40.9440554 135.442865,39.6692352 L127.929396,28.8307284 C127.041352,27.5493579 127.829564,26.3942445 129.705407,26.2500091 L140.27613,25.438248 C142.145396,25.2948835 144.380292,26.2164553 145.264326,27.4914004 L152.756305,38.2934546 C153.639202,39.5660948 152.848845,40.7176214 150.976089,40.8671441 Z"></path>
        <path id="path-62" d="M91.5682121,46.9093173 L81.0238255,47.764284 C79.1594443,47.9156242 76.9220809,46.9896198 76.0295915,45.7003518 L68.4438341,34.7395162 C67.5472718,33.4437433 68.3274736,32.2752761 70.2019392,32.1289452 L80.76489,31.3053504 C82.6327801,31.1598888 84.8734928,32.0914921 85.7660479,33.3808629 L93.3304717,44.3056464 C94.2219322,45.5928059 93.4396106,46.7577517 91.5682121,46.9093173 Z"></path>
        <path id="path-63" d="M310.354494,26.9094509 L279.556149,29.2899866 C277.687929,29.4348794 275.473554,28.547367 274.608757,27.3055198 L267.424001,16.9851871 C266.557107,15.7395989 267.37567,14.61626 269.242822,14.4773529 L300.095823,12.1903873 C301.967986,12.0521227 304.18362,12.9416965 305.045449,14.178476 L312.183791,24.4193479 C313.042468,25.6508549 312.218963,26.7658291 310.354494,26.9094509 Z"></path>
        <path id="path-64" d="M31.4014602,52.3476906 L20.8638008,53.2125034 C19.0006075,53.3655802 16.7571558,52.4290854 15.8560038,51.1252028 L8.19684434,40.040635 C7.29163325,38.7302953 8.06384781,37.5485731 9.93709645,37.4004354 L20.4931798,36.5666344 C22.3598539,36.4193637 24.6066194,37.3613666 25.5078278,38.6653288 L33.1458147,49.7142583 C34.0459712,51.0161054 33.2716631,52.1943731 31.4014602,52.3476906 Z"></path>
        <path id="path-65" d="M40.0117924,32.061296 L29.4502069,32.8863243 C27.5827866,33.0323756 25.3348209,32.0884881 24.4315963,30.7814528 L21.2481849,26.1743204 C20.3425601,24.8635328 21.1167727,23.685301 22.9929246,23.5419591 L33.5653824,22.7352193 C35.4349544,22.5927403 37.6840757,23.5385163 38.586025,24.8434006 L41.760649,29.4357514 C42.6625539,30.7402878 41.886245,31.9150484 40.0117924,32.061296 Z"></path>
        <path id="path-66" d="M79.1217961,28.8459707 L68.5559329,29.6646509 C66.6877573,29.8095825 64.4437542,28.8724932 63.5461546,27.5749307 L60.3825396,23.0011231 C59.4825383,21.6997981 60.2619252,20.5301566 62.1388449,20.3879633 L72.7156347,19.5877113 C74.5859738,19.4463823 76.8311424,20.3853853 77.7274631,21.6807872 L80.8822468,26.2397003 C81.7785069,27.5347195 80.997009,28.7008524 79.1217961,28.8459707 Z"></path>
        <path id="path-67" d="M59.5624291,30.8028604 L48.999127,31.6254256 C47.1314036,31.7710425 44.885506,30.8306976 43.9851264,29.5284499 L40.8117273,24.9381601 C39.9089467,23.6321549 40.6857126,22.4581586 42.5621737,22.3152653 L53.1363759,21.5110602 C55.0062569,21.3690306 57.2533149,22.3112765 58.1524173,23.6113682 L61.3170065,28.1868186 C62.2160564,29.4865447 61.4371869,30.6570512 59.5624291,30.8028604 Z"></path>
        <path id="path-68" d="M119.072533,24.9362835 L108.501474,25.7470535 C106.63238,25.8905895 104.392272,24.9602018 103.500375,23.6722682 L100.356829,19.1323353 C99.4625294,17.8406292 100.247285,16.6799272 102.125135,16.5391593 L112.707175,15.7469569 C114.578444,15.6070543 116.819728,16.5393818 117.710343,17.8251453 L120.845013,22.3500711 C121.73555,23.6354168 120.948669,24.7925722 119.072533,24.9362835 Z"></path>
        <path id="path-69" d="M139.464174,22.983925 L128.890479,23.7906681 C127.02092,23.9334937 124.782811,23.006553 123.893838,21.7235647 L120.760581,17.2010297 C119.869203,15.914264 120.656706,14.7581482 122.535029,14.618106 L133.119732,13.8300016 C134.991473,13.6908252 137.230762,14.6197189 138.118451,15.9005321 L141.242811,20.4080025 C142.130415,21.68838 141.340778,22.8409299 139.464174,22.983925 Z"></path>
        <path id="path-70" d="M99.5015803,26.8752422 L88.9331064,27.6899599 C87.0644698,27.8341924 84.8224589,26.9005296 83.9277684,25.6078758 L80.7743912,21.0513373 C79.8772982,19.7549159 80.6594179,18.5898216 82.5368052,18.4483426 L93.1162334,17.6521244 C94.9870396,17.5115101 97.2302212,18.4471 98.123631,19.7375883 L101.268154,24.2791748 C102.161495,25.5692625 101.377257,26.7308287 99.5015803,26.8752422 Z"></path>
        <path id="path-71" d="M178.621229,19.8402441 L168.04315,20.640366 C166.172817,20.7820235 163.938713,19.8619881 163.055434,18.5886526 L159.94222,14.1000772 C159.056537,12.8229549 159.849286,11.6756149 161.728395,11.5367697 L172.317537,10.7554258 C174.190063,10.6174475 176.425358,11.5394606 177.307348,12.8106111 L180.411621,17.2840094 C181.29351,18.5546896 180.498612,19.6984269 178.621229,19.8402441 Z"></path>
        <path id="path-72" d="M218.627885,16.0173633 L208.044491,16.8092706 C206.17322,16.9494787 203.943049,16.0362471 203.065543,14.7727201 L199.972646,10.3186527 C199.092734,9.05132961 199.890926,7.91311877 201.770987,7.77575295 L212.365497,7.0027624 C214.238974,6.86626435 216.470345,7.78149901 217.346559,9.04283109 L220.43047,13.4816092 C221.306567,14.7424362 220.506213,15.877007 218.627885,16.0173633 Z"></path>
        <path id="path-73" d="M199.029156,17.9130987 L188.448407,18.7091038 C186.577602,18.8500349 184.345511,17.9334784 183.465177,16.6651435 L180.362327,12.1941609 C179.479588,10.9220344 180.275108,9.77933849 182.154695,9.64123493 L192.746535,8.86407871 C194.619539,8.72684254 196.852826,9.64538967 197.73187,10.9115345 L200.825756,15.3672826 C201.70469,16.6329394 200.907015,17.7720136 199.029156,17.9130987 Z"></path>
        <path id="path-74" d="M258.658581,12.2323185 L248.069823,13.0158854 C246.197605,13.1546218 243.971384,12.248234 243.099679,10.9945869 L240.027196,6.575279 C239.153083,5.3178268 239.956747,4.18882111 241.837768,4.05295695 L252.437696,3.2884454 C254.312132,3.15344971 256.539563,4.06186578 257.409973,5.313308 L260.473426,9.7172145 C261.343703,10.9681169 260.537862,12.0934454 258.658581,12.2323185 Z"></path>
        <path id="path-75" d="M298.689781,9.15795384 L288.096472,9.93451924 C286.223449,10.0720203 284.001379,9.17283183 283.135578,7.92926615 L280.083875,3.54542784 C279.215665,2.29804836 280.024769,1.17822114 281.906606,1.04362188 L292.511142,0.286253405 C294.386394,0.152523527 296.609684,1.05376476 297.474186,2.29511489 L300.516815,6.66343744 C301.381166,7.90421275 300.569871,9.02032608 298.689781,9.15795384 Z"></path>
        <path id="path-76" d="M279.06868,11.0184967 L268.478061,11.7992782 C266.605514,11.9375233 264.381506,11.0349696 263.51285,9.78652547 L260.451097,5.38552343 C259.580033,4.13326976 260.386436,3.00888322 262.267792,2.87352525 L272.869611,2.11187306 C274.744381,1.97738421 276.969604,2.88197845 277.836963,4.12821196 L280.889663,8.51375292 C281.75688,9.75942854 280.948292,10.8801192 279.06868,11.0184967 Z"></path>
        <path id="path-77" d="M239.02901,14.7897531 L228.443776,15.5789272 C226.572179,15.7186532 224.344213,14.8092322 223.469741,13.5508703 L220.387521,9.11497449 C219.510642,7.85281173 220.311559,6.71918161 222.191951,6.58231273 L232.788331,5.81212943 C234.662139,5.67612901 236.891311,6.58756539 237.764489,7.84372688 L240.8377,12.2642736 C241.710752,13.5199118 240.907666,14.6498831 239.02901,14.7897531 Z"></path>
        <path id="path-78" d="M159.034331,21.7545402 L148.458872,22.5586977 C146.589002,22.7010672 144.352983,21.7777263 143.466891,20.4996178 L140.343772,15.9942504 C139.455275,14.7123597 140.245368,13.5605719 142.124007,13.421 L152.710503,12.6355525 C154.582561,12.4968472 156.819765,13.4221532 157.704571,14.6980814 L160.818769,19.1883267 C161.703482,20.4638017 160.911249,21.6120053 159.034331,21.7545402 Z"></path>
        <path id="path-79" d="M9.90255515,35.5731943 C8.03572984,35.7201656 5.78605437,34.7733375 4.88013461,33.4617708 L1.6872379,28.8386978 C0.778918664,27.5233838 1.55046397,26.3407331 3.42601424,26.1964564 L13.9950775,25.3844383 C15.8640485,25.241024 18.1148743,26.1897271 19.0195204,27.4991467 L22.20365,32.1074908 C23.1082595,33.4165794 22.3346253,34.5957779 20.4607713,34.7429526 L9.90255515,35.5731943 Z"></path>
        <path id="path-80" d="M19.9954103,57.2091946 C19.9578767,57.5728651 20.0738415,57.9791371 20.3633612,58.397967 L27.9910646,69.4297652 C28.8885045,70.7274157 31.1250294,71.6537201 32.9834041,71.4943289 L48.7309303,70.1455972 C50.5865055,69.9868992 51.3705127,68.8089133 50.4748495,67.5146288 L42.8748758,56.5296286 C41.9781393,55.2331811 39.7388367,54.3022855 37.8768807,54.4557165 L34.3190877,54.7496116 C33.7558559,54.6284445 33.1822553,54.581344 32.6405866,54.6259879 L22.105601,55.4952986 C20.6958334,55.6117574 19.9100566,56.3124293 19.9954103,57.2091946 Z"></path>
    </defs>
    <g id="Page-1" stroke="none" stroke-width="1" fill="none" fill-rule="evenodd" sketch:type="MSPage">
        <g id="main-site" sketch:type="MSArtboardGroup" transform="translate(-316.000000, -797.000000)">
            <g id="active-bridge" sketch:type="MSLayerGroup" transform="translate(51.000000, 89.000000)">
                <g id="laptop-container" transform="translate(0.000000, 329.000000)">
                    <g id="laptop">
                        <g id="keyboard" transform="translate(439.601972, 487.661674) rotate(-27.000000) translate(-439.601972, -487.661674) translate(260.601972, 424.661674)">
                            <g id="Path">
                                <use fill="none" sketch:type="MSShapeGroup" xlink:href="#path-1"></use>
                                <use fill-opacity="0.05" fill="#000000" fill-rule="evenodd" xlink:href="#path-1"></use>
                            </g>
                            <g id="Path">
                                <use fill="none" sketch:type="MSShapeGroup" xlink:href="#path-2"></use>
                                <use fill-opacity="0.05" fill="#000000" fill-rule="evenodd" xlink:href="#path-2"></use>
                            </g>
                            <g id="Path">
                                <use fill="none" sketch:type="MSShapeGroup" xlink:href="#path-3"></use>
                                <use fill-opacity="0.05" fill="#000000" fill-rule="evenodd" xlink:href="#path-3"></use>
                            </g>
                            <g id="Path">
                                <use fill="none" sketch:type="MSShapeGroup" xlink:href="#path-4"></use>
                                <use fill-opacity="0.05" fill="#000000" fill-rule="evenodd" xlink:href="#path-4"></use>
                            </g>
                            <g id="Path">
                                <use fill="none" sketch:type="MSShapeGroup" xlink:href="#path-5"></use>
                                <use fill-opacity="0.05" fill="#000000" fill-rule="evenodd" xlink:href="#path-5"></use>
                            </g>
                            <g id="Path">
                                <use fill="none" sketch:type="MSShapeGroup" xlink:href="#path-6"></use>
                                <use fill-opacity="0.05" fill="#000000" fill-rule="evenodd" xlink:href="#path-6"></use>
                            </g>
                            <g id="Path">
                                <use fill="none" sketch:type="MSShapeGroup" xlink:href="#path-7"></use>
                                <use fill-opacity="0.05" fill="#000000" fill-rule="evenodd" xlink:href="#path-7"></use>
                            </g>
                            <g id="Path">
                                <use fill="none" sketch:type="MSShapeGroup" xlink:href="#path-8"></use>
                                <use fill-opacity="0.05" fill="#000000" fill-rule="evenodd" xlink:href="#path-8"></use>
                            </g>
                            <g id="Path">
                                <use fill="none" sketch:type="MSShapeGroup" xlink:href="#path-9"></use>
                                <use fill-opacity="0.05" fill="#000000" fill-rule="evenodd" xlink:href="#path-9"></use>
                            </g>
                            <g id="Path">
                                <use fill="none" sketch:type="MSShapeGroup" xlink:href="#path-10"></use>
                                <use fill-opacity="0.05" fill="#000000" fill-rule="evenodd" xlink:href="#path-10"></use>
                            </g>
                            <g id="Path">
                                <use fill="none" sketch:type="MSShapeGroup" xlink:href="#path-11"></use>
                                <use fill-opacity="0.05" fill="#000000" fill-rule="evenodd" xlink:href="#path-11"></use>
                            </g>
                            <g id="Path">
                                <use fill="none" sketch:type="MSShapeGroup" xlink:href="#path-12"></use>
                                <use fill-opacity="0.05" fill="#000000" fill-rule="evenodd" xlink:href="#path-12"></use>
                            </g>
                            <g id="Path">
                                <use fill="none" sketch:type="MSShapeGroup" xlink:href="#path-13"></use>
                                <use fill-opacity="0.05" fill="#000000" fill-rule="evenodd" xlink:href="#path-13"></use>
                            </g>
                            <g id="Path">
                                <use fill="none" sketch:type="MSShapeGroup" xlink:href="#path-14"></use>
                                <use fill-opacity="0.05" fill="#000000" fill-rule="evenodd" xlink:href="#path-14"></use>
                            </g>
                            <g id="Path">
                                <use fill="none" sketch:type="MSShapeGroup" xlink:href="#path-15"></use>
                                <use fill-opacity="0.05" fill="#000000" fill-rule="evenodd" xlink:href="#path-15"></use>
                            </g>
                            <g id="Path">
                                <use fill="none" sketch:type="MSShapeGroup" xlink:href="#path-16"></use>
                                <use fill-opacity="0.05" fill="#000000" fill-rule="evenodd" xlink:href="#path-16"></use>
                            </g>
                            <g id="Path">
                                <use fill="none" sketch:type="MSShapeGroup" xlink:href="#path-17"></use>
                                <use fill-opacity="0.05" fill="#000000" fill-rule="evenodd" xlink:href="#path-17"></use>
                            </g>
                            <g id="Path">
                                <use fill="none" sketch:type="MSShapeGroup" xlink:href="#path-18"></use>
                                <use fill-opacity="0.05" fill="#000000" fill-rule="evenodd" xlink:href="#path-18"></use>
                            </g>
                            <g id="Path">
                                <use fill="none" sketch:type="MSShapeGroup" xlink:href="#path-19"></use>
                                <use fill-opacity="0.05" fill="#000000" fill-rule="evenodd" xlink:href="#path-19"></use>
                            </g>
                            <g id="Path">
                                <use fill="none" sketch:type="MSShapeGroup" xlink:href="#path-20"></use>
                                <use fill-opacity="0.05" fill="#000000" fill-rule="evenodd" xlink:href="#path-20"></use>
                            </g>
                            <g id="Path">
                                <use fill="none" sketch:type="MSShapeGroup" xlink:href="#path-21"></use>
                                <use fill-opacity="0.05" fill="#000000" fill-rule="evenodd" xlink:href="#path-21"></use>
                            </g>
                            <g id="Path">
                                <use fill="none" sketch:type="MSShapeGroup" xlink:href="#path-22"></use>
                                <use fill-opacity="0.05" fill="#000000" fill-rule="evenodd" xlink:href="#path-22"></use>
                            </g>
                            <g id="Path">
                                <use fill="none" sketch:type="MSShapeGroup" xlink:href="#path-23"></use>
                                <use fill-opacity="0.05" fill="#000000" fill-rule="evenodd" xlink:href="#path-23"></use>
                            </g>
                            <g id="Path">
                                <use fill="none" sketch:type="MSShapeGroup" xlink:href="#path-24"></use>
                                <use fill-opacity="0.05" fill="#000000" fill-rule="evenodd" xlink:href="#path-24"></use>
                            </g>
                            <g id="Path">
                                <use fill="none" sketch:type="MSShapeGroup" xlink:href="#path-25"></use>
                                <use fill-opacity="0.05" fill="#000000" fill-rule="evenodd" xlink:href="#path-25"></use>
                            </g>
                            <g id="Path">
                                <use fill="none" sketch:type="MSShapeGroup" xlink:href="#path-26"></use>
                                <use fill-opacity="0.05" fill="#000000" fill-rule="evenodd" xlink:href="#path-26"></use>
                            </g>
                            <g id="Path">
                                <use fill="none" sketch:type="MSShapeGroup" xlink:href="#path-27"></use>
                                <use fill-opacity="0.05" fill="#000000" fill-rule="evenodd" xlink:href="#path-27"></use>
                            </g>
                            <g id="Path">
                                <use fill="none" sketch:type="MSShapeGroup" xlink:href="#path-28"></use>
                                <use fill-opacity="0.05" fill="#000000" fill-rule="evenodd" xlink:href="#path-28"></use>
                            </g>
                            <g id="Path">
                                <use fill="none" sketch:type="MSShapeGroup" xlink:href="#path-29"></use>
                                <use fill-opacity="0.05" fill="#000000" fill-rule="evenodd" xlink:href="#path-29"></use>
                            </g>
                            <g id="Path">
                                <use fill="none" sketch:type="MSShapeGroup" xlink:href="#path-30"></use>
                                <use fill-opacity="0.05" fill="#000000" fill-rule="evenodd" xlink:href="#path-30"></use>
                            </g>
                            <g id="Path">
                                <use fill="none" sketch:type="MSShapeGroup" xlink:href="#path-31"></use>
                                <use fill-opacity="0.05" fill="#000000" fill-rule="evenodd" xlink:href="#path-31"></use>
                            </g>
                            <g id="Path">
                                <use fill="none" sketch:type="MSShapeGroup" xlink:href="#path-32"></use>
                                <use fill-opacity="0.05" fill="#000000" fill-rule="evenodd" xlink:href="#path-32"></use>
                            </g>
                            <g id="Path">
                                <use fill="none" sketch:type="MSShapeGroup" xlink:href="#path-33"></use>
                                <use fill-opacity="0.05" fill="#000000" fill-rule="evenodd" xlink:href="#path-33"></use>
                            </g>
                            <g id="Path">
                                <use fill="none" sketch:type="MSShapeGroup" xlink:href="#path-34"></use>
                                <use fill-opacity="0.05" fill="#000000" fill-rule="evenodd" xlink:href="#path-34"></use>
                            </g>
                            <g id="Path">
                                <use fill="none" sketch:type="MSShapeGroup" xlink:href="#path-35"></use>
                                <use fill-opacity="0.05" fill="#000000" fill-rule="evenodd" xlink:href="#path-35"></use>
                            </g>
                            <g id="Path">
                                <use fill="none" sketch:type="MSShapeGroup" xlink:href="#path-36"></use>
                                <use fill-opacity="0.05" fill="#000000" fill-rule="evenodd" xlink:href="#path-36"></use>
                            </g>
                            <g id="Path">
                                <use fill="none" sketch:type="MSShapeGroup" xlink:href="#path-37"></use>
                                <use fill-opacity="0.05" fill="#000000" fill-rule="evenodd" xlink:href="#path-37"></use>
                            </g>
                            <g id="Path">
                                <use fill="none" sketch:type="MSShapeGroup" xlink:href="#path-38"></use>
                                <use fill-opacity="0.05" fill="#000000" fill-rule="evenodd" xlink:href="#path-38"></use>
                            </g>
                            <g id="Path">
                                <use fill="none" sketch:type="MSShapeGroup" xlink:href="#path-39"></use>
                                <use fill-opacity="0.05" fill="#000000" fill-rule="evenodd" xlink:href="#path-39"></use>
                            </g>
                            <g id="Path">
                                <use fill="none" sketch:type="MSShapeGroup" xlink:href="#path-40"></use>
                                <use fill-opacity="0.05" fill="#000000" fill-rule="evenodd" xlink:href="#path-40"></use>
                            </g>
                            <g id="Path">
                                <use fill="none" sketch:type="MSShapeGroup" xlink:href="#path-41"></use>
                                <use fill-opacity="0.05" fill="#000000" fill-rule="evenodd" xlink:href="#path-41"></use>
                            </g>
                            <g id="Path">
                                <use fill="none" sketch:type="MSShapeGroup" xlink:href="#path-42"></use>
                                <use fill-opacity="0.05" fill="#000000" fill-rule="evenodd" xlink:href="#path-42"></use>
                            </g>
                            <g id="Path">
                                <use fill="none" sketch:type="MSShapeGroup" xlink:href="#path-43"></use>
                                <use fill-opacity="0.05" fill="#000000" fill-rule="evenodd" xlink:href="#path-43"></use>
                            </g>
                            <g id="Path">
                                <use fill="none" sketch:type="MSShapeGroup" xlink:href="#path-44"></use>
                                <use fill-opacity="0.05" fill="#000000" fill-rule="evenodd" xlink:href="#path-44"></use>
                            </g>
                            <g id="Path">
                                <use fill="none" sketch:type="MSShapeGroup" xlink:href="#path-45"></use>
                                <use fill-opacity="0.05" fill="#000000" fill-rule="evenodd" xlink:href="#path-45"></use>
                            </g>
                            <g id="Path">
                                <use fill="none" sketch:type="MSShapeGroup" xlink:href="#path-46"></use>
                                <use fill-opacity="0.05" fill="#000000" fill-rule="evenodd" xlink:href="#path-46"></use>
                            </g>
                            <g id="Path">
                                <use fill="none" sketch:type="MSShapeGroup" xlink:href="#path-47"></use>
                                <use fill-opacity="0.05" fill="#000000" fill-rule="evenodd" xlink:href="#path-47"></use>
                            </g>
                            <g id="Path">
                                <use fill="none" sketch:type="MSShapeGroup" xlink:href="#path-48"></use>
                                <use fill-opacity="0.05" fill="#000000" fill-rule="evenodd" xlink:href="#path-48"></use>
                            </g>
                            <g id="Path">
                                <use fill="none" sketch:type="MSShapeGroup" xlink:href="#path-49"></use>
                                <use fill-opacity="0.05" fill="#000000" fill-rule="evenodd" xlink:href="#path-49"></use>
                            </g>
                            <g id="Path">
                                <use fill="none" sketch:type="MSShapeGroup" xlink:href="#path-50"></use>
                                <use fill-opacity="0.05" fill="#000000" fill-rule="evenodd" xlink:href="#path-50"></use>
                            </g>
                            <g id="Path">
                                <use fill="none" sketch:type="MSShapeGroup" xlink:href="#path-51"></use>
                                <use fill-opacity="0.05" fill="#000000" fill-rule="evenodd" xlink:href="#path-51"></use>
                            </g>
                            <g id="Path">
                                <use fill="none" sketch:type="MSShapeGroup" xlink:href="#path-52"></use>
                                <use fill-opacity="0.05" fill="#000000" fill-rule="evenodd" xlink:href="#path-52"></use>
                            </g>
                            <g id="Path">
                                <use fill="none" sketch:type="MSShapeGroup" xlink:href="#path-53"></use>
                                <use fill-opacity="0.05" fill="#000000" fill-rule="evenodd" xlink:href="#path-53"></use>
                            </g>
                            <g id="Path">
                                <use fill="none" sketch:type="MSShapeGroup" xlink:href="#path-54"></use>
                                <use fill-opacity="0.05" fill="#000000" fill-rule="evenodd" xlink:href="#path-54"></use>
                            </g>
                            <g id="Path">
                                <use fill="none" sketch:type="MSShapeGroup" xlink:href="#path-55"></use>
                                <use fill-opacity="0.05" fill="#000000" fill-rule="evenodd" xlink:href="#path-55"></use>
                            </g>
                            <g id="Path">
                                <use fill="none" sketch:type="MSShapeGroup" xlink:href="#path-56"></use>
                                <use fill-opacity="0.05" fill="#000000" fill-rule="evenodd" xlink:href="#path-56"></use>
                            </g>
                            <g id="Path">
                                <use fill="none" sketch:type="MSShapeGroup" xlink:href="#path-57"></use>
                                <use fill-opacity="0.05" fill="#000000" fill-rule="evenodd" xlink:href="#path-57"></use>
                            </g>
                            <g id="Path">
                                <use fill="none" sketch:type="MSShapeGroup" xlink:href="#path-58"></use>
                                <use fill-opacity="0.05" fill="#000000" fill-rule="evenodd" xlink:href="#path-58"></use>
                            </g>
                            <g id="Path">
                                <use fill="none" sketch:type="MSShapeGroup" xlink:href="#path-59"></use>
                                <use fill-opacity="0.05" fill="#000000" fill-rule="evenodd" xlink:href="#path-59"></use>
                            </g>
                            <g id="Path">
                                <use fill="none" sketch:type="MSShapeGroup" xlink:href="#path-60"></use>
                                <use fill-opacity="0.05" fill="#000000" fill-rule="evenodd" xlink:href="#path-60"></use>
                            </g>
                            <g id="Path">
                                <use fill="none" sketch:type="MSShapeGroup" xlink:href="#path-61"></use>
                                <use fill-opacity="0.05" fill="#000000" fill-rule="evenodd" xlink:href="#path-61"></use>
                            </g>
                            <g id="Path">
                                <use fill="none" sketch:type="MSShapeGroup" xlink:href="#path-62"></use>
                                <use fill-opacity="0.05" fill="#000000" fill-rule="evenodd" xlink:href="#path-62"></use>
                            </g>
                            <g id="Path">
                                <use fill="none" sketch:type="MSShapeGroup" xlink:href="#path-63"></use>
                                <use fill-opacity="0.05" fill="#000000" fill-rule="evenodd" xlink:href="#path-63"></use>
                            </g>
                            <g id="Path">
                                <use fill="none" sketch:type="MSShapeGroup" xlink:href="#path-64"></use>
                                <use fill-opacity="0.05" fill="#000000" fill-rule="evenodd" xlink:href="#path-64"></use>
                            </g>
                            <g id="Path">
                                <use fill="none" sketch:type="MSShapeGroup" xlink:href="#path-65"></use>
                                <use fill-opacity="0.05" fill="#000000" fill-rule="evenodd" xlink:href="#path-65"></use>
                            </g>
                            <g id="Path">
                                <use fill="none" sketch:type="MSShapeGroup" xlink:href="#path-66"></use>
                                <use fill-opacity="0.05" fill="#000000" fill-rule="evenodd" xlink:href="#path-66"></use>
                            </g>
                            <g id="Path">
                                <use fill="none" sketch:type="MSShapeGroup" xlink:href="#path-67"></use>
                                <use fill-opacity="0.05" fill="#000000" fill-rule="evenodd" xlink:href="#path-67"></use>
                            </g>
                            <g id="Path">
                                <use fill="none" sketch:type="MSShapeGroup" xlink:href="#path-68"></use>
                                <use fill-opacity="0.05" fill="#000000" fill-rule="evenodd" xlink:href="#path-68"></use>
                            </g>
                            <g id="Path">
                                <use fill="none" sketch:type="MSShapeGroup" xlink:href="#path-69"></use>
                                <use fill-opacity="0.05" fill="#000000" fill-rule="evenodd" xlink:href="#path-69"></use>
                            </g>
                            <g id="Path">
                                <use fill="none" sketch:type="MSShapeGroup" xlink:href="#path-70"></use>
                                <use fill-opacity="0.05" fill="#000000" fill-rule="evenodd" xlink:href="#path-70"></use>
                            </g>
                            <g id="Path">
                                <use fill="none" sketch:type="MSShapeGroup" xlink:href="#path-71"></use>
                                <use fill-opacity="0.05" fill="#000000" fill-rule="evenodd" xlink:href="#path-71"></use>
                            </g>
                            <g id="Path">
                                <use fill="none" sketch:type="MSShapeGroup" xlink:href="#path-72"></use>
                                <use fill-opacity="0.05" fill="#000000" fill-rule="evenodd" xlink:href="#path-72"></use>
                            </g>
                            <g id="Path">
                                <use fill="none" sketch:type="MSShapeGroup" xlink:href="#path-73"></use>
                                <use fill-opacity="0.05" fill="#000000" fill-rule="evenodd" xlink:href="#path-73"></use>
                            </g>
                            <g id="Path">
                                <use fill="none" sketch:type="MSShapeGroup" xlink:href="#path-74"></use>
                                <use fill-opacity="0.05" fill="#000000" fill-rule="evenodd" xlink:href="#path-74"></use>
                            </g>
                            <g id="Path">
                                <use fill="none" sketch:type="MSShapeGroup" xlink:href="#path-75"></use>
                                <use fill-opacity="0.05" fill="#000000" fill-rule="evenodd" xlink:href="#path-75"></use>
                            </g>
                            <g id="Path">
                                <use fill="none" sketch:type="MSShapeGroup" xlink:href="#path-76"></use>
                                <use fill-opacity="0.05" fill="#000000" fill-rule="evenodd" xlink:href="#path-76"></use>
                            </g>
                            <g id="Path">
                                <use fill="none" sketch:type="MSShapeGroup" xlink:href="#path-77"></use>
                                <use fill-opacity="0.05" fill="#000000" fill-rule="evenodd" xlink:href="#path-77"></use>
                            </g>
                            <g id="Path">
                                <use fill="none" sketch:type="MSShapeGroup" xlink:href="#path-78"></use>
                                <use fill-opacity="0.05" fill="#000000" fill-rule="evenodd" xlink:href="#path-78"></use>
                            </g>
                            <g id="Path">
                                <use fill="none" sketch:type="MSShapeGroup" xlink:href="#path-79"></use>
                                <use fill-opacity="0.05" fill="#000000" fill-rule="evenodd" xlink:href="#path-79"></use>
                            </g>
                            <g id="Path">
                                <use fill="none" sketch:type="MSShapeGroup" xlink:href="#path-80"></use>
                                <use fill-opacity="0.05" fill="#000000" fill-rule="evenodd" xlink:href="#path-80"></use>
                            </g>
                        </g>
                    </g>
                </g>
            </g>
        </g>
    </g>
</svg>