<svg xmlns="http://www.w3.org/2000/svg" width="258" height="292" xmlns:xlink="http://www.w3.org/1999/xlink">
  <defs>
    <linearGradient id="b" x1="0%" x2="50%" y1="0%" y2="100%">
      <stop stop-color="#B64E95" offset="0%"/>
      <stop stop-color="#7B50B9" offset="100%"/>
    </linearGradient>
    <path id="a" d="M245.436 219.59c2.782-.99 4.564-3.92 4.564-8.338v-95.998c0-7.72-5.453-17.087-12.18-20.898L74.705 1.932c-1.767-1-3.41-1.327-4.782-1.066l-.19-.23-.957.615c-.26.132-.507.29-.737.474L19.44 32.91 68.13 169.5l130.662 82.487 46.644-32.398z"/>
    <linearGradient id="c" x1="172.408%" x2="5.317%" y1="-53.842%" y2="88.107%">
      <stop stop-color="#FFF" offset="0%"/>
      <stop stop-color="#FFF" stop-opacity="0" offset="100%"/>
    </linearGradient>
    <linearGradient id="e" x1="50%" x2="127.836%" y1="0%" y2="166.572%">
      <stop stop-color="#EFF0F1" offset="0%"/>
      <stop stop-color="#A8B8BD" offset="100%"/>
    </linearGradient>
    <linearGradient id="g" x1="50%" x2="-10.93%" y1="100%" y2="29.744%">
      <stop stop-color="#9A5DB2" offset="0%"/>
      <stop stop-color="#BD5AA8" offset="100%"/>
    </linearGradient>
    <path id="f" d="M189.82 125.356c6.727 3.81 12.18 13.177 12.18 20.898v98.992c0 6.077-4.333 8.666-9.682 5.78L26.798 161.74c-4.86-2.62-8.798-9.223-8.798-14.746V38.002c0-5.524 3.896-7.794 8.705-5.07l163.115 92.424z"/>
    <linearGradient id="h" x1="25.387%" x2="272.452%" y1="0%" y2="168.778%">
      <stop stop-color="#EFF0F1" offset="0%"/>
      <stop stop-color="#A8B8BD" offset="100%"/>
    </linearGradient>
    <linearGradient id="j" x1="119.179%" x2="133.18%" y1="-12.563%" y2="120.966%">
      <stop stop-color="#A84E9E" offset="0%"/>
      <stop stop-color="#9E5CAF" offset="100%"/>
    </linearGradient>
    <linearGradient id="k" x1="50%" x2="0%" y1="0%" y2="263.541%">
      <stop stop-color="#EFF0F1" offset="0%"/>
      <stop stop-color="#A8B8BD" offset="100%"/>
    </linearGradient>
    <path id="l" d="M68.44 156.922c5.704-17.314-2.56-39.073-18.462-48.585-15.905-9.506-33.218-3.843-38.666 12.633-5.445 16.466 2.83 38.187 18.478 48.53 15.647 10.35 32.948 4.726 38.65-12.578z"/>
    <linearGradient id="n" x1="95.913%" x2="61.255%" y1="0%" y2="71.57%">
      <stop stop-color="#FFF" offset="0%"/>
      <stop stop-color="#FFF" stop-opacity="0" offset="100%"/>
    </linearGradient>
  </defs>
  <g fill="none" fill-rule="evenodd">
    <path fill="#000" fill-opacity=".1" d="M109.15 201.717L82.38 219.545l-60.504-32.55L52.724 170l56.427 31.717z"/>
    <path fill="#000" d="M258 222.49l-48 33.904-14-7.38 48-33.904 14 7.38z" opacity=".1"/>
    <g transform="translate(8)">
      <mask id="d" fill="#fff">
        <use xlink:href="#a"/>
      </mask>
      <use fill="url(#b)" xlink:href="#a"/>
      <path fill="url(#c)" d="M82.064 2.297L25.532 38.03l156.334 86.343 55.69-35.358s8.964 7.723 11.47 12.19c2.647 4.72 3.99 15.37 3.99 15.37l-51.606 33.646v95.894l55.253-38.328s11.86-102.855 11.86-105.623c0-2.768-186.46-99.866-186.46-99.866z" opacity=".205" mask="url(#d)"/>
      <path fill="url(#e)" d="M250.202 130v74L200 237.546l1.202-75.718 49-31.828z" mask="url(#d)"/>
      <mask id="i" fill="#fff">
        <use xlink:href="#f"/>
      </mask>
      <use xlink:href="#f"/>
      <use fill="url(#g)" xlink:href="#f"/>
      <path fill="url(#h)" d="M203 162.072v74.816L14 135.578V57.76l189 104.312z" mask="url(#i)"/>
      <path fill="#000" fill-opacity=".1" d="M22.1 138.73l80.704 10.673-1.757 52.94-80.79-42.682 1.844-20.93z" mask="url(#i)"/>
      <path fill="url(#j)" d="M48.405 167.275c-21.833-14.432-33.42-44.674-25.98-67.707l-3.785-7.466 13.502-8.242c3.243-3.03 7-5.307 11.1-6.775l.28-.17c9.946-3.38 21.81-2.112 33.164 4.673 22.278 13.326 33.855 43.81 25.864 68.065-3.298 10.007-9.364 17.226-16.894 21.234l-20.52 12.934-5.64-11.124c-3.704-1.2-7.43-3-11.09-5.42z"/>
      <path fill="url(#k)" d="M82.824 162.108c7.992-24.256-3.585-54.74-25.864-68.065-22.28-13.316-46.536-5.383-54.168 17.7-7.628 23.066 3.965 53.496 25.887 67.987 21.92 14.5 46.157 6.62 54.144-17.622z"/>
      <mask id="m" fill="#fff">
        <use xlink:href="#l"/>
      </mask>
      <use fill="#AB5BAC" xlink:href="#l"/>
      <path fill="#6E488E" d="M78.25 149.875c5.697-17.297-2.558-39.034-18.445-48.537-15.89-9.496-33.185-3.84-38.627 12.62-5.44 16.45 2.828 38.15 18.46 48.483 15.63 10.34 32.915 4.722 38.61-12.565z" mask="url(#m)"/>
      <path fill="#D2D6D6" d="M89.904 30.735C89.904 36.405 83.21 41 74.952 41S60 36.404 60 30.735V24.96h2.588c2.69-2.71 7.225-4.49 12.364-4.49 5.14 0 9.673 1.78 12.364 4.49h2.588v5.775z"/>
      <ellipse cx="74.952" cy="24.961" fill="#FFF" rx="14.952" ry="10.265"/>
    </g>
    <path fill="#9A5DB2" d="M161.824 184.758v2.396l-5.036-2.72v13.447l-2.774-1.496v-13.446L149 180.232v-2.397l12.824 6.923zm6.645 11.53c-.14-.446-.334-.87-.578-1.277-.244-.404-.54-.786-.887-1.144-.348-.357-.736-.652-1.165-.883-.444-.24-.847-.38-1.21-.42-.362-.04-.672.006-.93.14-.26.134-.467.344-.622.63-.156.286-.24.64-.256 1.06l5.902 3.186c-.03-.416-.114-.847-.255-1.292zm-5.46 1.158c.127.482.315.946.567 1.393.25.445.57.864.954 1.257.385.392.844.732 1.376 1.02.74.4 1.335.56 1.787.487.45-.075.787-.37 1.01-.886l2.395 1.293c-.133.55-.362.98-.688 1.294-.325.312-.717.51-1.175.597-.46.086-.973.06-1.542-.077-.57-.138-1.165-.374-1.787-.71-.902-.486-1.7-1.066-2.396-1.737-.695-.67-1.283-1.402-1.764-2.194-.48-.792-.843-1.624-1.087-2.495-.245-.87-.367-1.75-.367-2.638 0-.815.13-1.518.388-2.11.26-.593.63-1.037 1.11-1.332.482-.295 1.062-.422 1.742-.38.68.042 1.45.295 2.308.758.902.487 1.712 1.113 2.43 1.877.717.764 1.312 1.585 1.785 2.462.474.876.818 1.776 1.032 2.698.215.922.27 1.783.167 2.585l-8.432-4.55c0 .443.063.906.19 1.388zm19.903 12.65c.08.178.24.33.477.458l.266.144c.104.056.222.105.355.147v1.753c-.088-.018-.202-.047-.343-.086-.14-.04-.285-.083-.432-.134-.148-.05-.296-.107-.444-.173-.147-.065-.273-.125-.376-.18-.518-.28-.947-.615-1.287-1.006-.34-.392-.562-.874-.666-1.448-.502.217-1.12.24-1.85.065-.734-.173-1.44-.443-2.12-.81-.518-.28-1.014-.618-1.487-1.014-.473-.396-.89-.83-1.253-1.298-.363-.47-.65-.972-.866-1.51-.214-.537-.32-1.087-.32-1.65 0-.71.128-1.216.387-1.52.26-.304.6-.468 1.02-.492.423-.023.896.05 1.42.223.527.173 1.055.373 1.588.6.458.16.895.333 1.31.52.413.186.78.32 1.097.404.318.083.57.082.754-.004.184-.085.277-.312.277-.682 0-.325-.078-.633-.233-.924-.156-.29-.348-.554-.577-.79-.23-.233-.484-.445-.766-.634-.28-.188-.546-.35-.797-.486-.71-.384-1.294-.55-1.753-.503-.46.05-.717.367-.777.957l-2.53-1.366c.045-.715.223-1.233.534-1.554.31-.32.706-.5 1.187-.535.48-.037 1.024.05 1.63.258.607.21 1.228.485 1.864.83.562.302 1.117.66 1.664 1.074.547.414 1.04.872 1.476 1.374.436.5.787 1.035 1.053 1.6.268.566.4 1.15.4 1.758v5.902c0 .31.04.554.123.73zm-4.072-5.602c-.56-.252-1.123-.478-1.685-.678-.266-.1-.525-.176-.776-.23-.253-.055-.475-.063-.667-.027-.192.036-.344.14-.455.308-.11.17-.166.417-.166.743 0 .282.08.562.244.842.163.28.36.538.588.773.23.234.48.448.754.64s.522.348.744.468c.28.15.584.278.91.38.325.1.632.14.92.12.288-.022.53-.118.72-.288.193-.17.29-.454.29-.854v-1.885c-.385.044-.858-.06-1.42-.31zm9.076-1.28v1.596l.067.036c.192-.177.4-.324.62-.44.223-.118.47-.184.744-.2.274-.014.588.027.943.122s.762.267 1.22.515c.695.375 1.343.88 1.942 1.513.6.634 1.024 1.345 1.275 2.13.43-.36.925-.557 1.487-.594.562-.037 1.265.172 2.108.627 1.213.654 2.155 1.46 2.828 2.414.674.955 1.01 2.127 1.01 3.518v7.92l-2.53-1.365v-6.7c0-.46-.014-.885-.044-1.278-.03-.394-.114-.765-.255-1.115-.14-.35-.35-.674-.63-.973-.282-.3-.667-.582-1.155-.845-.858-.463-1.48-.532-1.864-.207-.383.325-.575.975-.575 1.95v6.724l-2.53-1.365v-7.367c0-.8-.144-1.48-.432-2.042-.29-.562-.818-1.05-1.587-1.466-.325-.175-.64-.278-.943-.31-.303-.03-.57.02-.798.147-.23.128-.415.34-.555.633-.14.294-.21.678-.21 1.15v6.812l-2.53-1.365v-11.47l2.396 1.293z"/>
    <path fill="#9D54A2" d="M197.428 131.303c3.672 2.12 5.968 7.364 5.13 11.714-.84 4.35-4.495 6.158-8.167 4.038l-19.264-11.123c-3.67-2.12-5.968-7.363-5.13-11.714.84-4.35 4.495-6.157 8.167-4.037l19.265 11.123z"/>
    <path fill="#FFF" d="M197.428 131.303c3.672 2.12 5.968 7.364 5.13 11.714-.84 4.35-4.495 6.158-8.167 4.038l-19.264-11.123c-3.67-2.12-5.968-7.363-5.13-11.714.84-4.35 4.495-6.157 8.167-4.037l19.265 11.123z"/>
    <path fill="url(#n)" d="M189.216 119.98c-.953-.556-2.58-.738-3.64-.405L.198 177.935 212.59 294.45s2.66-102.13 2.212-153.196c-.026-3.02-4.106-8.722-4.106-8.722l-21.48-12.55z" transform="translate(-12)"/>
  </g>
</svg>
