<?xml version="1.0" encoding="UTF-8" standalone="no"?>
<svg width="258px" height="292px" viewBox="0 0 258 292" version="1.1" xmlns="http://www.w3.org/2000/svg" xmlns:xlink="http://www.w3.org/1999/xlink" xmlns:sketch="http://www.bohemiancoding.com/sketch/ns">
    <!-- Generator: Sketch 3.5.1 (25234) - http://www.bohemiancoding.com/sketch -->
    <title>photo-container</title>
    <desc>Created with Sketch.</desc>
    <defs>
        <linearGradient x1="0%" y1="0%" x2="50%" y2="100%" id="linearGradient-1">
            <stop stop-color="#B64E95" offset="0%"></stop>
            <stop stop-color="#7B50B9" offset="100%"></stop>
        </linearGradient>
        <path d="M245.43566,219.588857 C248.217812,218.599898 250,215.669803 250,211.251854 L250,115.254223 C250,107.533167 244.547026,98.1669719 237.820441,94.3556051 L74.7046988,1.93219091 C72.93829,0.931321643 71.2949927,0.604541843 69.9227284,0.8655145 L69.7344853,0.636121752 L68.7762611,1.25100158 C68.5151331,1.38224583 68.2689599,1.54018228 68.0392722,1.72391765 L19.4400517,32.9093958 L68.1312362,169.500886 L198.792026,251.987425 L245.43566,219.588857 Z" id="path-2"></path>
        <linearGradient x1="172.408227%" y1="-53.8416323%" x2="5.31691703%" y2="88.1065971%" id="linearGradient-4">
            <stop stop-color="#FFFFFF" offset="0%"></stop>
            <stop stop-color="#FFFFFF" stop-opacity="0" offset="100%"></stop>
        </linearGradient>
        <linearGradient x1="50%" y1="0%" x2="127.836301%" y2="166.572243%" id="linearGradient-5">
            <stop stop-color="#EFF0F1" offset="0%"></stop>
            <stop stop-color="#A8B8BD" offset="100%"></stop>
        </linearGradient>
        <linearGradient x1="50%" y1="100%" x2="-10.9303317%" y2="29.7438608%" id="linearGradient-6">
            <stop stop-color="#9A5DB2" offset="0%"></stop>
            <stop stop-color="#BD5AA8" offset="100%"></stop>
        </linearGradient>
        <path id="path-7" d="M189.820441,125.355605 C196.547026,129.166972 202,138.533167 202,146.254223 L202,245.245858 C202,251.322936 197.666789,253.911881 192.318083,251.026582 L26.7972465,161.73826 C21.9386614,159.117352 18,152.515006 18,146.991565 L18,38.0011209 C18,32.4776544 21.8962024,30.2076369 26.7046988,32.9321909 L189.820441,125.355605 Z"></path>
        <linearGradient x1="25.3873902%" y1="0%" x2="272.451763%" y2="168.778213%" id="linearGradient-9">
            <stop stop-color="#EFF0F1" offset="0%"></stop>
            <stop stop-color="#A8B8BD" offset="100%"></stop>
        </linearGradient>
        <linearGradient x1="119.178516%" y1="-12.5629601%" x2="133.179791%" y2="120.966054%" id="linearGradient-10">
            <stop stop-color="#A84E9E" offset="0%"></stop>
            <stop stop-color="#9E5CAF" offset="100%"></stop>
        </linearGradient>
        <linearGradient x1="50%" y1="0%" x2="0%" y2="263.541334%" id="linearGradient-11">
            <stop stop-color="#EFF0F1" offset="0%"></stop>
            <stop stop-color="#A8B8BD" offset="100%"></stop>
        </linearGradient>
        <path id="path-12" d="M68.4394964,156.92186 C74.1437578,139.607784 65.8801012,117.84878 49.9775208,108.336742 C34.0729478,98.8312167 16.7596827,104.493951 11.3118427,120.969835 C5.86707136,137.435688 14.1422597,159.156997 29.7904112,169.500714 C45.4365701,179.850944 62.7383036,174.225905 68.4394964,156.92186 Z"></path>
        <linearGradient x1="95.9126387%" y1="0%" x2="61.2554655%" y2="71.5695216%" id="linearGradient-14">
            <stop stop-color="#FFFFFF" offset="0%"></stop>
            <stop stop-color="#FFFFFF" stop-opacity="0" offset="100%"></stop>
        </linearGradient>
    </defs>
    <g id="Page-1" stroke="none" stroke-width="1" fill="none" fill-rule="evenodd" sketch:type="MSPage">
        <g id="main-site" sketch:type="MSArtboardGroup" transform="translate(-750.000000, -947.000000)">
            <g id="active-bridge" sketch:type="MSLayerGroup" transform="translate(51.000000, 89.000000)">
                <g id="photo-container" transform="translate(687.000000, 858.000000)">
                    <path d="M121.150895,201.716717 L94.3783689,219.544998 L33.8743901,186.993967 L64.7252254,170 L121.150895,201.716717 Z" id="Rectangle-302" fill-opacity="0.1" fill="#000000" sketch:type="MSShapeGroup"></path>
                    <path d="M270,222.489258 L222,256.394118 L208,249.01468 L256,215.109821 L270,222.489258 Z" id="Rectangle-18" opacity="0.100000001" fill="#000000" sketch:type="MSShapeGroup"></path>
                    <g id="photo" transform="translate(20.000000, 0.000000)">
                        <mask id="mask-3" sketch:name="Mask" fill="white">
                            <use xlink:href="#path-2"></use>
                        </mask>
                        <use id="Mask" fill="url(#linearGradient-1)" sketch:type="MSShapeGroup" xlink:href="#path-2"></use>
                        <path d="M82.0635235,2.29663574 L25.5323533,38.0306097 L181.865682,124.373204 L237.557449,89.015072 C237.557449,89.015072 246.519955,96.7381542 249.024556,101.203511 C251.672839,105.925034 253.016103,116.575711 253.016103,116.575711 L201.410252,150.22144 L201.410251,246.114354 L256.663204,207.78642 C256.663204,207.78642 268.522096,104.930729 268.522098,102.163071 C268.522099,99.3954135 82.0635235,2.29663574 82.0635235,2.29663574 Z" id="Path-388" opacity="0.204582556" fill="url(#linearGradient-4)" sketch:type="MSShapeGroup" mask="url(#mask-3)"></path>
                        <path d="M250.202483,130 L250.202483,204 L200,237.546448 L201.202483,161.827538 L250.202483,130 Z" id="Mask" fill="url(#linearGradient-5)" sketch:type="MSShapeGroup" mask="url(#mask-3)"></path>
                        <mask id="mask-8" sketch:name="Mask" fill="white">
                            <use xlink:href="#path-7"></use>
                        </mask>
                        <g id="Mask">
                            <use fill="none" sketch:type="MSShapeGroup" xlink:href="#path-7"></use>
                            <use fill="url(#linearGradient-6)" fill-rule="evenodd" xlink:href="#path-7"></use>
                        </g>
                        <path d="M203,162.072183 L203,236.888426 L14,135.577268 L14,57.7610245 L203,162.072183 Z" id="Rectangle-39" fill="url(#linearGradient-9)" sketch:type="MSShapeGroup" mask="url(#mask-8)"></path>
                        <path d="M22.1010169,138.729659 L102.80378,149.403112 L101.046521,202.344153 L20.2568784,159.660565 L22.1010169,138.729659 Z" id="Path-11164" fill-opacity="0.1" fill="#000000" sketch:type="MSShapeGroup" mask="url(#mask-8)"></path>
                        <path d="M48.4047779,167.274784 C26.5720075,152.84292 14.9843248,122.601343 22.425272,99.568354 L18.6403458,92.102185 L32.1423622,83.8598354 C35.3850592,80.8307629 39.1430279,78.5532309 43.2406156,77.0848694 L43.5205931,76.9139576 C53.4679471,73.5345406 65.332942,74.803 76.685607,81.5880324 C98.964089,94.9137803 110.540935,125.396731 102.549635,149.652626 C99.2524098,159.660241 93.1855264,166.879464 85.6555445,170.886844 L65.1368336,183.821268 L59.4968264,172.695776 C55.7924661,171.494571 52.0662627,169.696925 48.4047779,167.274784 Z" id="Oval-1" fill="url(#linearGradient-10)" sketch:type="MSShapeGroup"></path>
                        <path d="M82.8242907,162.10804 C90.8155903,137.852145 79.2387443,107.369194 56.9602622,94.0434462 C34.6789888,80.726823 10.4242291,88.6599455 2.79215936,111.741588 C-4.83561161,134.80918 6.75738957,165.239322 28.6794332,179.730198 C50.5986854,194.230198 74.8372899,186.349883 82.8242907,162.10804 Z" id="Oval-1" fill="url(#linearGradient-11)" sketch:type="MSShapeGroup"></path>
                        <mask id="mask-13" sketch:name="Mask" fill="white">
                            <use xlink:href="#path-12"></use>
                        </mask>
                        <use id="Mask" fill="#AB5BAC" sketch:type="MSShapeGroup" xlink:href="#path-12"></use>
                        <path d="M78.248607,149.874922 C83.947178,132.578118 75.6917649,110.840821 59.8050485,101.338271 C43.9163415,91.8422284 26.6203476,97.4993134 21.1779424,113.958761 C15.7386025,130.408189 24.0055357,152.10783 39.638077,162.441228 C55.2686278,172.781133 72.5531015,167.161705 78.248607,149.874922 Z" id="Oval-1" fill="#6E488E" sketch:type="MSShapeGroup" mask="url(#mask-13)"></path>
                        <path d="M89.9039445,30.734803 C89.9039445,36.4041148 83.2097185,41 74.9519723,41 C66.694226,41 60,36.4041148 60,30.734803 L60,24.9606297 L62.5879617,24.9606297 C65.2792732,22.2496288 69.8128409,20.469606 74.9519723,20.469606 C80.0911037,20.469606 84.6246713,22.2496288 87.3159828,24.9606297 L89.9039445,24.9606297 L89.9039445,30.734803 Z" id="Oval-1" fill="#D2D6D6" sketch:type="MSShapeGroup"></path>
                        <ellipse id="Oval-1" fill="#FFFFFF" sketch:type="MSShapeGroup" cx="74.9519723" cy="24.9606297" rx="14.9519723" ry="10.265197"></ellipse>
                    </g>
                    <path d="M173.824073,184.757776 L173.824073,187.153969 L168.787629,184.435312 L168.787629,197.880621 L166.014257,196.383563 L166.014257,182.938254 L161,180.231573 L161,177.835379 L173.824073,184.757776 Z M180.469073,196.287665 C180.328555,195.842029 180.13627,195.416526 179.892212,195.011144 C179.648154,194.605761 179.352331,194.224209 179.004733,193.866476 C178.657135,193.508743 178.268867,193.214107 177.839917,192.982561 C177.396175,192.743031 176.993115,192.603114 176.630726,192.562807 C176.268337,192.5225 175.957722,192.569303 175.698873,192.703218 C175.440024,192.837132 175.232947,193.047061 175.077638,193.33301 C174.922328,193.61896 174.837279,193.972412 174.822487,194.393378 L180.724224,197.579118 C180.694641,197.163781 180.609592,196.733302 180.469073,196.287665 Z M175.011077,197.446046 C175.136804,197.928072 175.325391,198.392255 175.576845,198.838608 C175.828298,199.284961 176.146309,199.704374 176.530885,200.096859 C176.915461,200.489345 177.373987,200.829301 177.906477,201.116738 C178.646047,201.515955 179.241392,201.678315 179.692529,201.603823 C180.143667,201.529331 180.480166,201.233957 180.702037,200.717692 L183.09823,202.01115 C182.965108,202.56053 182.735845,202.991443 182.410434,203.303903 C182.085023,203.616364 181.693057,203.815236 181.234524,203.900528 C180.775991,203.985819 180.261998,203.959817 179.692529,203.822521 C179.123061,203.685224 178.527716,203.448908 177.906477,203.113566 C177.004203,202.62652 176.205479,202.04746 175.510284,201.376368 C174.815088,200.705275 174.227139,199.97375 173.746419,199.181768 C173.265699,198.389786 172.903315,197.558153 172.659257,196.686841 C172.415199,195.81553 172.293172,194.936145 172.293172,194.048662 C172.293172,193.235135 172.422595,192.532159 172.681444,191.939711 C172.940293,191.347263 173.310073,190.903453 173.790793,190.608267 C174.271513,190.313081 174.852067,190.186425 175.532471,190.228294 C176.212875,190.270164 176.982016,190.522641 177.839917,190.985733 C178.742191,191.472778 179.552008,192.098502 180.269391,192.862924 C180.986773,193.627345 181.582118,194.447913 182.055442,195.32465 C182.528767,196.201388 182.872662,197.100695 183.087137,198.022599 C183.301612,198.944503 183.357079,199.806448 183.253539,200.608458 L174.822487,196.057401 C174.822487,196.501143 174.88535,196.96402 175.011077,197.446046 Z M194.912796,210.097015 C194.994149,210.274052 195.153154,210.426443 195.389816,210.554192 L195.65606,210.69791 C195.7596,210.7538 195.877929,210.802883 196.011052,210.845159 L196.011052,212.597931 C195.922303,212.579607 195.807672,212.55101 195.667154,212.512137 C195.526635,212.473264 195.382421,212.428698 195.234508,212.378437 C195.086594,212.328176 194.938682,212.270521 194.790768,212.205469 C194.642854,212.140417 194.517129,212.079946 194.413589,212.024056 C193.895891,211.744604 193.466947,211.409523 193.126745,211.018803 C192.786543,210.628084 192.564675,210.145936 192.461135,209.572347 C191.958228,209.788995 191.340696,209.810642 190.608523,209.637287 C189.876349,209.463933 189.17007,209.19362 188.489666,208.82634 C187.971967,208.546887 187.476463,208.209158 187.003139,207.81314 C186.529814,207.417123 186.111963,206.984492 185.749574,206.515234 C185.387185,206.045977 185.098757,205.542692 184.884282,205.005364 C184.669807,204.468036 184.562571,203.918344 184.562571,203.356271 C184.562571,202.646285 184.691994,202.139291 184.950843,201.835275 C185.209692,201.53126 185.549889,201.367304 185.971444,201.343405 C186.392999,201.319505 186.866316,201.393809 187.391411,201.566318 C187.916505,201.738827 188.445289,201.939214 188.97778,202.167485 C189.436313,202.326251 189.872652,202.498923 190.286811,202.685507 C190.70097,202.87209 191.067052,203.006837 191.385067,203.089752 C191.703082,203.172668 191.954532,203.171581 192.139424,203.086493 C192.324316,203.001405 192.416761,202.773972 192.416761,202.404187 C192.416761,202.078777 192.339108,201.770618 192.183798,201.479703 C192.028488,201.188788 191.836203,200.925988 191.606937,200.691295 C191.37767,200.456602 191.122522,200.244918 190.841486,200.056237 C190.560449,199.867556 190.294208,199.705351 190.042755,199.569617 C189.332768,199.186368 188.748516,199.018903 188.289983,199.067216 C187.83145,199.115529 187.572605,199.434331 187.513439,200.023632 L184.984124,198.658315 C185.028498,197.942699 185.205992,197.424676 185.516611,197.104231 C185.82723,196.783786 186.222894,196.605399 186.703614,196.569062 C187.184335,196.532726 187.72791,196.61907 188.334357,196.828097 C188.940804,197.037124 189.562034,197.313297 190.198063,197.656624 C190.760136,197.960029 191.314805,198.318603 191.862087,198.732355 C192.409368,199.146107 192.901175,199.603868 193.337521,200.105651 C193.773867,200.607435 194.125157,201.140955 194.391402,201.706228 C194.657647,202.271501 194.790768,202.857352 194.790768,203.463799 L194.790768,209.365535 C194.790768,209.676155 194.831444,209.919979 194.912796,210.097015 Z M190.841486,204.493633 C190.279413,204.241997 189.717348,204.01625 189.155275,203.816385 C188.88903,203.717041 188.630185,203.640179 188.378731,203.585798 C188.127278,203.531416 187.90541,203.522587 187.713122,203.559308 C187.520834,203.59603 187.369224,203.699081 187.258289,203.868465 C187.147353,204.037849 187.091886,204.285243 187.091886,204.610654 C187.091886,204.89169 187.173238,205.172262 187.335943,205.452378 C187.498649,205.732494 187.694632,205.989895 187.923898,206.224587 C188.153165,206.45928 188.404615,206.672666 188.678255,206.864751 C188.951896,207.056835 189.199648,207.212758 189.421519,207.332523 C189.702556,207.484226 190.005775,207.610924 190.331185,207.712623 C190.656596,207.814322 190.963513,207.85427 191.251945,207.832468 C191.540377,207.810666 191.780734,207.714844 191.973022,207.545 C192.16531,207.375156 192.261452,207.090554 192.261452,206.691187 L192.261452,204.805294 C191.876876,204.849154 191.403559,204.745268 190.841486,204.493633 Z M199.91596,203.212934 L199.91596,204.810396 L199.982521,204.846325 C200.174809,204.669086 200.381885,204.522019 200.603756,204.405122 C200.825627,204.288225 201.073379,204.22228 201.34702,204.207285 C201.620661,204.192291 201.934973,204.232533 202.289967,204.328013 C202.64496,204.423493 203.051717,204.594988 203.51025,204.842503 C204.205446,205.217768 204.85256,205.722385 205.451611,206.356371 C206.050662,206.990356 206.475909,207.700616 206.727362,208.487171 C207.156313,208.127061 207.651817,207.928611 208.21389,207.891814 C208.775963,207.855018 209.478543,208.06417 210.321653,208.519278 C211.534547,209.173995 212.477484,209.978813 213.150492,210.933757 C213.823501,211.8887 214.16,213.06135 214.16,214.451741 L214.16,222.372492 L211.630684,221.007175 L211.630684,214.306708 C211.630684,213.848174 211.615893,213.42234 211.586311,213.02919 C211.556728,212.636041 211.471678,212.264726 211.33116,211.915234 C211.190642,211.565742 210.979868,211.241192 210.698831,210.941576 C210.417795,210.641959 210.033224,210.360413 209.545109,210.09693 C208.687208,209.633838 208.065979,209.564741 207.681402,209.889638 C207.296826,210.214535 207.104541,210.86509 207.104541,211.841322 L207.104541,218.563976 L204.575225,217.198659 L204.575225,209.832582 C204.575225,209.033847 204.431011,208.353261 204.142579,207.790803 C203.854147,207.228344 203.325363,206.73953 202.55621,206.324343 C202.2308,206.148688 201.916487,206.045583 201.613264,206.015026 C201.31004,205.98447 201.043799,206.033039 200.814533,206.160735 C200.585266,206.288431 200.400376,206.499243 200.259858,206.793177 C200.11934,207.08711 200.049082,207.470733 200.049082,207.944058 L200.049082,214.75546 L197.519766,213.390143 L197.519766,201.919475 L199.91596,203.212934 Z" id="Team" fill="#9A5DB2" sketch:type="MSShapeGroup"></path>
                    <path d="M206.776861,126.037874 C211.016466,126.037874 215.627267,129.430589 217.076084,133.617771 C218.524583,137.804032 216.2626,141.197667 212.022339,141.197667 L189.77752,141.197667 C185.537915,141.197667 180.927114,137.804952 179.478297,133.617771 C178.029798,129.431509 180.291781,126.037874 184.532042,126.037874 L206.776861,126.037874 Z" id="Rectangle-10" fill="#9D54A2" sketch:type="MSShapeGroup" transform="translate(198.277191, 133.617771) rotate(30.000000) translate(-198.277191, -133.617771) "></path>
                    <path d="M206.776861,126.037874 C211.016466,126.037874 215.627267,129.430589 217.076084,133.617771 C218.524583,137.804032 216.2626,141.197667 212.022339,141.197667 L189.77752,141.197667 C185.537915,141.197667 180.927114,137.804952 179.478297,133.617771 C178.029798,129.431509 180.291781,126.037874 184.532042,126.037874 L206.776861,126.037874 Z" id="Rectangle-10" fill="#FFFFFF" sketch:type="MSShapeGroup" transform="translate(198.277191, 133.617771) rotate(30.000000) translate(-198.277191, -133.617771) "></path>
                    <path d="M189.215633,119.980718 C188.262802,119.423984 186.634628,119.242067 185.57567,119.575446 L0.197563664,177.935707 L212.591452,294.448517 C212.591452,294.448517 215.249395,192.318781 214.802407,141.253567 C214.775986,138.235221 210.696251,132.531732 210.696251,132.531732 L189.215633,119.980718 Z" id="Path-477" fill="url(#linearGradient-14)" sketch:type="MSShapeGroup"></path>
                </g>
            </g>
        </g>
    </g>
</svg>