<?xml version="1.0" encoding="UTF-8" standalone="no"?>
<svg width="427px" height="521px" viewBox="0 0 427 521" version="1.1" xmlns="http://www.w3.org/2000/svg" xmlns:xlink="http://www.w3.org/1999/xlink" xmlns:sketch="http://www.bohemiancoding.com/sketch/ns">
    <!-- Generator: Sketch 3.5.1 (25234) - http://www.bohemiancoding.com/sketch -->
    <title>projects</title>
    <desc>Created with Sketch.</desc>
    <defs>
        <linearGradient x1="81.7595593%" y1="-5.82553477%" x2="3.52977843%" y2="95.9994088%" id="linearGradient-1">
            <stop stop-color="#EFF0F1" offset="0%"></stop>
            <stop stop-color="#D5DDDF" offset="100%"></stop>
        </linearGradient>
        <path id="path-2" d="M99.6764985,521.330785 L426.701038,311.140148 L426.701038,46.3477258 L322.942361,0.975705544 L0.816292457,200.92009 L1.01207734,465.210249 L99.6764985,521.330785 Z"></path>
        <linearGradient x1="107.523352%" y1="7.21390382%" x2="-74.9538398%" y2="95.0710912%" id="linearGradient-4">
            <stop stop-color="#8950B1" offset="0%"></stop>
            <stop stop-color="#B54E97" offset="100%"></stop>
        </linearGradient>
        <path id="path-5" d="M98.5633935,247.615477 L427.12823,46.5601279 L427.12823,314.994033 L98.5633935,522.365548 L98.5633935,247.615477 Z"></path>
        <linearGradient x1="50%" y1="0%" x2="50%" y2="100%" id="linearGradient-6">
            <stop stop-color="#A05C8C" offset="0%"></stop>
            <stop stop-color="#000000" stop-opacity="0.5" offset="100%"></stop>
        </linearGradient>
        <linearGradient x1="86.9594916%" y1="0%" x2="7.98632923%" y2="94.4157497%" id="linearGradient-7">
            <stop stop-color="#8D50AF" offset="0%"></stop>
            <stop stop-color="#A64FA0" offset="100%"></stop>
        </linearGradient>
        <path id="path-8" d="M379.314004,21.0568164 L54.5974504,224.083881 L53.5974504,495.759696 L46.9027486,491.203283 L48.9027486,220.48612 L374.479812,18.6630523 L379.314004,21.0568164 Z"></path>
        <linearGradient x1="58.2396285%" y1="-10.1441832%" x2="56.5917954%" y2="96.1929506%" id="linearGradient-9">
            <stop stop-color="#B7C4C8" offset="0%"></stop>
            <stop stop-color="#EEF0F1" offset="43.5861858%"></stop>
            <stop stop-color="#A8B8BD" offset="100%"></stop>
        </linearGradient>
        <path id="path-10" d="M142.687099,153.176377 L158.05178,161.357434 L170.962043,154.176374 C170.962043,154.176374 192.884902,94.7985441 238.018119,76.8014178 C262.880822,65.7289197 271.298621,76.4082991 271.298621,76.4082991 L284.798984,84.1763309 L297.997753,75.8605824 C297.997753,75.8605824 270.947935,42.1696819 233.169098,57.2158393 C164.576458,76.8897875 142.687099,153.176377 142.687099,153.176377 Z"></path>
        <linearGradient x1="-67.2013735%" y1="141.811882%" x2="93.913686%" y2="-44.1057021%" id="linearGradient-12">
            <stop stop-color="#B54E96" offset="0%"></stop>
            <stop stop-color="#964FA9" offset="100%"></stop>
        </linearGradient>
    </defs>
    <g id="Page-1" stroke="none" stroke-width="1" fill="none" fill-rule="evenodd" sketch:type="MSPage">
        <g id="main-site" sketch:type="MSArtboardGroup" transform="translate(-1106.000000, -593.000000)">
            <g id="active-bridge" sketch:type="MSLayerGroup" transform="translate(51.000000, 89.000000)">
                <g id="project-container" transform="translate(1055.000000, 503.000000)">
                    <g id="projects">
                        <mask id="mask-3" sketch:name="Mask" fill="white">
                            <use xlink:href="#path-2"></use>
                        </mask>
                        <g id="Mask">
                            <use fill="url(#linearGradient-1)" fill-rule="evenodd" sketch:type="MSShapeGroup" xlink:href="#path-2"></use>
                            <use fill="none" xlink:href="#path-2"></use>
                        </g>
                        <path d="M7.85986505,470.948887 L7.85986505,206.989516 L331.515263,2.27444019 L322.859227,-0.608789227 L-1.17650902,200.367485 L0.787327647,466.691154 L7.85986505,470.948887 Z" id="Path-210" fill-opacity="0.129999995" fill="#4B4958" sketch:type="MSShapeGroup" mask="url(#mask-3)"></path>
                        <g id="Path-184">
                            <use fill="url(#linearGradient-4)" fill-rule="evenodd" sketch:type="MSShapeGroup" mask="url(#mask-3)" xlink:href="#path-5"></use>
                            <use fill="none" xlink:href="#path-5"></use>
                        </g>
                        <g id="Path-185">
                            <use fill="none" sketch:type="MSShapeGroup" mask="url(#mask-3)" xlink:href="#path-8"></use>
                            <use fill-opacity="0.720000029" fill="url(#linearGradient-6)" fill-rule="evenodd" xlink:href="#path-8"></use>
                            <use fill="url(#linearGradient-7)" fill-rule="evenodd" xlink:href="#path-8"></use>
                        </g>
                        <path d="M422.479812,41.6630523 L427.314004,44.0568164 L99.5974504,248.083881 L98.5974504,520.759696 L91.9027486,517.203283 L93.9027486,244.48612 L422.479812,41.6630523 Z" id="Path-185" fill="#C5C9CD" sketch:type="MSShapeGroup" mask="url(#mask-3)"></path>
                        <path d="M144.786904,148.123601 C148.45031,145.539492 154.462404,145.253568 158.197992,147.474685 L174.511916,157.174667 C178.25525,159.40039 178.872241,163.097355 175.137289,165.553359 L167.150437,170.502375 C163.408009,172.963296 157.290088,173.227775 153.483945,171.092132 L137.136022,162.006801 C133.330655,159.871594 133.475459,156.102518 137.136022,153.520414 L137.415504,153.323272 L144.786904,148.123601 Z" id="Rectangle-3" fill="#3F3D4A" sketch:type="MSShapeGroup" mask="url(#mask-3)"></path>
                        <path d="M134.340498,151.965613 L134.340498,158.026567 L177.617864,161.255726 L177.617864,155.952901 L134.340498,151.965613 Z" id="Path-633" fill="#3F3D4A" sketch:type="MSShapeGroup" mask="url(#mask-3)"></path>
                        <path d="M158.197992,141.474685 L174.511916,151.174667 C178.25525,153.40039 179.134219,157.31772 175.399268,159.773724 L167.150437,164.502375 C163.408009,166.963296 157.290088,167.227775 153.483945,165.092132 L137.136644,155.923688 C133.331278,153.78848 133.478927,150.100072 137.136644,147.519975 L145.405023,142.980756 C145.405023,142.980756 154.462404,139.253568 158.197992,141.474685 Z" id="Rectangle-3" fill="#494756" sketch:type="MSShapeGroup" mask="url(#mask-3)"></path>
                        <path d="M272.786904,69.0948824 C276.45031,66.5524998 282.462404,66.3350538 286.197992,68.5987189 L302.511916,78.4845165 C306.25525,80.7528755 306.248506,84.5569909 302.513555,86.970454 L295.150437,91.7283772 C291.408009,94.146672 285.290088,94.3414674 281.483945,92.1624725 L265.394662,82.9514496 C261.589295,80.772899 261.475459,76.9449617 265.136022,74.4045517 L265.415504,74.210593 L272.786904,69.0948824 Z" id="Rectangle-3" fill="#3F3D4A" sketch:type="MSShapeGroup" mask="url(#mask-3)"></path>
                        <path d="M262.480182,72.3529167 L262.480182,79.0821509 L305.277367,83.2901134 L305.277366,76.8417692 L262.480182,72.3529167 Z" id="Path-633" fill="#3F3D4A" sketch:type="MSShapeGroup" mask="url(#mask-3)"></path>
                        <path d="M286.197992,62.5987189 L302.511916,72.4845165 C306.25525,74.7528755 306.248506,78.5569909 302.513555,80.970454 L295.150437,85.7283772 C291.408009,88.146672 285.290088,88.3414674 281.483945,86.1624725 L265.394662,76.9514496 C261.589295,74.772899 261.478927,70.9425553 265.136644,68.40412 L272.787879,63.0942063 C276.450746,60.5521971 282.462404,60.3350538 286.197992,62.5987189 Z" id="Rectangle-3" fill="#494756" sketch:type="MSShapeGroup" mask="url(#mask-3)"></path>
                        <path d="M147.194439,427.105733 C148.023577,427.634158 148.673058,428.412476 149.142903,429.440711 C149.612748,430.468945 149.847666,431.649342 149.847666,432.981935 C149.847666,434.376509 149.626566,435.868258 149.18436,437.457227 C148.742153,439.046195 148.120309,440.598383 147.318809,442.113837 C146.51731,443.629291 145.549997,445.045237 144.416842,446.361717 C143.283688,447.678197 142.04,448.752723 140.685742,449.585328 L133.721021,453.867274 L133.721021,464.93084 L128,468.448153 L128,435.443398 L140.478458,427.771577 C141.832717,426.938973 143.083314,426.487747 144.230287,426.417888 C145.377261,426.348029 146.365302,426.577308 147.194439,427.105733 Z M143.712079,434.499575 C143.490976,433.969214 143.200782,433.582058 142.841489,433.338095 C142.482196,433.094133 142.060724,433.004617 141.57706,433.069547 C141.093397,433.134477 140.602831,433.319867 140.105348,433.625722 L133.721021,437.550839 L133.721021,448.24252 L140.354088,444.164476 C141.404329,443.518783 142.28182,442.498951 142.986587,441.10495 C143.691354,439.710949 144.043732,438.192722 144.043732,436.550223 C144.043732,435.713479 143.933182,435.029936 143.712079,434.499575 Z M173.560883,410.895507 C174.390021,411.423932 175.039502,412.20225 175.509347,413.230485 C175.979191,414.25872 176.21411,415.439116 176.21411,416.771709 C176.21411,418.910056 175.737363,421.147789 174.783855,423.484976 C173.830347,425.822163 172.538293,427.87937 170.907656,429.656657 L177.623637,437.939285 L171.197853,441.88989 L165.186635,434.522052 L159.548528,437.98839 L159.548528,449.051956 L153.827507,452.569269 L153.827507,419.564513 L166.844902,411.561352 C168.19916,410.728747 169.449757,410.277522 170.596731,410.207662 C171.743705,410.137803 172.731746,410.367082 173.560883,410.895507 Z M170.161436,422.584775 C170.354901,421.81503 170.451633,421.058283 170.451633,420.31451 C170.451633,419.539746 170.341083,418.894942 170.119979,418.380076 C169.898876,417.86521 169.601773,417.482302 169.228661,417.23134 C168.855549,416.980378 168.427168,416.871868 167.943504,416.905807 C167.45984,416.939746 166.969275,417.109641 166.471792,417.415496 L159.548528,421.671954 L159.548528,432.363636 L166.720532,427.95425 C167.245653,427.631404 167.736218,427.190346 168.192244,426.631064 C168.64827,426.071782 169.042104,425.450023 169.373759,424.765766 C169.705414,424.08151 169.967971,423.35452 170.161436,422.584775 Z M179.613557,420.213494 C179.613557,418.013166 179.979754,415.680702 180.712159,413.216031 C181.444564,410.751359 182.453333,408.349234 183.738496,406.009582 C185.02366,403.66993 186.550632,401.499285 188.319459,399.49758 C190.088286,397.495875 192.009092,395.85785 194.081936,394.583455 C196.210056,393.275076 198.151591,392.569504 199.906599,392.466718 C201.661607,392.363932 203.160941,392.720473 204.404648,393.536354 C205.648354,394.352234 206.615667,395.554949 207.306615,397.144535 C207.997563,398.734122 208.343032,400.56707 208.343032,402.643436 C208.343032,404.843764 207.983744,407.164233 207.265158,409.604913 C206.546572,412.045593 205.551622,414.423728 204.280278,416.739388 C203.008933,419.055049 201.488871,421.213699 199.720044,423.215404 C197.951217,425.217108 196.03041,426.855134 193.957566,428.129529 C191.801808,429.4549 189.846455,430.184463 188.091447,430.318239 C186.336439,430.452016 184.830195,430.122965 183.57267,429.331076 C182.315144,428.539187 181.340922,427.348467 180.649974,425.758881 C179.959026,424.169294 179.613557,422.320851 179.613557,420.213494 Z M193.999023,422.432802 C195.380919,421.583205 196.603878,420.513675 197.667938,419.224179 C198.731998,417.934684 199.630217,416.537975 200.362622,415.03401 C201.095027,413.530046 201.647777,412.004842 202.020889,410.458353 C202.394001,408.911864 202.580554,407.45685 202.580554,406.093266 C202.580554,404.667701 202.380182,403.411833 201.979432,402.325623 C201.578682,401.239413 201.012114,400.41012 200.279709,399.837719 C199.547304,399.265317 198.649085,399.004057 197.585025,399.053932 C196.520965,399.103806 195.325643,399.536543 193.999023,400.352156 C192.617127,401.201752 191.387258,402.27553 190.309379,403.573522 C189.2315,404.871513 188.333281,406.260475 187.614695,407.740448 C186.896109,409.220421 186.350269,410.73363 185.977157,412.280119 C185.604045,413.826608 185.417492,415.281622 185.417492,416.645205 C185.417492,418.07077 185.610954,419.330886 185.997885,420.425592 C186.384816,421.520298 186.944475,422.353839 187.67688,422.926241 C188.409285,423.498642 189.307504,423.767649 190.371564,423.733271 C191.435624,423.698892 192.644765,423.265406 193.999023,422.432802 Z M219.246136,404.447011 C219.605429,403.296399 219.840348,401.99759 219.9509,400.550543 C220.061452,399.103497 220.116727,397.450282 220.116727,395.59085 L220.116727,378.809559 L225.837747,375.292246 L225.837747,392.073537 C225.837747,394.58377 225.720288,396.941503 225.485366,399.146805 C225.250443,401.352107 224.752968,403.416644 223.992925,405.340477 C223.232883,407.26431 222.134292,409.070867 220.69712,410.760202 C219.259948,412.449536 217.325323,414.041825 214.893186,415.537115 C212.405773,417.06639 210.277685,417.692967 208.508858,417.416868 L209.794015,411.420363 C210.180946,411.492381 210.830427,411.433967 211.742479,411.24512 C212.65453,411.056272 213.704755,410.596529 214.893186,409.865876 C216.053978,409.152214 216.979835,408.358315 217.670783,407.484154 C218.361731,406.609993 218.886843,405.597622 219.246136,404.447011 Z M251.706711,359.387874 L251.706711,365.012628 L237.362702,373.831398 L237.362702,381.780431 L249.758247,374.159586 L249.758247,379.36597 L237.362702,386.986815 L237.362702,395.586645 L252.079821,386.538485 L252.079821,392.163239 L231.641682,404.728712 L231.641682,371.723957 L251.706711,359.387874 Z M268.66249,348.777431 C271.371006,347.112221 273.713285,346.338463 275.689396,346.456132 C277.665507,346.573802 279.137205,347.404439 280.104532,348.948068 L275.710125,355.043219 C275.323194,354.35139 274.853356,353.857749 274.300598,353.562282 C273.747839,353.266815 273.153633,353.128547 272.517961,353.147475 C271.882289,353.166403 271.218988,353.303041 270.52804,353.557391 C269.837092,353.811741 269.159974,354.142815 268.496663,354.550621 C267.059492,355.434202 265.808895,356.528471 264.744835,357.833462 C263.680775,359.138453 262.796375,360.526666 262.091608,361.998143 C261.386841,363.469621 260.854819,364.974333 260.495526,366.512326 C260.136233,368.050319 259.956589,369.470096 259.956589,370.771698 C259.956589,372.228253 260.16387,373.503116 260.578439,374.596326 C260.993008,375.689535 261.580305,376.513832 262.340348,377.069241 C263.10039,377.624651 264.012428,377.885162 265.076488,377.850783 C266.140548,377.816404 267.308233,377.408407 268.579577,376.626778 C269.242887,376.218971 269.933825,375.701209 270.65241,375.073475 C271.370996,374.445742 272.055025,373.730792 272.704516,372.928605 C273.354007,372.126417 273.955123,371.237764 274.507881,370.26262 C275.060639,369.287475 275.50284,368.248604 275.834495,367.145975 L280.519099,367.287418 C280.049254,368.815903 279.379044,370.320351 278.50845,371.800808 C277.637855,373.281266 276.656724,374.682465 275.565026,376.004447 C274.473328,377.32643 273.305644,378.54017 272.061937,379.645703 C270.818231,380.751236 269.602181,381.669315 268.41375,382.399968 C266.313268,383.691355 264.392462,384.376436 262.651273,384.455231 C260.910084,384.534026 259.410749,384.161989 258.153224,383.339109 C256.895698,382.51623 255.914567,381.306516 255.2098,379.70993 C254.505033,378.113344 254.152655,376.261401 254.152655,374.154044 C254.152655,372.13966 254.477395,369.948895 255.126887,367.581686 C255.776378,365.214476 256.722962,362.873825 257.966669,360.559661 C259.210375,358.245497 260.730438,356.055857 262.526903,353.990674 C264.323367,351.925492 266.368543,350.187761 268.66249,348.777431 Z M291.007637,340.850216 L281.596972,346.635941 L281.596972,341.011187 L306.097866,325.947911 L306.097866,331.572665 L296.687201,337.35839 L296.687201,364.738391 L291.007637,368.230217 L291.007637,340.850216 Z M319.364001,323.184149 C317.788639,324.152689 316.614045,325.200231 315.840184,326.326807 C315.066322,327.453382 314.679397,328.605473 314.679397,329.783113 C314.679397,330.464905 314.824494,330.941267 315.114692,331.212215 C315.40489,331.483162 315.826362,331.619162 316.37912,331.62022 C316.931879,331.621277 317.629726,331.502138 318.472682,331.262798 C319.315639,331.023459 320.289861,330.718908 321.395378,330.349136 C322.83255,329.899423 324.138422,329.561417 325.313033,329.335108 C326.487645,329.1088 327.482595,329.1169 328.297914,329.359411 C329.113232,329.601922 329.741986,330.106326 330.184192,330.872638 C330.626399,331.63895 330.847499,332.781357 330.847499,334.299893 C330.847499,336.066353 330.550396,337.75978 329.956181,339.380223 C329.361965,341.000666 328.560478,342.50835 327.551694,343.903319 C326.54291,345.298288 325.382134,346.577507 324.069333,347.741016 C322.756532,348.904524 321.381566,349.928053 319.944394,350.811633 C317.733361,352.170988 315.549998,353.14145 313.39424,353.723048 C311.238482,354.304646 309.303857,354.440402 307.590306,354.130318 L310.119163,347.043781 C310.367904,347.169768 310.817014,347.257787 311.466505,347.307839 C312.115996,347.357891 312.882937,347.335728 313.76735,347.241349 C314.651763,347.14697 315.632895,346.923394 316.710774,346.570613 C317.788653,346.217833 318.894153,345.693116 320.027308,344.996447 C323.17803,343.059366 324.753368,340.959703 324.753368,338.697394 C324.753368,337.984612 324.573724,337.490751 324.214431,337.215798 C323.855139,336.940844 323.343845,336.821329 322.680535,336.857249 C322.017225,336.89317 321.215737,337.045037 320.276048,337.312858 C319.336358,337.580678 318.286133,337.885472 317.12534,338.227246 C315.715807,338.659968 314.492847,338.939251 313.456425,339.065105 C312.420003,339.190958 311.556331,339.117642 310.865383,338.845153 C310.174435,338.572665 309.656232,338.085517 309.310758,337.383695 C308.965284,336.681874 308.792549,335.695672 308.792549,334.42506 C308.792549,332.751571 309.068924,331.094131 309.621683,329.45269 C310.174441,327.811248 310.941382,326.255077 311.922528,324.784128 C312.903674,323.313179 314.043721,321.953733 315.342704,320.70575 C316.641686,319.457766 318.03738,318.375008 319.529827,317.457444 C321.602671,316.183048 323.509659,315.374756 325.250848,315.032541 C326.992037,314.690327 328.5121,314.615759 329.811082,314.808835 L327.282225,321.569973 C327.08876,321.471983 326.736382,321.394221 326.22508,321.336686 C325.713779,321.27915 325.091935,321.29733 324.35953,321.391225 C323.627125,321.48512 322.832547,321.671478 321.975771,321.950303 C321.118996,322.229129 320.248414,322.640407 319.364001,323.184149 Z" id="PROJECTS" fill="#FFFFFF" sketch:type="MSShapeGroup" mask="url(#mask-3)"></path>
                        <mask id="mask-11" sketch:name="Mask" fill="white">
                            <use xlink:href="#path-10"></use>
                        </mask>
                        <use id="Mask" fill="url(#linearGradient-9)" sketch:type="MSShapeGroup" xlink:href="#path-10"></use>
                        <path d="M284.595173,85.9694015 C284.595173,85.9694015 270.081553,65.5692422 245.325344,75.9674079 C215.168552,89.198529 182.709898,133.667617 173.500483,150.367058 C101.734706,280.500002 159.918314,158.940846 159.918314,158.940846 C159.918314,158.940846 175.976609,95.636252 224.049487,72.5921101 C272.122364,49.5479683 288.355092,67.1618834 302.634632,77.891719 C404.245225,154.243263 284.595173,85.9694015 284.595173,85.9694015 Z" id="Path-190" fill="url(#linearGradient-12)" sketch:type="MSShapeGroup" mask="url(#mask-11)"></path>
                    </g>
                </g>
            </g>
        </g>
    </g>
</svg>