<?xml version="1.0" encoding="UTF-8" standalone="no"?>
<svg width="230px" height="249px" viewBox="0 0 230 249" version="1.1" xmlns="http://www.w3.org/2000/svg" xmlns:xlink="http://www.w3.org/1999/xlink" xmlns:sketch="http://www.bohemiancoding.com/sketch/ns">
    <!-- Generator: Sketch 3.5.1 (25234) - http://www.bohemiancoding.com/sketch -->
    <title>social-icons</title>
    <desc>Created with Sketch.</desc>
    <defs></defs>
    <g id="Page-1" stroke="none" stroke-width="1" fill="none" fill-rule="evenodd" sketch:type="MSPage">
        <g id="main-site" sketch:type="MSArtboardGroup" transform="translate(-864.000000, -419.000000)">
            <g id="active-bridge" sketch:type="MSLayerGroup" transform="translate(51.000000, 89.000000)">
                <g id="social-icons" transform="translate(813.000000, 330.000000)" sketch:type="MSShapeGroup">
                    <g id="facebook-soc">
                        <path d="M25.9074342,4.19210714 C11.6985909,-4.49331696 0.180047629,2.1374018 0.180047629,19.002232 C0.180047629,35.8670622 11.6985909,56.5796357 25.9074342,65.2650598 C40.1162774,73.9504839 51.6348207,67.3197652 51.6348207,50.454935 C51.6348207,33.5901048 40.1162774,12.8775312 25.9074342,4.19210714 Z" id="Oval-100" fill-opacity="0.1" fill="#000000"></path>
                        <path d="M23.1578622,25.4132795 L23.1641963,28.0863139 L21.0400251,26.7878741 L21.0400251,31.0661332 L23.1641963,32.364573 L23.1641963,45.7465426 L27.7365317,48.5414691 L27.7365317,35.1957414 L30.7747232,37.0528934 L31.2571854,33.0333066 L27.6866669,30.8507596 L27.686667,29.079819 C27.6866671,27.7827526 28.5779273,27.2760722 29.6599229,27.9374625 L31.0788653,28.8048179 L31.0788653,24.1863216 L28.2476097,22.4556631 C25.4286659,20.7325304 23.1499077,22.0564508 23.1578622,25.4132795 Z" id="Path" fill-opacity="0.05" fill="#FFFFFF"></path>
                        <path d="M18.7883623,28.5584266 L18.7946964,31.231461 L16.6705252,29.9330212 L16.6705252,34.2112803 L18.7946964,35.5097201 L18.7946964,48.8916898 L23.3670318,51.6866162 L23.3670318,38.3408885 L26.4052233,40.1980405 L26.8876855,36.1784537 L23.317167,33.9959068 L23.3171671,32.2249661 C23.3171672,30.9278998 24.2084274,30.4212194 25.290423,31.0826096 L26.7093654,31.949965 L26.7093654,27.3314687 L23.8781098,25.6008102 C21.059166,23.8776775 18.7804078,25.2015979 18.7883623,28.5584266 Z" id="Path" fill="#FFFFFF"></path>
                    </g>
                    <g id="twitter-soc" transform="translate(59.000000, 36.000000)">
                        <path d="M26.2783261,4.48368749 C12.0694829,-4.2017366 0.550939606,2.42898215 0.550939606,19.2938123 C0.550939606,36.1586425 12.0694829,56.8712161 26.2783261,65.5566402 C40.4871694,74.2420643 52.0057127,67.6113455 52.0057127,50.7465153 C52.0057127,33.8816851 40.4871694,13.1691116 26.2783261,4.48368749 Z" id="Oval-100" fill-opacity="0.1" fill="#000000"></path>
                        <path d="M26.4161615,29.9693679 C26.428071,31.3522806 26.666584,32.5420449 26.666584,32.5420449 C26.666584,32.5420449 23.824069,31.2185621 20.6671425,27.9886689 C17.510216,24.7587756 15.6681296,21.315402 15.6681296,21.315402 C15.6681296,21.315402 15.0037379,22.8457993 15.4456437,25.3053574 C15.8875495,27.7649156 18.051622,30.236024 18.051622,30.236024 C18.051622,30.236024 17.7027166,30.073573 16.9333633,29.5152275 C16.16401,28.956882 15.7508199,28.440545 15.7508199,28.440545 C15.7508199,28.440545 15.7882719,30.3472977 16.993708,32.6155058 C18.1991441,34.8837138 20.2379217,36.3207309 20.2379217,36.3207309 C20.2379217,36.3207309 19.9483543,36.4119261 19.2904268,36.1214305 C18.6324993,35.8309349 18.058969,35.391715 18.058969,35.391715 C18.058969,35.391715 18.6220097,37.25318 20.0517174,39.1300391 C21.4814251,41.0068981 23.1160941,41.8666032 23.1160941,41.8666032 C23.1160941,41.8666032 22.4022239,42.4532607 20.3714112,42.4143711 C18.3405985,42.3754816 16.0292858,40.9381704 16.0292858,40.9381704 C16.0292858,40.9381704 24.7991028,51.6529861 32.7216528,47.5802241 C33.1948274,47.3369782 35.1269249,45.8763038 36.0893603,42.6628646 C36.9107238,39.6279456 36.3571194,35.5951538 36.3571194,35.5951538 C36.3571194,35.5951538 37.0288547,35.4912317 37.7177087,34.8071787 C38.4065626,34.1231258 38.5574965,33.6501968 38.5574965,33.6501968 C38.5574965,33.6501968 38.218394,33.7126692 37.2357147,33.5779759 C36.2530355,33.4432827 35.8247126,33.2316386 35.8247126,33.2316386 C35.8247126,33.2316386 36.4818294,33.0655431 37.0136415,32.4178362 C37.5454535,31.7701293 37.6883796,30.8928912 37.6883796,30.8928912 C37.6883796,30.8928912 37.1559662,31.1178428 36.324558,31.1100598 C35.4931498,31.1022768 34.6176977,30.8997933 34.6176977,30.8997933 C34.6176977,30.8997933 31.5537088,25.9943095 28.0210074,26.9911813 C26.7312159,27.3551398 26.4062101,28.8138184 26.4161615,29.9693679 Z" id="Path" fill-opacity="0.05" fill="#FFFFFF"></path>
                        <path d="M22.0466616,33.114515 C22.0585711,34.4974277 22.2970841,35.6871921 22.2970841,35.6871921 C22.2970841,35.6871921 19.4545691,34.3637092 16.2976426,31.133816 C13.1407161,27.9039228 11.2986297,24.4605492 11.2986297,24.4605492 C11.2986297,24.4605492 10.6342381,25.9909464 11.0761438,28.4505046 C11.5180496,30.9100627 13.6821221,33.3811712 13.6821221,33.3811712 C13.6821221,33.3811712 13.3332167,33.2187201 12.5638634,32.6603746 C11.7945101,32.1020291 11.38132,31.5856921 11.38132,31.5856921 C11.38132,31.5856921 11.418772,33.4924449 12.6242081,35.7606529 C13.8296442,38.028861 15.8684218,39.4658781 15.8684218,39.4658781 C15.8684218,39.4658781 15.5788544,39.5570733 14.9209269,39.2665777 C14.2629994,38.9760821 13.6894691,38.5368622 13.6894691,38.5368622 C13.6894691,38.5368622 14.2525098,40.3983271 15.6822175,42.2751862 C17.1119252,44.1520453 18.7465942,45.0117504 18.7465942,45.0117504 C18.7465942,45.0117504 18.032724,45.5984078 16.0019113,45.5595183 C13.9710986,45.5206287 11.6597859,44.0833176 11.6597859,44.0833176 C11.6597859,44.0833176 20.4296029,54.7981332 28.3521529,50.7253712 C28.8253275,50.4821253 30.757425,49.0214509 31.7198604,45.8080117 C32.5412239,42.7730927 31.9876195,38.7403009 31.9876195,38.7403009 C31.9876195,38.7403009 32.6593548,38.6363788 33.3482088,37.9523259 C34.0370627,37.2682729 34.1879966,36.7953439 34.1879966,36.7953439 C34.1879966,36.7953439 33.8488941,36.8578163 32.8662148,36.7231231 C31.8835356,36.5884298 31.4552127,36.3767858 31.4552127,36.3767858 C31.4552127,36.3767858 32.1123295,36.2106902 32.6441416,35.5629834 C33.1759536,34.9152765 33.3188797,34.0380383 33.3188797,34.0380383 C33.3188797,34.0380383 32.7864663,34.26299 31.9550581,34.2552069 C31.1236499,34.2474239 30.2481978,34.0449405 30.2481978,34.0449405 C30.2481978,34.0449405 27.1842089,29.1394566 23.6515075,30.1363284 C22.361716,30.500287 22.0367102,31.9589655 22.0466616,33.114515 Z" id="Path" fill="#FFFFFF"></path>
                    </g>
                    <g id="linkedin-soc" transform="translate(118.000000, 72.000000)">
                        <path d="M26.6492181,4.77526785 C12.4403749,-3.91015625 0.921831584,2.7205625 0.921831584,19.5853927 C0.921831584,36.4502229 12.4403749,57.1627964 26.6492181,65.8482205 C40.8580613,74.5336446 52.3766046,67.9029259 52.3766046,51.0380957 C52.3766046,34.1732655 40.8580613,13.4606919 26.6492181,4.77526785 Z" id="Oval-100" fill-opacity="0.1" fill="#000000"></path>
                        <path d="M18.215305,16.8234299 C18.4358144,16.7546787 18.6955216,16.7709525 18.9944344,16.8722519 C19.2933471,16.9735513 19.6094059,17.1260404 19.9426201,17.3297239 C20.2758343,17.5334074 20.589443,17.7658144 20.8834556,18.0269518 C21.1774681,18.2880893 21.4347252,18.5878196 21.6552346,18.926152 C21.8757441,19.2644843 22.0521489,19.6398231 22.1844546,20.0521798 C22.3167602,20.4645364 22.3829121,20.9207735 22.3829121,21.4209048 C22.3829121,21.909405 22.3167602,22.2818613 22.1844546,22.5382848 C22.0521489,22.7947082 21.8757441,22.9572931 21.6552346,23.0260444 C21.4347252,23.0947956 21.1774681,23.0829271 20.8834556,22.9904386 C20.589443,22.89795 20.2758343,22.7498662 19.9426201,22.5461827 C19.6094059,22.3424992 19.2933471,22.1056869 18.9944344,21.8357386 C18.6955216,21.5657904 18.4358144,21.2616546 18.215305,20.9233223 C17.9947956,20.58499 17.8208408,20.2082411 17.6934353,19.7930643 C17.5660299,19.3778875 17.5023281,18.9260558 17.5023281,18.4375555 C17.5023281,17.9374243 17.5660299,17.5605627 17.6934353,17.3069594 C17.8208408,17.053356 17.9947956,16.8921812 18.215305,16.8234299 Z M17.6934353,23.5963688 L22.1771043,26.3370962 L22.1771043,45.8421162 L17.6934353,43.1013887 L17.6934353,23.5963688 Z M34.6781203,42.0911316 C34.6781203,40.6837857 34.4992654,39.5189635 34.1415501,38.5966303 C33.7838348,37.6742971 33.212969,36.9735134 32.4289355,36.4942581 C31.8409104,36.1348166 31.3508969,35.974856 30.9588801,36.0143713 C30.5668634,36.0538867 30.2557048,36.2765779 30.025395,36.6824518 C29.7950851,37.0883256 29.6309306,37.6625685 29.5329264,38.4051977 C29.4349222,39.1478269 29.3859208,40.0367059 29.3859208,41.0718612 L29.3859208,50.2486416 L24.9022519,47.5079142 L24.9022519,28.0028942 L28.327481,30.0966302 L28.9302037,32.959884 L29.1801131,33.1126459 C29.4153231,32.7562912 29.7019811,32.5011773 30.0400955,32.3472964 C30.3782099,32.1934156 30.7481702,32.1229758 31.1499873,32.1359749 C31.5518045,32.1489741 31.9781163,32.2380112 32.4289355,32.4030889 C32.8797548,32.5681665 33.3403675,32.7944786 33.8107876,33.0820317 C34.6144219,33.5732684 35.3445421,34.1562299 36.0011702,34.8309337 C36.6577982,35.5056376 37.2213138,36.2775284 37.6917339,37.1466295 C38.162154,38.0157306 38.524764,38.9788454 38.7795749,40.0360026 C39.0343858,41.0931599 39.1617893,42.2497929 39.1617893,43.5059364 L39.1617893,56.224326 L34.6781203,53.4835986 L34.6781203,42.0911316 Z" id="Path" fill-opacity="0.05" fill="#FFFFFF"></path>
                        <path d="M13.8458051,19.9685771 C14.0663145,19.8998258 14.3260217,19.9160997 14.6249345,20.017399 C14.9238472,20.1186984 15.239906,20.2711875 15.5731202,20.474871 C15.9063344,20.6785545 16.2199431,20.9109615 16.5139557,21.172099 C16.8079682,21.4332364 17.0652253,21.7329668 17.2857347,22.0712991 C17.5062442,22.4096314 17.682649,22.7849703 17.8149547,23.1973269 C17.9472603,23.6096836 18.0134122,24.0659207 18.0134122,24.5660519 C18.0134122,25.0545522 17.9472603,25.4270084 17.8149547,25.6834319 C17.682649,25.9398554 17.5062442,26.1024403 17.2857347,26.1711915 C17.0652253,26.2399427 16.8079682,26.2280743 16.5139557,26.1355857 C16.2199431,26.0430972 15.9063344,25.8950134 15.5731202,25.6913299 C15.239906,25.4876464 14.9238472,25.2508341 14.6249345,24.9808858 C14.3260217,24.7109375 14.0663145,24.4068018 13.8458051,24.0684695 C13.6252957,23.7301371 13.4513409,23.3533882 13.3239354,22.9382115 C13.19653,22.5230347 13.1328282,22.0712029 13.1328282,21.5827027 C13.1328282,21.0825715 13.19653,20.7057098 13.3239354,20.4521065 C13.4513409,20.1985032 13.6252957,20.0373283 13.8458051,19.9685771 Z M13.3239354,26.7415159 L17.8076044,29.4822433 L17.8076044,48.9872633 L13.3239354,46.2465359 L13.3239354,26.7415159 Z M30.3086204,45.2362788 C30.3086204,43.8289328 30.1297655,42.6641107 29.7720502,41.7417775 C29.4143349,40.8194442 28.8434691,40.1186605 28.0594356,39.6394052 C27.4714105,39.2799638 26.981397,39.1200031 26.5893802,39.1595185 C26.1973635,39.1990338 25.8862049,39.4217251 25.6558951,39.8275989 C25.4255852,40.2334727 25.2614307,40.8077156 25.1634265,41.5503448 C25.0654223,42.2929741 25.016421,43.181853 25.016421,44.2170083 L25.016421,53.3937888 L20.532752,50.6530613 L20.532752,31.1480413 L23.9579811,33.2417774 L24.5607038,36.1050312 L24.8106132,36.257793 C25.0458232,35.9014384 25.3324812,35.6463245 25.6705956,35.4924436 C26.00871,35.3385627 26.3786703,35.2681229 26.7804874,35.2811221 C27.1823046,35.2941212 27.6086164,35.3831583 28.0594356,35.548236 C28.5102549,35.7133137 28.9708676,35.9396257 29.4412877,36.2271789 C30.244922,36.7184155 30.9750422,37.301377 31.6316703,37.9760809 C32.2882983,38.6507847 32.8518139,39.4226756 33.322234,40.2917767 C33.7926541,41.1608778 34.1552641,42.1239925 34.410075,43.1811498 C34.6648859,44.238307 34.7922894,45.3949401 34.7922894,46.6510836 L34.7922894,59.3694732 L30.3086204,56.6287457 L30.3086204,45.2362788 Z" id="Path" fill="#FFFFFF"></path>
                    </g>
                    <g id="gplus-soc" transform="translate(178.000000, 109.000000)">
                        <path d="M26.0201101,4.0668482 C11.8112669,-4.61857589 0.292723561,2.01214286 0.292723561,18.8769731 C0.292723561,35.7418032 11.8112669,56.4543768 26.0201101,65.1398009 C40.2289533,73.825225 51.7474966,67.1945062 51.7474966,50.329676 C51.7474966,33.4648458 40.2289533,12.7522723 26.0201101,4.0668482 Z" id="Oval-100" fill-opacity="0.1" fill="#000000"></path>
                        <path d="M9.89462042,25.9128788 C9.5752063,35.934273 18.5589949,43.5743765 20.2435694,44.604105 C21.0313492,45.0856505 24.8567306,47.4371814 27.8142225,45.4690621 C30.7717143,43.5009428 30.3183565,38.0437457 30.3183565,38.0437457 L30.1918142,35.5421327 L20.3095071,29.5013861 L20.3095071,34.4630815 L25.9646606,37.919901 C25.9646606,37.919901 25.2771873,42.6271901 20.6003522,39.7683862 C17.0726447,37.6120083 14.191593,32.6213021 14.191593,28.3961821 C14.1915931,24.1710621 17.6236837,22.9929176 20.2799066,24.6165842 C22.9361295,26.2402509 24.3159865,28.9524662 24.3159865,28.9524662 L27.2086703,26.9887471 C27.2086703,26.9887471 23.8356418,21.753412 20.1986583,19.530237 C16.5616748,17.3070619 10.2140346,15.8914847 9.89462042,25.9128788 Z M37.837196,35.9016212 L37.837196,40.2970336 L34.1340028,38.0333867 L34.1340028,41.1302151 L37.837196,43.3938619 L37.837196,47.6169117 L40.446315,49.211785 L40.446315,44.9887352 L44.0042904,47.163615 L44.0042904,44.0667867 L40.446315,41.8919069 L40.446315,37.4964946 L37.837196,35.9016212 Z" id="Path" fill-opacity="0.05" fill="#FFFFFF"></path>
                        <path d="M33.4676961,39.0467684 L33.4676961,43.4421807 L29.7645029,41.1785339 L29.7645029,44.2753622 L33.4676961,46.5390091 L33.4676961,50.7620588 L36.0768151,52.3569321 L36.0768151,48.1338824 L39.6347905,50.3087621 L39.6347905,47.2119338 L36.0768151,45.037054 L36.0768151,40.6416417 L33.4676961,39.0467684 Z M5.52512053,29.058026 C5.2057064,39.0794201 14.189495,46.7195237 15.8740695,47.7492521 C16.6618493,48.2307976 20.4872307,50.5823285 23.4447226,48.6142092 C26.4022144,46.6460899 25.9488566,41.1888928 25.9488566,41.1888928 L25.8223143,38.6872799 L15.9400072,32.6465332 L15.9400072,37.6082287 L21.5951607,41.0650482 C21.5951607,41.0650482 20.9076874,45.7723372 16.2308523,42.9135334 C12.7031448,40.7571554 9.8220931,35.7664493 9.82209315,31.5413292 C9.82209321,27.3162092 13.2541838,26.1380647 15.9104067,27.7617314 C18.5666296,29.385398 19.9464866,32.0976134 19.9464866,32.0976134 L22.8391704,30.1338943 C22.8391704,30.1338943 19.4661419,24.8985592 15.8291584,22.6753841 C12.1921749,20.4522091 5.84453466,19.0366318 5.52512053,29.058026 Z" id="Oval-100" fill="#FFFFFF"></path>
                    </g>
                    <g id="youtube-soc" transform="translate(0.000000, 70.000000)">
                        <path d="M25.9074342,4.66089868 C11.6985909,-4.02452541 0.180047629,2.60619334 0.180047629,19.4710235 C0.180047629,36.3358537 11.6985909,57.0484273 25.9074342,65.7338514 C40.1162774,74.4192754 51.6348207,67.7885567 51.6348207,50.9237265 C51.6348207,34.0588963 40.1162774,13.3463228 25.9074342,4.66089868 Z" id="Oval-100" fill-opacity="0.1" fill="#000000"></path>
                        <path d="M31.0472527,29.3361536 C29.5922444,28.39859 28.1310008,27.5053773 26.6730014,26.6151454 C25.2152092,25.7230445 23.7540605,24.8298898 22.2988608,23.9885336 C20.8342877,23.1417803 19.374289,22.346052 17.9270138,21.6535385 C17.2621599,21.3344555 16.6539307,21.3023263 16.1739093,21.5268033 C15.6969407,21.7498196 15.3465033,22.2266848 15.1931996,22.9273821 C14.9862402,23.8657404 14.8815464,24.9127722 14.8286578,25.9983627 C14.7755636,27.0885605 14.7742373,28.1961868 14.7742373,29.2722592 C14.7742373,30.3469047 14.774256,31.4539094 14.8260984,32.6089257 C14.8776981,33.7578854 14.9811213,34.9320913 15.1881917,36.123719 C15.3424114,37.01273 15.6930163,37.9183214 16.1699485,38.7243994 C16.6496836,39.5352566 17.2573133,40.2461447 17.9219773,40.7397551 C19.3694376,41.8166819 20.8294348,42.8058548 22.2940142,43.7495794 C23.7491902,44.6872454 25.2103452,45.580404 26.6683446,46.4706359 C28.1269957,47.3632618 29.5881238,48.256404 31.0431021,49.0976248 C32.5074696,49.9442745 33.9670412,50.739742 35.4143323,51.4322878 C36.0788682,51.7511765 36.6863682,51.7831697 37.1663137,51.5590912 C37.6434879,51.3362682 37.9945785,50.8595339 38.1498072,50.1594444 C38.3559632,49.2203734 38.4594041,48.1726097 38.5111918,47.0868906 C38.5622871,46.0162256 38.5627167,44.8986548 38.562642,43.8133751 C38.5626794,41.6027163 38.5626794,39.319003 38.1548334,36.963138 C38.0006137,36.0741045 37.6496165,35.168339 37.1721243,34.3619506 C36.6916625,33.5505698 36.0831723,32.8391105 35.4176762,32.3450367 C33.9712251,31.2687061 32.5116582,30.2797943 31.0472527,29.3361536 Z M23.7822471,29.6625054 L23.4125125,29.2073739 L23.4125125,29.7016797 L23.4125125,38.8398935 L23.4125125,39.3329564 L23.781257,39.3316505 C25.0182084,39.3272554 26.2498768,39.3224472 27.4814977,39.3174016 L31.1817227,39.3016974 L31.6124349,39.2998212 L31.1827128,38.7707679 C29.827392,37.1021899 28.481182,35.4455041 27.1365774,33.7908153 C26.0188733,32.4153438 24.9021815,31.0411125 23.7822471,29.6625054 Z" id="Path" fill-opacity="0.05" fill="#FFFFFF"></path>
                        <path d="M26.6777528,32.4813007 C25.2227445,31.5437371 23.7615009,30.6505244 22.3035015,29.7602925 C20.8457093,28.8681916 19.3845607,27.9750369 17.9293609,27.1336807 C16.4647878,26.2869274 15.0047891,25.4911991 13.5575139,24.7986857 C12.89266,24.4796027 12.2844308,24.4474735 11.8044094,24.6719505 C11.3274408,24.8949668 10.9770034,25.3718319 10.8236997,26.0725293 C10.6167403,27.0108875 10.5120465,28.0579193 10.4591579,29.1435099 C10.4060637,30.2337077 10.4047374,31.3413339 10.4047374,32.4174063 C10.4047374,33.4920518 10.4047561,34.5990565 10.4565985,35.7540728 C10.5081982,36.9030325 10.6116214,38.0772384 10.8186918,39.2688661 C10.9729115,40.1578771 11.3235164,41.0634685 11.8004486,41.8695466 C12.2801837,42.6804037 12.8878134,43.3912919 13.5524774,43.8849022 C14.9999377,44.961829 16.4599349,45.9510019 17.9245143,46.8947265 C19.3796903,47.8323926 20.8408453,48.7255512 22.2988447,49.615783 C23.7574958,50.5084089 25.2186239,51.4015511 26.6736022,52.2427719 C28.1379697,53.0894217 29.5975413,53.8848891 31.0448324,54.5774349 C31.7093683,54.8963236 32.3168683,54.9283168 32.7968138,54.7042384 C33.273988,54.4814154 33.6250786,54.0046811 33.7803073,53.3045915 C33.9864633,52.3655206 34.0899042,51.3177568 34.141692,50.2320378 C34.1927872,49.1613727 34.1932168,48.043802 34.1931421,46.9585222 C34.1931795,44.7478634 34.1931795,42.4641501 33.7853335,40.1082852 C33.6311138,39.2192516 33.2801166,38.3134862 32.8026244,37.5070977 C32.3221626,36.6957169 31.7136724,35.9842577 31.0481763,35.4901838 C29.6017252,34.4138533 28.1421583,33.4249415 26.6777528,32.4813007 Z M19.4127472,32.8076525 L19.0430126,32.3525211 L19.0430126,32.8468268 L19.0430126,41.9850406 L19.0430126,42.4781035 L19.4117571,42.4767976 C20.6487085,42.4724026 21.8803769,42.4675943 23.1119978,42.4625487 L26.8122228,42.4468445 L27.242935,42.4449683 L26.8132129,41.9159151 C25.4578921,40.247337 24.1116821,38.5906512 22.7670775,36.9359625 C21.6493734,35.5604909 20.5326816,34.1862596 19.4127472,32.8076525 Z" id="Path" fill="#FFFFFF"></path>
                    </g>
                    <g id="github-soc" transform="translate(59.000000, 107.000000)">
                        <path d="M26.2783261,3.95247904 C12.0694829,-4.73294506 0.550939606,1.89777369 0.550939606,18.7626039 C0.550939606,35.6274341 12.0694829,56.3400076 26.2783261,65.0254317 C40.4871694,73.7108558 52.0057127,67.0801371 52.0057127,50.2153069 C52.0057127,33.3504767 40.4871694,12.6379031 26.2783261,3.95247904 Z" id="Oval-100" fill-opacity="0.1" fill="#000000"></path>
                        <path d="M36.9313487,28.7963338 C36.8178989,28.3701568 36.4829253,27.9381651 36.1743676,27.827663 C35.9746718,27.7560913 35.7951356,27.6955224 35.6210216,27.6570802 C33.7984554,27.2546791 32.110889,27.2639594 30.4896871,27.4822367 C30.2718708,27.5113622 29.955064,27.3762902 29.6921087,27.192671 C29.0630368,26.7535722 28.4407774,26.1873917 27.8119835,25.7676602 C26.2557557,24.7288709 24.7026329,23.8357121 23.16054,23.2132177 C22.9461531,23.1266151 22.6639188,22.9103087 22.4858193,22.6648053 C20.7179852,20.2264525 18.878689,17.940076 16.809666,16.0229119 C16.4990692,15.7350868 16.1794354,15.5915759 16.1008825,15.6899868 C16.0529166,15.7502177 16.0095387,15.8166085 15.985718,15.9016648 C15.7622014,16.6971799 15.4972997,17.462722 15.3673978,18.3353183 C15.2125629,19.3768362 15.0636599,20.4563595 15.137115,21.6360489 C15.1833662,22.3776479 15.0174087,22.7145518 14.6890159,23.0143766 C13.5873753,24.0208281 13.0913103,25.6485548 13.0609551,27.7471532 C13.0348635,29.5419703 13.2367838,31.4300685 13.7013813,33.4451239 C14.4129917,36.5324781 15.7871344,39.3629769 17.8562037,41.9228128 C19.5573952,44.0274633 21.4111508,45.5710116 23.3080526,46.8096283 C25.0177713,47.925795 26.7308269,48.9126452 28.4424921,49.9703743 C30.1581892,51.030568 31.850251,51.8834056 33.4915662,52.251803 C35.1343181,52.6206936 36.5558705,52.4645942 37.6589015,51.5270359 C39.252019,50.1726448 39.7480377,47.7332106 39.8498552,44.8922489 C39.9278983,42.7198281 39.5466735,40.3983022 38.4512893,37.9125161 C38.0071294,36.904145 37.7581237,36.1190282 37.7748539,35.1546458 C37.7995088,33.7110485 37.5295093,32.071166 37.3103027,30.4849395 C37.2348549,29.9389195 37.0819664,29.3623945 36.9313487,28.7963338 Z M26.4228254,47.1451856 C24.5982664,46.1237859 22.7947013,44.8863361 21.0194986,43.3053243 C19.7100056,42.1392974 18.5145187,40.7938333 17.6812555,38.9503525 C16.3553105,36.0166392 16.0163976,31.7687888 18.2073977,30.9028047 C18.7661196,30.6821104 19.3892596,30.7061879 20.1255713,31.1007706 C20.9381651,31.5358764 21.7510369,31.91257 22.5630282,32.4203564 C24.6113818,33.7013848 26.6588085,35.0738178 28.706884,36.3438949 C29.6422891,36.92371 30.5842286,37.2406267 31.5127748,37.8748863 C32.356558,38.4512821 33.2437654,39.1780419 34.0095519,40.0491226 C35.2861406,41.5013687 35.9733278,43.2838312 36.1809485,45.0064332 C36.4900622,47.5679895 36.0821896,49.4782335 34.4717858,50.1470706 C33.7360302,50.4524583 32.8364026,50.2600326 31.9154569,49.958314 C30.1085086,49.3661702 28.2686562,48.3691412 26.4228254,47.1451856 Z M31.1340525,40.3845899 C30.0558878,39.7255413 29.1818625,40.5777472 29.1818625,42.288045 C29.1818625,43.9983429 30.0558878,45.9190777 31.1340525,46.5781263 C32.2122173,47.2371749 33.0862425,46.384969 33.0862425,44.6746712 C33.0862425,42.9643733 32.2122173,41.0436385 31.1340525,40.3845899 Z M21.8190234,34.6906022 C20.740705,34.0314597 19.8665553,34.8835895 19.8665553,36.5938874 C19.8665553,38.3041852 20.740705,40.2249961 21.8190234,40.8841386 C22.8973417,41.5432811 23.7714915,40.6911513 23.7714915,38.9808534 C23.7714915,37.2705556 22.8973417,35.3497447 21.8190234,34.6906022 Z" id="Path" fill-opacity="0.05" fill="#FFFFFF"></path>
                        <path d="M32.5618488,31.9414809 C32.448399,31.515304 32.1134254,31.0833123 31.8048677,30.9728101 C31.6051719,30.9012384 31.4256357,30.8406695 31.2515217,30.8022274 C29.4289555,30.3998263 27.7413891,30.4091065 26.1201872,30.6273838 C25.9023709,30.6565093 25.5855641,30.5214373 25.3226088,30.3378182 C24.6935369,29.8987194 24.0712775,29.3325389 23.4424836,28.9128074 C21.8862558,27.874018 20.333133,26.9808592 18.7910401,26.3583648 C18.5766532,26.2717623 18.2944189,26.0554559 18.1163194,25.8099525 C16.3484854,23.3715997 14.5091891,21.0852231 12.4401661,19.168059 C12.1295694,18.8802339 11.8099355,18.736723 11.7313826,18.835134 C11.6834167,18.8953648 11.6400388,18.9617556 11.6162181,19.0468119 C11.3927015,19.842327 11.1277998,20.6078691 10.9978979,21.4804654 C10.843063,22.5219834 10.6941601,23.6015066 10.7676151,24.781196 C10.8138663,25.522795 10.6479089,25.8596989 10.319516,26.1595237 C9.21787545,27.1659753 8.72181045,28.793702 8.6914552,30.8923003 C8.66536359,32.6871175 8.86728392,34.5752156 9.33188141,36.590271 C10.0434918,39.6776253 11.4176345,42.5081241 13.4867038,45.06796 C15.1878953,47.1726105 17.0416509,48.7161588 18.9385527,49.9547755 C20.6482714,51.0709421 22.361327,52.0577923 24.0729922,53.1155215 C25.7886893,54.1757152 27.4807511,55.0285528 29.1220663,55.3969502 C30.7648182,55.7658407 32.1863706,55.6097414 33.2894016,54.672183 C34.8825191,53.3177919 35.3785378,50.8783577 35.4803553,48.0373961 C35.5583984,45.8649752 35.1771736,43.5434493 34.0817894,41.0576632 C33.6376295,40.0492921 33.3886238,39.2641753 33.405354,38.2997929 C33.4300089,36.8561956 33.1600094,35.2163132 32.9408028,33.6300866 C32.865355,33.0840667 32.7124665,32.5075417 32.5618488,31.9414809 Z M22.0533255,50.2903327 C20.2287666,49.268933 18.4252014,48.0314833 16.6499987,46.4504715 C15.3405058,45.2844445 14.1450188,43.9389804 13.3117556,42.0954996 C11.9858106,39.1617864 11.6468977,34.913936 13.8378978,34.0479519 C14.3966197,33.8272576 15.0197597,33.851335 15.7560714,34.2459177 C16.5686652,34.6810235 17.381537,35.0577171 18.1935283,35.5655035 C20.2418819,36.8465319 22.2893086,38.218965 24.3373841,39.4890421 C25.2727892,40.0688571 26.2147287,40.3857739 27.1432749,41.0200334 C27.9870581,41.5964292 28.8742655,42.3231891 29.640052,43.1942697 C30.9166407,44.6465158 31.6038279,46.4289784 31.8114486,48.1515803 C32.1205623,50.7131367 31.7126897,52.6233806 30.1022859,53.2922177 C29.3665303,53.5976054 28.4669027,53.4051797 27.545957,53.1034611 C25.7390087,52.5113174 23.8991563,51.5142884 22.0533255,50.2903327 Z M26.7645526,43.529737 C25.6863879,42.8706884 24.8123626,43.7228943 24.8123626,45.4331922 C24.8123626,47.14349 25.6863879,49.0642248 26.7645526,49.7232734 C27.8427174,50.382322 28.7167426,49.5301161 28.7167426,47.8198183 C28.7167426,46.1095204 27.8427174,44.1887856 26.7645526,43.529737 Z M17.4495235,37.8357493 C16.3712051,37.1766069 15.4970554,38.0287367 15.4970554,39.7390345 C15.4970554,41.4493324 16.3712051,43.3701433 17.4495235,44.0292857 C18.5278418,44.6884282 19.4019916,43.8362984 19.4019916,42.1260006 C19.4019916,40.4157027 18.5278418,38.4948918 17.4495235,37.8357493 Z" id="Path" fill="#FFFFFF"></path>
                    </g>
                    <g id="pinterest-soc" transform="translate(178.000000, 179.000000)">
                        <path d="M26.0201101,4.53563975 C11.8112669,-4.14978435 0.292723561,2.4809344 0.292723561,19.3457646 C0.292723561,36.2105948 11.8112669,56.9231683 26.0201101,65.6085924 C40.2289533,74.2940165 51.7474966,67.6632978 51.7474966,50.7984676 C51.7474966,33.9336374 40.2289533,13.2210638 26.0201101,4.53563975 Z" id="Oval-100" fill-opacity="0.1" fill="#000000"></path>
                        <path d="M18.6023562,20.0404895 C19.3280004,19.5708826 20.1635908,19.2906671 21.1091272,19.1998431 C22.0546636,19.1090191 23.071665,19.2290797 24.1601314,19.5600248 C25.2485977,19.8909699 26.3590533,20.4025566 27.4914981,21.0947849 C29.2286464,22.1566497 30.844854,23.572234 32.3401209,25.3415378 C33.8353878,27.1108416 35.0502922,29.0978306 35.984834,31.3025049 C36.9193758,33.5071791 37.3866467,35.6384409 37.3866467,37.6962902 C37.3866467,38.9309998 37.2821979,40.07614 37.0733004,41.1317108 C36.8644028,42.1872815 36.5345645,43.1239096 36.0837855,43.9415948 C35.6330065,44.7592801 35.083276,45.3846484 34.4345941,45.8176998 C33.7859121,46.2507512 32.9888029,46.4258734 32.0432665,46.3430664 C31.09773,46.2602593 30.0587394,45.8727417 28.9262946,45.1805134 C28.1786612,44.7235083 27.436525,44.0640786 26.6998862,43.2022243 C25.9632473,42.34037 25.4355061,41.4518696 25.1166624,40.5367232 C25.0067163,40.9711173 24.8527918,41.6004907 24.6548888,42.4248433 C24.4569858,43.2491959 24.3277992,43.7811521 24.2673288,44.0207119 C24.2068585,44.2602718 24.0941637,44.6479703 23.9292446,45.1838075 C23.7643254,45.7196447 23.6213955,46.0888614 23.5004548,46.2914576 C23.3795141,46.4940538 23.2036003,46.7884469 22.9727135,47.1746369 C22.7418267,47.5608268 22.4889507,47.904637 22.2140855,48.2060673 C21.9392202,48.5074976 21.5983873,48.8554194 21.1915868,49.2498328 L20.9607,49.2051606 L20.8122727,48.9215082 C20.6473536,46.8014337 20.564894,45.5420422 20.564894,45.1433339 C20.564894,43.9600705 20.6830861,42.7043618 20.9194702,41.3762076 C21.1558543,40.0480534 21.521425,38.4226665 22.0161825,36.5000467 C22.5109399,34.577427 22.7967998,33.446716 22.873762,33.1079139 C22.5219345,32.0568514 22.3460208,30.8625192 22.3460208,29.5249171 C22.3460208,28.4574078 22.6318806,27.6289434 23.2036003,27.0395242 C23.77532,26.4501049 24.5009643,26.4242218 25.380533,26.9618748 C26.0512042,27.3718353 26.5734482,27.9515133 26.9472649,28.700909 C27.3210816,29.4503046 27.50799,30.2237107 27.50799,31.0211274 C27.50799,31.8699902 27.2661086,32.9504144 26.7823458,34.2624001 C26.2985829,35.5743857 26.0567015,36.6290868 26.0567015,37.4265034 C26.0567015,38.2367816 26.3040802,39.0600129 26.7988377,39.8961974 C27.2935951,40.7323819 27.8928013,41.3655354 28.5964563,41.7956578 C29.2011599,42.1652943 29.761885,42.3472786 30.2786316,42.3416108 C30.7953783,42.335943 31.2269167,42.1624361 31.5732469,41.8210899 C31.9195771,41.4797438 32.2274262,41.0569984 32.4967941,40.5528536 C32.766162,40.0487088 32.9750596,39.4658003 33.1234869,38.8041281 C33.2719141,38.1424559 33.3818602,37.495846 33.4533251,36.8642985 C33.5247901,36.232751 33.5605226,35.6147307 33.5605226,35.0102374 C33.5605226,32.7851878 32.9585677,30.6841366 31.754658,28.7070836 C30.5507482,26.7300306 28.9812677,25.1500858 27.0462164,23.9672491 C24.8472945,22.6231165 23.0111947,22.3335516 21.537917,23.0985546 C20.0646393,23.8635576 19.3280004,25.5257841 19.3280004,28.0852342 C19.3280004,28.6511427 19.3967167,29.2397631 19.5341494,29.8510953 C19.671582,30.4624275 19.8200092,30.9711571 19.979431,31.3772841 C20.1388529,31.7834111 20.2872801,32.1667405 20.4247127,32.5272723 C20.5621454,32.8878041 20.6308617,33.125947 20.6308617,33.241701 C20.6308617,33.6018246 20.5484021,34.0208665 20.383483,34.4988267 C20.2185638,34.9767869 20.0151635,35.1418397 19.7732821,34.9939851 C19.7512929,34.9805438 19.6578387,34.9041258 19.4929196,34.7647312 C18.9321945,34.229054 18.4346884,33.5648204 18.0004013,32.7720303 C17.5661142,31.9792402 17.2307786,31.1665514 16.9943945,30.3339637 C16.7580104,29.5013761 16.579348,28.6976412 16.4584073,27.922759 C16.3374666,27.1478767 16.2769963,26.4260351 16.2769963,25.7572341 C16.2769963,24.3681858 16.4831452,23.1855347 16.895443,22.2092807 C17.3077409,21.2330268 17.876712,20.5100963 18.6023562,20.0404895 Z" id="Path" fill-opacity="0.05" fill="#FFFFFF"></path>
                        <path d="M14.2328563,23.1856366 C14.9585005,22.7160297 15.7940909,22.4358143 16.7396273,22.3449903 C17.6851637,22.2541663 18.7021651,22.3742268 19.7906315,22.7051719 C20.8790978,23.0361171 21.9895534,23.5477038 23.1219982,24.2399321 C24.8591465,25.3017968 26.4753541,26.7173811 27.970621,28.4866849 C29.4658879,30.2559887 30.6807923,32.2429777 31.6153341,34.447652 C32.5498759,36.6523263 33.0171468,38.783588 33.0171468,40.8414374 C33.0171468,42.076147 32.9126981,43.2212871 32.7038005,44.2768579 C32.4949029,45.3324287 32.1650646,46.2690567 31.7142856,47.086742 C31.2635066,47.9044272 30.7137761,48.5297956 30.0650942,48.962847 C29.4164122,49.3958983 28.619303,49.5710205 27.6737666,49.4882135 C26.7282301,49.4054065 25.6892395,49.0178888 24.5567947,48.3256605 C23.8091613,47.8686554 23.0670251,47.2092257 22.3303863,46.3473715 C21.5937474,45.4855172 21.0660062,44.5970168 20.7471625,43.6818703 C20.6372164,44.1162644 20.4832919,44.7456378 20.2853889,45.5699904 C20.0874859,46.394343 19.9582993,46.9262992 19.8978289,47.1658591 C19.8373586,47.4054189 19.7246638,47.7931175 19.5597447,48.3289547 C19.3948255,48.8647918 19.2518956,49.2340085 19.1309549,49.4366048 C19.0100142,49.639201 18.8341004,49.9335941 18.6032136,50.319784 C18.3723268,50.705974 18.1194508,51.0497841 17.8445856,51.3512144 C17.5697203,51.6526447 17.2288874,52.0005666 16.8220869,52.3949799 L16.5912001,52.3503077 L16.4427728,52.0666554 C16.2778537,49.9465808 16.1953941,48.6871893 16.1953941,48.288481 C16.1953941,47.1052177 16.3135862,45.8495089 16.5499703,44.5213547 C16.7863544,43.1932006 17.1519252,41.5678136 17.6466826,39.6451939 C18.14144,37.7225741 18.4272999,36.5918632 18.5042621,36.2530611 C18.1524346,35.2019986 17.9765209,34.0076663 17.9765209,32.6700642 C17.9765209,31.6025549 18.2623807,30.7740906 18.8341004,30.1846713 C19.4058201,29.595252 20.1314644,29.5693689 21.0110331,30.107022 C21.6817043,30.5169824 22.2039483,31.0966604 22.577765,31.8460561 C22.9515817,32.5954518 23.1384901,33.3688579 23.1384901,34.1662745 C23.1384901,35.0151374 22.8966087,36.0955616 22.4128459,37.4075472 C21.929083,38.7195328 21.6872016,39.7742339 21.6872016,40.5716505 C21.6872016,41.3819287 21.9345803,42.20516 22.4293378,43.0413445 C22.9240952,43.8775291 23.5233014,44.5106825 24.2269564,44.940805 C24.83166,45.3104414 25.3923851,45.4924258 25.9091317,45.486758 C26.4258784,45.4810902 26.8574168,45.3075832 27.203747,44.9662371 C27.5500772,44.624891 27.8579263,44.2021455 28.1272942,43.6980007 C28.3966621,43.1938559 28.6055597,42.6109474 28.753987,41.9492752 C28.9024142,41.287603 29.0123603,40.6409932 29.0838253,40.0094457 C29.1552902,39.3778982 29.1910227,38.7598778 29.1910227,38.1553846 C29.1910227,35.930335 28.5890678,33.8292837 27.3851581,31.8522307 C26.1812483,29.8751777 24.6117678,28.2952329 22.6767165,27.1123962 C20.4777946,25.7682636 18.6416948,25.4786988 17.1684171,26.2437017 C15.6951394,27.0087047 14.9585005,28.6709312 14.9585005,31.2303813 C14.9585005,31.7962899 15.0272168,32.3849103 15.1646495,32.9962424 C15.3020821,33.6075746 15.4505093,34.1163042 15.6099312,34.5224312 C15.769353,34.9285582 15.9177802,35.3118876 16.0552128,35.6724194 C16.1926455,36.0329512 16.2613618,36.2710941 16.2613618,36.3868481 C16.2613618,36.7469718 16.1789022,37.1660137 16.0139831,37.6439739 C15.8490639,38.121934 15.6456636,38.2869868 15.4037822,38.1391322 C15.381793,38.1256909 15.2883388,38.0492729 15.1234197,37.9098783 C14.5626946,37.3742011 14.0651885,36.7099675 13.6309014,35.9171774 C13.1966143,35.1243873 12.8612787,34.3116985 12.6248946,33.4791109 C12.3885105,32.6465232 12.2098481,31.8427883 12.0889074,31.0679061 C11.9679667,30.2930239 11.9074964,29.5711823 11.9074964,28.9023812 C11.9074964,27.5133329 12.1136453,26.3306818 12.5259432,25.3544279 C12.938241,24.3781739 13.5072121,23.6552435 14.2328563,23.1856366 Z" id="Path" fill="#FFFFFF"></path>
                    </g>
                    <g id="blog-soc" transform="translate(118.000000, 143.000000)">
                        <path d="M26.6492181,4.24405939 C12.4403749,-4.44136471 0.921831584,2.18935405 0.921831584,19.0541842 C0.921831584,35.9190144 12.4403749,56.631588 26.6492181,65.3170121 C40.8580613,74.0024362 52.3766046,67.3717174 52.3766046,50.5068872 C52.3766046,33.642057 40.8580613,12.9294835 26.6492181,4.24405939 Z" id="Oval-100" fill-opacity="0.1" fill="#000000"></path>
                        <path d="M33.8182226,37.4988467 C33.9977995,36.6954859 34.049777,35.7148615 33.9668169,34.5697097 C33.9441507,30.9105884 31.6588154,26.8935839 28.4867657,24.8507953 L23.5893101,21.8601806 C21.6502872,20.6746259 20.1586778,20.431397 19.1038419,21.1048816 C18.4509647,21.5211623 17.5837774,22.4156795 17.4920118,24.6627785 L17.4880982,33.9477507 C17.4786811,34.1175964 17.4934386,34.3036221 17.491441,34.4843403 C17.491441,37.1266914 17.8478227,39.2464565 18.9607103,41.3323688 C20.0727011,43.4177812 21.7169814,45.1354456 23.8471182,46.437532 C23.893266,46.4657407 23.9397807,46.4941737 23.9864177,46.5216656 L31.398113,51.0522045 C33.3162226,52.2057706 34.9221416,52.4431178 36.0596115,51.7490815 C37.1951653,51.0565347 37.8067459,49.4547794 37.8277,47.1166491 C37.8273331,47.1164249 37.8184867,46.1647981 37.8172637,45.7925772 C37.810578,43.9726299 37.8057675,42.6569795 37.0527268,41.0420494 C36.2002155,39.2142244 34.8844732,38.1881517 33.8182226,37.4988467 Z M21.71478,37.3817295 C21.71478,36.2224174 22.5071606,35.7667962 23.4839285,36.363864 L31.774878,41.4318637 C32.751809,42.0290312 33.5439857,43.4532914 33.5439857,44.6125551 C33.5439449,45.7720842 32.7516051,46.2275369 31.7743888,45.6301949 L23.4839285,40.5624943 C22.5071606,39.9654264 21.71478,38.5412835 21.71478,37.3817295 Z M29.8690799,32.8580021 C29.8535885,33.9966702 29.0645916,34.3517075 28.1007467,33.7625391 C28.0911666,33.7566831 23.9267354,31.2130791 23.9267354,31.2130791 C22.9497228,30.5974792 22.1704691,29.1664607 22.1861643,28.0169844 C22.2016148,26.8671652 23.0044316,26.4402242 23.9827487,27.0496556 L28.1280604,29.5775572 C29.1049913,30.1931073 29.8846119,31.7081843 29.8690799,32.8580021 Z" id="Path" fill-opacity="0.05" fill="#FFFFFF"></path>
                        <path d="M29.4487227,40.6439938 C29.6282996,39.840633 29.6802771,38.8600086 29.597317,37.7148568 C29.5746508,34.0557355 27.2893156,30.038731 24.1172658,27.9959424 L19.2198102,25.0053277 C17.2807873,23.8197731 15.789178,23.5765441 14.734342,24.2500287 C14.0814648,24.6663095 13.2142775,25.5608267 13.1225119,27.8079256 L13.1185983,37.0928979 C13.1091812,37.2627435 13.1239387,37.4487693 13.1219411,37.6294874 C13.1219411,40.2718385 13.4783228,42.3916036 14.5912104,44.4775159 C15.7032012,46.5629284 17.3474815,48.2805928 19.4776183,49.5826791 C19.5237661,49.6108879 19.5702808,49.6393208 19.6169178,49.6668127 L27.0286131,54.1973516 C28.9467227,55.3509177 30.5526417,55.5882649 31.6901116,54.8942287 C32.8256654,54.2016818 33.4372461,52.5999265 33.4582001,50.2617963 C33.4578332,50.261572 33.4489868,49.3099452 33.4477638,48.9377244 C33.4410781,47.1177771 33.4362677,45.8021267 32.6832269,44.1871966 C31.8307156,42.3593716 30.5149733,41.3332989 29.4487227,40.6439938 Z M17.3452801,40.5268766 C17.3452801,39.3675646 18.1376607,38.9119433 19.1144286,39.5090112 L27.4053781,44.5770108 C28.3823091,45.1741784 29.1744858,46.5984386 29.1744858,47.7577023 C29.174445,48.9172313 28.3821052,49.372684 27.4048889,48.775342 L19.1144286,43.7076414 C18.1376607,43.1105736 17.3452801,41.6864306 17.3452801,40.5268766 Z M25.49958,36.0031493 C25.4840886,37.1418173 24.6950917,37.4968547 23.7312468,36.9076862 C23.7216667,36.9018302 19.5572355,34.3582263 19.5572355,34.3582263 C18.5802229,33.7426263 17.8009693,32.3116078 17.8166644,31.1621316 C17.8321149,30.0123123 18.6349317,29.5853714 19.6132488,30.1948027 L23.7585605,32.7227043 C24.7354914,33.3382544 25.515112,34.8533314 25.49958,36.0031493 Z" id="Path" fill="#FFFFFF"></path>
                    </g>
                </g>
            </g>
        </g>
    </g>
</svg>