<svg xmlns="http://www.w3.org/2000/svg" width="230" height="249">
  <g fill="none" fill-rule="evenodd">
    <path fill="#000" fill-opacity=".1" d="M25.907 4.192C11.7-4.493.18 2.137.18 19.002c0 16.865 11.52 37.578 25.727 46.263 14.21 8.685 25.728 2.055 25.728-14.81 0-16.865-11.52-37.577-25.728-46.263zm-2.75 21.22l.007 2.674-2.124-1.298v4.278l2.124 1.3v13.38l4.573 2.795V35.197l3.038 1.857.482-4.02-3.57-2.182v-1.77c0-1.297.89-1.804 1.973-1.143l1.42.868v-4.62l-2.832-1.73c-2.82-1.722-5.098-.4-5.09 2.958z"/>
    <path fill="#FFF" d="M18.788 28.558l.007 2.673-2.124-1.297v4.278l2.125 1.3v13.382l4.572 2.795V38.34l3.038 1.858.483-4.02-3.57-2.182v-1.77c0-1.298.89-1.805 1.972-1.143l1.42.867v-4.62l-2.832-1.73c-2.82-1.722-5.098-.398-5.09 2.958z"/>
    <path fill="#000" fill-opacity=".1" d="M85.278 40.484c-14.21-8.686-25.727-2.055-25.727 14.81 0 16.865 11.52 37.577 25.728 46.263 14.21 8.685 25.728 2.054 25.728-14.81 0-16.865-11.52-37.578-25.728-46.263zm.138 25.485c.012 1.382.25 2.572.25 2.572s-2.842-1.323-6-4.553c-3.156-3.23-4.998-6.675-4.998-6.675s-.664 1.53-.222 3.99c.442 2.46 2.606 4.93 2.606 4.93s-.35-.16-1.12-.72c-.768-.558-1.18-1.074-1.18-1.074s.036 1.907 1.242 4.176c1.205 2.268 3.244 3.705 3.244 3.705s-.29.092-.948-.2c-.658-.29-1.23-.728-1.23-.728s.562 1.86 1.992 3.738c1.43 1.877 3.064 2.737 3.064 2.737s-.714.586-2.745.547c-2.03-.04-4.34-1.476-4.34-1.476S83.8 87.653 91.72 83.58c.473-.243 2.405-1.704 3.367-4.917.82-3.035.267-7.068.267-7.068s.672-.104 1.36-.788c.69-.684.84-1.157.84-1.157s-.34.063-1.32-.072c-.984-.135-1.412-.346-1.412-.346s.657-.166 1.19-.814c.53-.648.673-1.525.673-1.525s-.532.225-1.363.217c-.832-.008-1.707-.21-1.707-.21s-3.064-4.906-6.597-3.91c-1.29.365-1.614 1.824-1.604 2.98z"/>
    <path fill="#FFF" d="M81.047 69.115c.012 1.382.25 2.572.25 2.572s-2.842-1.323-6-4.553c-3.156-3.23-4.998-6.673-4.998-6.673s-.666 1.53-.224 3.99c.442 2.46 2.606 4.93 2.606 4.93s-.35-.16-1.118-.72c-.77-.558-1.183-1.074-1.183-1.074s.04 1.906 1.244 4.175c1.206 2.27 3.244 3.706 3.244 3.706s-.29.09-.947-.2c-.657-.29-1.23-.73-1.23-.73s.563 1.862 1.992 3.74c1.43 1.876 3.065 2.736 3.065 2.736s-.714.586-2.745.548c-2.03-.04-4.342-1.477-4.342-1.477s8.77 10.715 16.692 6.642c.473-.243 2.405-1.704 3.368-4.917.82-3.035.268-7.068.268-7.068s.67-.104 1.36-.788c.69-.684.84-1.157.84-1.157s-.34.063-1.322-.072-1.41-.346-1.41-.346.656-.166 1.188-.814c.532-.648.675-1.525.675-1.525s-.534.225-1.365.217c-.83-.008-1.707-.21-1.707-.21s-3.064-4.906-6.596-3.91c-1.29.365-1.615 1.824-1.605 2.98z"/>
    <path fill="#000" fill-opacity=".1" d="M144.65 76.775c-14.21-8.685-25.728-2.054-25.728 14.81 0 16.865 11.518 37.578 25.727 46.263 14.208 8.686 25.727 2.055 25.727-14.81 0-16.865-11.52-37.577-25.728-46.263zm8.028 37.316c0-1.406-.18-2.57-.536-3.493-.358-.923-.93-1.623-1.713-2.103-.59-.36-1.08-.52-1.47-.48-.393.04-.704.263-.935.668-.23.406-.394.98-.492 1.723-.098.743-.147 1.632-.147 2.667v9.177l-4.484-2.742v-19.505l3.425 2.094.603 2.863.25.153c.235-.357.522-.612.86-.766.338-.154.708-.224 1.11-.21.402.012.828.1 1.28.266.45.165.91.39 1.38.68.804.49 1.535 1.073 2.19 1.748.658.676 1.22 1.448 1.692 2.317.47.87.833 1.832 1.088 2.89.254 1.056.382 2.213.382 3.47v12.717l-4.484-2.74V114.09zm-16.985-18.494l4.484 2.74v19.506l-4.484-2.74V95.595zm.522-6.773c.22-.068.48-.052.78.05.298.1.614.253.948.457.333.203.646.436.94.697.294.26.552.56.772.9.22.337.397.713.53 1.125.132.413.198.87.198 1.37 0 .487-.066.86-.2 1.116-.13.257-.307.42-.528.488-.22.07-.478.057-.772-.036-.294-.092-.607-.24-.94-.444-.334-.204-.65-.44-.95-.71-.297-.27-.557-.574-.778-.913-.22-.338-.394-.715-.522-1.13-.127-.415-.19-.867-.19-1.355 0-.5.063-.877.19-1.13.128-.255.302-.416.522-.485z"/>
    <path fill="#FFF" d="M131.846 91.97c.22-.07.48-.054.78.047.298.102.614.254.947.458.333.204.647.436.94.697.295.26.552.56.773.9.22.338.397.713.53 1.125.13.413.197.87.197 1.37 0 .488-.066.86-.198 1.116-.132.257-.31.42-.53.488-.22.07-.477.058-.77-.034-.295-.093-.61-.24-.942-.445-.333-.202-.65-.44-.948-.71-.3-.27-.56-.573-.78-.912-.22-.338-.394-.715-.52-1.13-.128-.415-.192-.867-.192-1.355 0-.5.064-.877.19-1.13.128-.254.302-.416.523-.484zm-.522 6.772l4.484 2.74v19.505l-4.484-2.74V98.742zm16.985 18.494c0-1.407-.18-2.572-.538-3.494-.358-.923-.93-1.623-1.713-2.103-.59-.36-1.08-.52-1.47-.48-.393.04-.704.262-.934.668-.23.405-.395.98-.493 1.722-.098.743-.147 1.632-.147 2.667v9.177l-4.483-2.74v-19.506l3.425 2.094.603 2.863.25.153c.236-.357.522-.612.86-.766.34-.153.71-.224 1.11-.21.402.012.83.1 1.28.266.45.165.91.392 1.38.68.805.49 1.535 1.073 2.192 1.748.656.675 1.22 1.447 1.69 2.316.47.87.833 1.832 1.088 2.89.255 1.056.382 2.213.382 3.47v12.717l-4.483-2.74v-11.394z"/>
    <path fill="#000" fill-opacity=".1" d="M215.837 144.902v4.395l-3.703-2.264v3.097l3.703 2.264v4.223l2.61 1.595v-4.223l3.557 2.174v-3.097l-3.558-2.175v-4.396l-2.61-1.594zm-11.817-31.835c-14.21-8.686-25.727-2.055-25.727 14.81 0 16.865 11.518 37.577 25.727 46.263 14.21 8.685 25.727 2.055 25.727-14.81 0-16.865-11.518-37.578-25.727-46.263zm-16.125 21.846c-.32 10.02 8.664 17.66 10.35 18.69.786.483 4.612 2.834 7.57.866 2.957-1.97 2.503-7.426 2.503-7.426l-.126-2.502-9.882-6.04v4.96l5.655 3.458s-.688 4.707-5.365 1.848c-3.527-2.156-6.408-7.147-6.408-11.372s3.432-5.403 6.088-3.78c2.656 1.624 4.036 4.336 4.036 4.336l2.893-1.963s-3.374-5.237-7.01-7.46c-3.638-2.223-9.986-3.64-10.305 6.383z"/>
    <path fill="#FFF" d="M211.468 148.047v4.395l-3.703-2.263v3.095l3.703 2.264v4.222l2.61 1.595v-4.223l3.557 2.175v-3.098l-3.558-2.175v-4.395l-2.61-1.595zm-27.943-9.99c-.32 10.022 8.664 17.663 10.35 18.692.787.48 4.612 2.832 7.57.864 2.957-1.968 2.504-7.425 2.504-7.425l-.128-2.503-9.882-6.04v4.96l5.655 3.458s-.687 4.707-5.364 1.85c-3.527-2.158-6.408-7.15-6.408-11.374s3.432-5.402 6.088-3.778c2.657 1.623 4.036 4.336 4.036 4.336l2.893-1.964s-3.374-5.235-7.01-7.46c-3.638-2.222-9.985-3.637-10.305 6.384z"/>
    <g>
      <path fill="#000" fill-opacity=".1" d="M25.907 74.66C11.7 65.976.18 72.607.18 89.47c0 16.866 11.52 37.578 25.727 46.264 14.21 8.685 25.728 2.055 25.728-14.81 0-16.865-11.52-37.578-25.728-46.263zm5.14 24.676c-1.455-.937-2.916-1.83-4.374-2.72-1.458-.893-2.92-1.786-4.374-2.627-1.466-.848-2.926-1.644-4.373-2.336-.665-.32-1.273-.352-1.753-.127-.477.223-.827.7-.98 1.4-.208.94-.312 1.986-.365 3.07-.054 1.092-.056 2.2-.056 3.275 0 1.075 0 2.182.052 3.337.052 1.148.155 2.322.362 3.514.154.89.505 1.794.982 2.6.48.81 1.087 1.522 1.752 2.016 1.447 1.077 2.907 2.066 4.372 3.01 1.455.937 2.916 1.83 4.374 2.72 1.46.893 2.92 1.786 4.375 2.628 1.464.846 2.924 1.642 4.37 2.334.666.32 1.273.35 1.753.127.477-.224.83-.7.984-1.4.206-.94.31-1.987.36-3.073.052-1.07.053-2.188.053-3.274 0-2.21 0-4.494-.408-6.85-.154-.89-.505-1.795-.983-2.6-.48-.812-1.09-1.524-1.754-2.018-1.447-1.076-2.906-2.065-4.37-3.01zm-7.265.327l-.37-.456v10.126h.37l3.7-.016 3.7-.015.43-.002-.43-.53-4.045-4.98-3.355-4.127z"/>
      <path fill="#FFF" d="M26.678 102.48c-1.455-.936-2.916-1.83-4.374-2.72-1.458-.892-2.92-1.785-4.375-2.626-1.465-.847-2.925-1.643-4.372-2.335-.665-.32-1.274-.353-1.754-.128-.477.223-.827.7-.98 1.4-.207.94-.312 1.986-.365 3.072-.054 1.09-.055 2.197-.055 3.273 0 1.075 0 2.182.052 3.337.05 1.15.155 2.323.362 3.515.153.888.504 1.793.98 2.6.48.81 1.088 1.52 1.752 2.015 1.448 1.077 2.908 2.066 4.373 3.01 1.455.937 2.916 1.83 4.374 2.72 1.457.893 2.92 1.787 4.374 2.628 1.464.846 2.924 1.642 4.37 2.334.665.32 1.273.35 1.753.127.477-.223.828-.7.983-1.4.206-.938.31-1.986.362-3.072.05-1.07.05-2.188.05-3.273 0-2.212 0-4.496-.407-6.852-.154-.89-.505-1.795-.982-2.6-.48-.812-1.09-1.524-1.755-2.018-1.446-1.076-2.906-2.065-4.37-3.01zm-7.265.328l-.37-.455v10.125h.37l3.7-.015 3.7-.016.43-.002-.43-.53-4.046-4.98-3.354-4.127z"/>
    </g>
    <g>
      <path fill="#000" fill-opacity=".1" d="M85.278 110.952c-14.21-8.685-25.727-2.054-25.727 14.81 0 16.865 11.52 37.578 25.728 46.263 14.21 8.686 25.728 2.055 25.728-14.81 0-16.865-11.52-37.577-25.728-46.263zm10.653 24.844c-.112-.426-.447-.858-.756-.968-.2-.072-.38-.132-.553-.17-1.822-.403-3.51-.394-5.13-.176-.218.03-.535-.106-.798-.29-.63-.438-1.25-1.005-1.88-1.424-1.556-1.04-3.11-1.932-4.65-2.555-.216-.086-.498-.303-.676-.548-1.768-2.44-3.607-4.725-5.676-6.642-.31-.288-.63-.43-.71-.333-.047.06-.09.127-.114.212-.224.795-.49 1.56-.62 2.433-.153 1.042-.302 2.12-.23 3.3.047.743-.12 1.08-.447 1.38-1.103 1.006-1.6 2.634-1.63 4.732-.025 1.795.177 3.683.64 5.698.713 3.087 2.087 5.918 4.156 8.478 1.7 2.104 3.555 3.648 5.452 4.887 1.71 1.116 3.423 2.103 5.134 3.16 1.716 1.06 3.408 1.913 5.05 2.282 1.642.37 3.064.213 4.167-.725 1.592-1.354 2.088-3.794 2.19-6.635.078-2.172-.303-4.494-1.4-6.98-.443-1.008-.692-1.793-.675-2.757.025-1.444-.245-3.084-.465-4.67-.075-.546-.228-1.123-.38-1.69zm-10.507 18.35c-1.825-1.022-3.628-2.26-5.404-3.84-1.31-1.167-2.505-2.512-3.34-4.356-1.325-2.933-1.664-7.18.527-8.047.56-.22 1.182-.197 1.92.198.81.436 1.624.813 2.436 1.32 2.048 1.28 4.096 2.654 6.144 3.924.935.58 1.877.897 2.806 1.53.844.577 1.73 1.304 2.497 2.175 1.276 1.45 1.963 3.234 2.17 4.956.31 2.562-.098 4.472-1.708 5.14-.736.306-1.636.114-2.557-.188-1.806-.592-3.646-1.59-5.492-2.813zm4.71-6.76c-1.077-.66-1.95.192-1.95 1.902s.873 3.63 1.95 4.29c1.08.66 1.953-.193 1.953-1.903s-.874-3.63-1.952-4.29zm-9.314-5.695c-1.08-.66-1.953.194-1.953 1.904s.874 3.63 1.952 4.29c1.077.66 1.95-.193 1.95-1.903s-.873-3.63-1.95-4.29z"/>
      <path fill="#FFF" d="M91.562 138.94c-.114-.425-.45-.857-.757-.967-.2-.072-.38-.132-.553-.17-1.823-.403-3.51-.394-5.132-.176-.218.03-.534-.106-.797-.29-.63-.438-1.252-1.004-1.88-1.424-1.557-1.04-3.11-1.932-4.652-2.555-.213-.086-.496-.303-.674-.548-1.768-2.438-3.607-4.725-5.676-6.642-.31-.288-.63-.43-.71-.333-.047.06-.09.127-.114.212-.223.795-.488 1.56-.618 2.433-.155 1.042-.304 2.122-.23 3.3.046.743-.12 1.08-.448 1.38-1.102 1.006-1.598 2.634-1.63 4.732-.025 1.795.177 3.683.642 5.698.71 3.088 2.086 5.918 4.155 8.478 1.7 2.105 3.555 3.648 5.452 4.887 1.708 1.116 3.42 2.103 5.133 3.16 1.716 1.06 3.408 1.914 5.05 2.282 1.642.37 3.063.213 4.166-.725 1.593-1.354 2.09-3.794 2.19-6.635.078-2.172-.303-4.494-1.398-6.98-.444-1.008-.693-1.793-.677-2.757.025-1.444-.245-3.084-.464-4.67-.075-.546-.228-1.122-.378-1.69zm-10.51 18.35c-1.823-1.02-3.627-2.26-5.402-3.84-1.31-1.166-2.505-2.51-3.338-4.355-1.326-2.933-1.665-7.18.526-8.047.56-.22 1.182-.197 1.918.198.813.435 1.626.812 2.438 1.32 2.048 1.28 4.095 2.653 6.143 3.923.936.58 1.878.896 2.806 1.53.844.576 1.73 1.303 2.497 2.174 1.277 1.453 1.964 3.235 2.17 4.958.31 2.56-.097 4.47-1.708 5.14-.735.306-1.635.113-2.556-.19-1.807-.59-3.647-1.588-5.493-2.812zm4.713-6.76c-1.08-.66-1.953.193-1.953 1.903s.874 3.63 1.953 4.29c1.078.66 1.952-.193 1.952-1.903s-.874-3.63-1.952-4.29zm-9.315-5.694c-1.08-.66-1.953.193-1.953 1.903s.874 3.63 1.953 4.29c1.078.658 1.952-.194 1.952-1.904s-.874-3.63-1.952-4.29z"/>
    </g>
    <g>
      <path fill="#000" fill-opacity=".1" d="M204.02 183.536c-14.21-8.686-25.727-2.055-25.727 14.81 0 16.865 11.518 37.577 25.727 46.263 14.21 8.684 25.727 2.053 25.727-14.812 0-16.864-11.518-37.577-25.727-46.262zm-7.418 15.504c.726-.47 1.562-.75 2.507-.84.945-.09 1.962.03 3.05.36 1.09.33 2.2.843 3.33 1.535 1.74 1.062 3.355 2.477 4.85 4.247 1.495 1.77 2.71 3.756 3.645 5.96.934 2.205 1.402 4.336 1.402 6.394 0 1.235-.105 2.38-.314 3.436-.21 1.055-.538 1.992-.99 2.81-.45.817-1 1.443-1.648 1.876-.65.433-1.446.608-2.392.525-.945-.083-1.984-.47-3.117-1.162-.747-.456-1.49-1.116-2.226-1.978-.737-.862-1.264-1.75-1.583-2.665-.11.434-.264 1.063-.462 1.888-.198.824-.327 1.356-.388 1.596-.06.24-.173.628-.338 1.164-.166.536-.31.905-.43 1.107-.12.204-.296.498-.527.885-.23.386-.484.73-.76 1.03-.274.302-.615.65-1.02 1.045l-.232-.045-.148-.283c-.165-2.12-.247-3.38-.247-3.78 0-1.182.118-2.438.354-3.766.236-1.328.6-2.953 1.096-4.876.495-1.923.78-3.053.858-3.392-.352-1.05-.528-2.245-.528-3.583 0-1.068.286-1.896.858-2.485.57-.59 1.297-.616 2.177-.078.67.41 1.193.99 1.567 1.74.374.748.56 1.522.56 2.32 0 .848-.24 1.928-.725 3.24-.483 1.312-.725 2.367-.725 3.165 0 .81.247 1.633.742 2.47.494.835 1.093 1.47 1.796 1.9.605.368 1.166.55 1.683.545.515-.006.947-.18 1.293-.52.347-.342.654-.765.924-1.27.27-.503.478-1.086.626-1.748.15-.662.26-1.308.33-1.94.072-.63.108-1.25.108-1.854 0-2.225-.6-4.326-1.805-6.303-1.204-1.977-2.774-3.557-4.71-4.74-2.198-1.344-4.034-1.633-5.507-.868-1.473.764-2.21 2.426-2.21 4.985 0 .566.07 1.155.206 1.766.138.612.286 1.12.445 1.527.16.406.307.79.445 1.15.137.36.206.6.206.715 0 .36-.082.78-.247 1.257-.164.477-.368.642-.61.494-.022-.013-.115-.09-.28-.23-.56-.535-1.058-1.2-1.493-1.992-.434-.793-.77-1.605-1.006-2.438-.236-.833-.415-1.636-.536-2.41-.12-.776-.18-1.498-.18-2.167 0-1.39.205-2.57.617-3.548.413-.977.982-1.7 1.707-2.17z"/>
      <path fill="#FFF" d="M192.233 202.186c.726-.47 1.56-.75 2.507-.84.945-.092 1.962.028 3.05.36 1.09.33 2.2.842 3.332 1.534 1.737 1.062 3.353 2.477 4.85 4.247 1.494 1.77 2.71 3.756 3.643 5.96.935 2.205 1.402 4.337 1.402 6.394 0 1.236-.104 2.38-.313 3.437-.21 1.055-.54 1.992-.99 2.81-.45.817-1 1.443-1.65 1.876-.648.433-1.445.608-2.39.525-.946-.083-1.985-.47-3.117-1.162-.748-.457-1.49-1.117-2.227-1.98-.736-.86-1.264-1.75-1.583-2.664-.11.434-.264 1.064-.462 1.888-.198.824-.327 1.356-.387 1.596s-.173.627-.338 1.163c-.165.535-.308.904-.43 1.107l-.527.883c-.23.386-.484.73-.758 1.03-.275.303-.616.65-1.023 1.045l-.23-.045-.15-.283c-.164-2.12-.247-3.38-.247-3.78 0-1.182.12-2.437.355-3.766.236-1.327.602-2.952 1.097-4.875.494-1.922.78-3.053.857-3.392-.352-1.05-.527-2.245-.527-3.583 0-1.067.285-1.896.857-2.485.572-.59 1.297-.616 2.177-.078.672.41 1.194.99 1.568 1.74.374.748.56 1.522.56 2.32 0 .848-.24 1.93-.725 3.24-.484 1.313-.726 2.367-.726 3.165 0 .81.248 1.633.742 2.47.494.836 1.093 1.47 1.797 1.9.605.368 1.165.55 1.682.545.516-.006.947-.18 1.294-.52.346-.342.654-.765.923-1.27.27-.503.48-1.086.627-1.748.148-.662.258-1.31.33-1.94.07-.632.107-1.25.107-1.855 0-2.225-.6-4.326-1.805-6.303-1.204-1.977-2.773-3.557-4.708-4.74-2.2-1.344-4.035-1.633-5.51-.868-1.472.765-2.208 2.427-2.208 4.986 0 .566.067 1.155.205 1.766.137.612.286 1.12.445 1.526.16.407.308.79.445 1.15.138.36.206.6.206.715 0 .36-.08.78-.246 1.257-.165.478-.368.643-.61.495-.022-.014-.116-.09-.28-.23-.56-.536-1.06-1.2-1.493-1.993-.433-.793-.77-1.605-1.005-2.438-.236-.833-.415-1.637-.536-2.412-.122-.775-.183-1.497-.183-2.166 0-1.39.207-2.57.62-3.548.41-.976.98-1.7 1.706-2.168z"/>
    </g>
    <g>
      <path fill="#000" fill-opacity=".1" d="M144.65 147.244c-14.21-8.685-25.728-2.055-25.728 14.81 0 16.865 11.518 37.578 25.727 46.263 14.208 8.685 25.727 2.055 25.727-14.81 0-16.865-11.52-37.578-25.728-46.263zm7.168 33.255c.18-.805.232-1.785.15-2.93-.024-3.66-2.31-7.676-5.48-9.72l-4.9-2.99c-1.938-1.185-3.43-1.43-4.484-.755-.653.416-1.52 1.31-1.612 3.558l-.004 9.285c-.01.17.005.356.003.536 0 2.643.358 4.762 1.47 6.848 1.113 2.086 2.757 3.803 4.887 5.106l.14.084 7.41 4.53c1.92 1.154 3.525 1.39 4.663.697 1.135-.693 1.747-2.295 1.768-4.633 0 0-.01-.952-.01-1.324-.007-1.82-.012-3.136-.765-4.75-.853-1.83-2.17-2.855-3.235-3.544zm-3.95-4.642c-.014 1.14-.803 1.494-1.767.905l-4.173-2.55c-.977-.616-1.757-2.047-1.74-3.196.015-1.15.817-1.577 1.796-.967l4.145 2.528c.977.615 1.757 2.13 1.74 3.28zm-8.153 4.524c0-1.16.792-1.615 1.77-1.018l8.29 5.068c.977.597 1.77 2.02 1.77 3.18 0 1.16-.793 1.616-1.77 1.018l-8.29-5.068c-.978-.597-1.77-2.02-1.77-3.18z"/>
      <path fill="#FFF" d="M147.45 183.644c.178-.803.23-1.784.147-2.93-.022-3.658-2.308-7.675-5.48-9.718l-4.897-2.99c-1.94-1.186-3.43-1.43-4.486-.756-.653.416-1.52 1.31-1.61 3.558l-.005 9.285c-.01.17.004.356.002.536 0 2.642.356 4.762 1.47 6.848 1.11 2.085 2.755 3.803 4.886 5.105l.14.084 7.41 4.53c1.92 1.154 3.525 1.39 4.662.697 1.136-.692 1.747-2.294 1.768-4.632 0 0-.01-.952-.01-1.324-.007-1.82-.012-3.136-.765-4.75-.852-1.83-2.168-2.855-3.234-3.544zm-12.105-.117c0-1.16.793-1.615 1.77-1.018l8.29 5.067c.977.597 1.77 2.02 1.77 3.18 0 1.16-.793 1.616-1.77 1.018l-8.29-5.067c-.977-.597-1.77-2.022-1.77-3.18zm8.155-4.524c-.016 1.14-.805 1.494-1.77.905l-4.173-2.55c-.977-.615-1.756-2.046-1.74-3.196.015-1.15.818-1.577 1.796-.967l4.146 2.528c.975.615 1.755 2.13 1.74 3.28z"/>
    </g>
  </g>
</svg>
