<svg xmlns="http://www.w3.org/2000/svg" width="1322" height="975" xmlns:xlink="http://www.w3.org/1999/xlink">
  <defs>
    <path id="a" d="M3.196 974.813L129.65 891h1064.2l124.62 83.813H3.195zM1016.188 819h-321.86L664 891h431l-78.812-72z"/>
    <linearGradient id="b" x1="-14.604%" x2="151.214%" y1="35.713%" y2="108.379%">
      <stop stop-color="#B64E96" offset="0%"/>
      <stop stop-color="#5F52CA" offset="100%"/>
    </linearGradient>
    <path id="c" d="M132.638 38.914c5.724-3.34 15.73-6.05 22.374-6.05h1013.43c6.633 0 16.634 2.74 22.342 6.12l111.153 65.83H19.727l112.91-65.9z"/>
    <linearGradient id="e" x1="77.431%" x2="-5.582%" y1="7.759%" y2="101.464%">
      <stop stop-color="#EEE" offset="0%"/>
      <stop stop-color="#D8D8D8" offset="100%"/>
    </linearGradient>
    <rect id="d" width="1322" height="785" y="84" rx="70"/>
    <linearGradient id="f" x1="0%" x2="93.8%" y1="-3.17%" y2="98.266%">
      <stop stop-color="#B64E96" offset="0%"/>
      <stop stop-color="#7D51B9" offset="100%"/>
    </linearGradient>
    <path id="h" d="M-10 76h1426v182H-10V76zm0 331h1426v480H-10V407z"/>
    <circle id="i" cx="122.5" cy="123.5" r="52.375"/>
    <linearGradient id="k" x1="2.05%" y1="3.457%" y2="98.485%">
      <stop stop-color="#843A73" offset="0%"/>
      <stop stop-color="#6D408B" offset="100%"/>
    </linearGradient>
    <rect id="j" width="922" height="645" rx="28"/>
    <linearGradient id="m" x1="50%" x2="50%" y1="0%" y2="100%">
      <stop stop-color="#EEE" offset="0%"/>
      <stop stop-color="#D8D8D8" offset="100%"/>
    </linearGradient>
    <ellipse id="n" cx="79" cy="12.5" rx="79" ry="12.5"/>
  </defs>
  <g fill="none" fill-rule="evenodd">
    <g opacity=".1">
      <use xlink:href="#a"/>
      <use xlink:href="#a"/>
      <use fill="#000" xlink:href="#a"/>
    </g>
    <use fill="url(#b)" xlink:href="#c"/>
    <use fill="#000" fill-opacity=".08" xlink:href="#c"/>
    <mask id="g" fill="#fff">
      <use xlink:href="#d"/>
    </mask>
    <use fill="url(#e)" xlink:href="#d"/>
    <use fill="url(#f)" mask="url(#g)" xlink:href="#h"/>
    <use xlink:href="#h"/>
    <g transform="translate(1042 563)">
      <circle cx="122.5" cy="122.5" r="122.5" fill="#000" opacity=".1"/>
      <circle cx="121.5" cy="121.5" r="108.5" fill="#FFF"/>
      <use fill="#F2F2F2" xlink:href="#i"/>
      <use xlink:href="#i"/>
      <path fill="#8150B6" fill-opacity=".36" d="M200 145v-45l14 22.5-14 22.5zM48 100v45l-14-22.5L48 100z"/>
    </g>
    <rect width="951" height="669" x="52" y="136" fill="#000" opacity=".1" rx="37"/>
    <g transform="translate(66 148)">
      <mask id="l" fill="#fff">
        <use xlink:href="#j"/>
      </mask>
      <use fill="url(#k)" xlink:href="#j"/>
      <path stroke="#FFF" stroke-width="5" d="M31.5 562.5v51.183h138.964M890.464 562.5v51.183H751.5M31.5 83.683V32.5h138.964M890.464 83.683V32.5H751.5" stroke-linecap="round" mask="url(#l)"/>
      <path stroke="#FFF" d="M31 32h860v583H31z" mask="url(#l)"/>
      <text fill="#FFF" mask="url(#l)" font-family="Helvetica Neue" font-size="35" font-weight="420">
        <tspan x="57" y="91">~/TEAM</tspan>
      </text>
      <text fill="#FFF" mask="url(#l)" font-family="Helvetica Neue" font-size="35" font-weight="420">
        <tspan x="57" y="591">16 Mpix. 4898 × 3265</tspan>
      </text>
    </g>
    <g transform="rotate(-180 466 121)">
      <path stroke="#FFF" stroke-width="3" d="M83.247 9V8c0-4.417-3.58-8-7.998-8H8.224C3.808 0 .227 3.582.227 8v20c0 4.417 3.58 8 7.998 8H75.25c4.417 0 7.997-3.582 7.997-8v-1h.522c2.212 0 4.003-1.79 4.003-3.995v-10.01C87.773 10.792 85.98 9 83.77 9h-.523z"/>
      <rect width="22.132" height="27.31" x="5.434" y="4.034" fill="#FFF" rx="4"/>
      <rect width="22.132" height="27.31" x="56.566" y="4.034" fill="#FFF" rx="4"/>
      <rect width="22.132" height="27.31" x="31" y="4.034" fill="#FFF" rx="4"/>
    </g>
    <path fill="url(#m)" d="M157.938 59H158V13H0v46h.062C1.722 65.672 36.428 71 79 71s77.28-5.328 78.938-12z" transform="translate(987)"/>
    <g transform="translate(987)">
      <use xlink:href="#n"/>
      <use fill="#D6D6D6" xlink:href="#n"/>
    </g>
    <text fill="#8551B5" font-family="Helvetica Neue" font-size="49" font-weight="420">
      <tspan x="1056" y="366">Memories</tspan>
    </text>
    <text fill="#8E50AE" font-family="Helvetica Neue" font-size="34" font-weight="420">
      <tspan x="1058" y="322">Active::Bridge</tspan>
    </text>
  </g>
</svg>
