<?xml version="1.0" encoding="UTF-8" standalone="no"?>
<svg width="52px" height="70px" viewBox="0 0 52 70" version="1.1" xmlns="http://www.w3.org/2000/svg" xmlns:xlink="http://www.w3.org/1999/xlink" xmlns:sketch="http://www.bohemiancoding.com/sketch/ns">
    <!-- Generator: Sketch 3.5.1 (25234) - http://www.bohemiancoding.com/sketch -->
    <title>youtube-soc</title>
    <desc>Created with Sketch.</desc>
    <defs></defs>
    <g id="Page-1" stroke="none" stroke-width="1" fill="none" fill-rule="evenodd" sketch:type="MSPage">
        <g id="main-site" sketch:type="MSArtboardGroup" transform="translate(-864.000000, -489.000000)">
            <g id="active-bridge" sketch:type="MSLayerGroup" transform="translate(51.000000, 89.000000)">
                <g id="social-icons" transform="translate(813.000000, 330.000000)" sketch:type="MSShapeGroup">
                    <g id="youtube-soc" transform="translate(0.000000, 70.000000)">
                        <path d="M25.9074342,4.66089868 C11.6985909,-4.02452541 0.180047629,2.60619334 0.180047629,19.4710235 C0.180047629,36.3358537 11.6985909,57.0484273 25.9074342,65.7338514 C40.1162774,74.4192754 51.6348207,67.7885567 51.6348207,50.9237265 C51.6348207,34.0588963 40.1162774,13.3463228 25.9074342,4.66089868 Z M31.0472527,29.3361536 C29.5922444,28.39859 28.1310008,27.5053773 26.6730014,26.6151454 C25.2152092,25.7230445 23.7540605,24.8298898 22.2988608,23.9885336 C20.8342877,23.1417803 19.374289,22.346052 17.9270138,21.6535385 C17.2621599,21.3344555 16.6539307,21.3023263 16.1739093,21.5268033 C15.6969407,21.7498196 15.3465033,22.2266848 15.1931996,22.9273821 C14.9862402,23.8657404 14.8815464,24.9127722 14.8286578,25.9983627 C14.7755636,27.0885605 14.7742373,28.1961868 14.7742373,29.2722592 C14.7742373,30.3469047 14.774256,31.4539094 14.8260984,32.6089257 C14.8776981,33.7578854 14.9811213,34.9320913 15.1881917,36.123719 C15.3424114,37.01273 15.6930163,37.9183214 16.1699485,38.7243994 C16.6496836,39.5352566 17.2573133,40.2461447 17.9219773,40.7397551 C19.3694376,41.8166819 20.8294348,42.8058548 22.2940142,43.7495794 C23.7491902,44.6872454 25.2103452,45.580404 26.6683446,46.4706359 C28.1269957,47.3632618 29.5881238,48.256404 31.0431021,49.0976248 C32.5074696,49.9442745 33.9670412,50.739742 35.4143323,51.4322878 C36.0788682,51.7511765 36.6863682,51.7831697 37.1663137,51.5590912 C37.6434879,51.3362682 37.9945785,50.8595339 38.1498072,50.1594444 C38.3559632,49.2203734 38.4594041,48.1726097 38.5111918,47.0868906 C38.5622871,46.0162256 38.5627167,44.8986548 38.562642,43.8133751 C38.5626794,41.6027163 38.5626794,39.319003 38.1548334,36.963138 C38.0006137,36.0741045 37.6496165,35.168339 37.1721243,34.3619506 C36.6916625,33.5505698 36.0831723,32.8391105 35.4176762,32.3450367 C33.9712251,31.2687061 32.5116582,30.2797943 31.0472527,29.3361536 Z M23.7822471,29.6625054 L23.4125125,29.2073739 L23.4125125,29.7016797 L23.4125125,38.8398935 L23.4125125,39.3329564 L23.781257,39.3316505 C25.0182084,39.3272554 26.2498768,39.3224472 27.4814977,39.3174016 L31.1817227,39.3016974 L31.6124349,39.2998212 L31.1827128,38.7707679 C29.827392,37.1021899 28.481182,35.4455041 27.1365774,33.7908153 C26.0188733,32.4153438 24.9021815,31.0411125 23.7822471,29.6625054 Z" id="Oval-100" fill-opacity="0.1" fill="#000000"></path>
                        <path d="M26.6777528,32.4813007 C25.2227445,31.5437371 23.7615009,30.6505244 22.3035015,29.7602925 C20.8457093,28.8681916 19.3845607,27.9750369 17.9293609,27.1336807 C16.4647878,26.2869274 15.0047891,25.4911991 13.5575139,24.7986857 C12.89266,24.4796027 12.2844308,24.4474735 11.8044094,24.6719505 C11.3274408,24.8949668 10.9770034,25.3718319 10.8236997,26.0725293 C10.6167403,27.0108875 10.5120465,28.0579193 10.4591579,29.1435099 C10.4060637,30.2337077 10.4047374,31.3413339 10.4047374,32.4174063 C10.4047374,33.4920518 10.4047561,34.5990565 10.4565985,35.7540728 C10.5081982,36.9030325 10.6116214,38.0772384 10.8186918,39.2688661 C10.9729115,40.1578771 11.3235164,41.0634685 11.8004486,41.8695466 C12.2801837,42.6804037 12.8878134,43.3912919 13.5524774,43.8849022 C14.9999377,44.961829 16.4599349,45.9510019 17.9245143,46.8947265 C19.3796903,47.8323926 20.8408453,48.7255512 22.2988447,49.615783 C23.7574958,50.5084089 25.2186239,51.4015511 26.6736022,52.2427719 C28.1379697,53.0894217 29.5975413,53.8848891 31.0448324,54.5774349 C31.7093683,54.8963236 32.3168683,54.9283168 32.7968138,54.7042384 C33.273988,54.4814154 33.6250786,54.0046811 33.7803073,53.3045915 C33.9864633,52.3655206 34.0899042,51.3177568 34.141692,50.2320378 C34.1927872,49.1613727 34.1932168,48.043802 34.1931421,46.9585222 C34.1931795,44.7478634 34.1931795,42.4641501 33.7853335,40.1082852 C33.6311138,39.2192516 33.2801166,38.3134862 32.8026244,37.5070977 C32.3221626,36.6957169 31.7136724,35.9842577 31.0481763,35.4901838 C29.6017252,34.4138533 28.1421583,33.4249415 26.6777528,32.4813007 Z M19.4127472,32.8076525 L19.0430126,32.3525211 L19.0430126,32.8468268 L19.0430126,41.9850406 L19.0430126,42.4781035 L19.4117571,42.4767976 C20.6487085,42.4724026 21.8803769,42.4675943 23.1119978,42.4625487 L26.8122228,42.4468445 L27.242935,42.4449683 L26.8132129,41.9159151 C25.4578921,40.247337 24.1116821,38.5906512 22.7670775,36.9359625 C21.6493734,35.5604909 20.5326816,34.1862596 19.4127472,32.8076525 Z" id="Path" fill="#FFFFFF"></path>
                    </g>
                </g>
            </g>
        </g>
    </g>
</svg>